<?xml version="1.0" encoding="utf-8"?>
<!-- Generator: Adobe Illustrator 17.0.0, SVG Export Plug-In . SVG Version: 6.00 Build 0)  -->
<!DOCTYPE svg PUBLIC "-//W3C//DTD SVG 1.1//EN" "http://www.w3.org/Graphics/SVG/1.1/DTD/svg11.dtd">
<svg version="1.1" id="Layer_1" xmlns="http://www.w3.org/2000/svg" xmlns:xlink="http://www.w3.org/1999/xlink" x="0px" y="0px"
	 width="300px" height="300px" viewBox="0 0 300 300" enable-background="new 0 0 300 300" xml:space="preserve">
<g>
	<path fill-rule="evenodd" clip-rule="evenodd" fill="#FFFFFF" d="M167.474,297.653c55.871,0,101.438-18.548,101.438-41.217
		c0-22.726-45.567-41.274-101.438-41.274c-55.871,0-101.496,18.548-101.496,41.274C65.978,279.105,111.603,297.653,167.474,297.653
		L167.474,297.653z"/>
	<path fill-rule="evenodd" clip-rule="evenodd" fill="#FFFFFF" d="M167.474,219.112c51.807,0,93.768,16.258,93.768,36.351
		s-41.961,36.408-93.768,36.408c-51.807,0-93.768-16.315-93.768-36.408S115.667,219.112,167.474,219.112L167.474,219.112z"/>
	<path fill-rule="evenodd" clip-rule="evenodd" fill="#F27222" d="M167.474,219.112c51.807,0,93.768,16.315,93.768,36.408
		s-41.961,36.408-93.768,36.408c-51.807,0-93.768-16.315-93.768-36.408S115.667,219.112,167.474,219.112L167.474,219.112z
		 M167.474,220.372c50.032,0,90.562,15.513,90.562,34.576c0,19.12-40.53,34.633-90.562,34.633s-90.619-15.513-90.619-34.633
		C76.855,235.885,117.442,220.372,167.474,220.372L167.474,220.372z"/>
	<path fill-rule="evenodd" clip-rule="evenodd" fill="#CCCCCC" d="M167.474,276.93c30.168,0,54.784-9.216,54.784-20.494
		c0-11.335-24.615-20.551-54.784-20.551c-30.226,0-54.841,9.217-54.841,20.551C112.633,267.714,137.248,276.93,167.474,276.93
		L167.474,276.93z"/>
	<path fill-rule="evenodd" clip-rule="evenodd" fill="#F27222" d="M268.855,257.295c0.057,0.515,0.057,0.973,0.057,1.431
		c0,22.784-45.395,41.274-101.438,41.274S65.978,281.51,65.978,258.726c0-0.458,0.057-0.916,0.115-1.431
		c1.832,22.154,46.483,39.843,101.381,39.843C222.315,297.138,267.023,279.449,268.855,257.295L268.855,257.295z"/>
	<path fill-rule="evenodd" clip-rule="evenodd" fill="#F27222" d="M76.34,147.728c0,0,0,2.519-3.32,2.92
		c-7.327,0.916-35.148-12.308-41.274,13.796c-10.705,45.567,112.773,106.075,111.113,74.19l-0.687-13.166
		c-0.687-12.651-77.911,0.859-93.023-42.705c-10.762-31.199,28.623-7.556,35.149,1.431c0,0,4.637-20.952,4.637-22.612
		C88.934,159.864,76.34,147.728,76.34,147.728L76.34,147.728z"/>
	<path fill-rule="evenodd" clip-rule="evenodd" fill="#D15D1C" d="M76.34,147.728c0,0,0,2.519-3.32,2.92
		c-1.603,0.229-4.236-0.286-7.385-0.859c4.122,7.213,7.671,16.315,5.667,23.928l0,0c5.839,3.549,10.991,7.671,12.995,10.476
		c0,0,4.637-20.952,4.637-22.612C88.934,159.864,76.34,147.728,76.34,147.728L76.34,147.728z M85.613,231.535
		c28.794,16.143,58.047,22.726,57.245,7.098l-0.687-13.166c-0.401-7.442-27.306-5.839-52.494-12.136
		c0.744,3.206,0.515,7.327-1.431,12.594C87.502,228.1,86.586,229.932,85.613,231.535L85.613,231.535z"/>
	<path fill-rule="evenodd" clip-rule="evenodd" fill="#F27222" d="M262.386,142.976c-4.637,52.551-28.336,128.172-93.252,128.172
		c-64.401,0-88.157-76.251-92.737-128.172c34.004,0.458,67.95,0.916,101.896,1.088L262.386,142.976z"/>
	<path fill-rule="evenodd" clip-rule="evenodd" fill="#D15D1C" d="M251.453,197.016c-12.995,39.041-38.068,74.133-82.319,74.133
		c-43.792,0-68.751-35.263-81.746-74.133c2.92,5.152,4.98,9.388,7.442,14.655c14.311,30.741,37.782,55.299,74.304,55.299
		c38.297,0,62.226-26.276,76.422-58.619C247.732,203.313,248.132,203.255,251.453,197.016L251.453,197.016z"/>
	<path fill-rule="evenodd" clip-rule="evenodd" fill="#D15D1C" d="M256.09,162.211c-4.465,28.565-18.948,69.553-43.964,89.245
		c6.755-16.658,14.254-40.988,0.057-70.24C230.558,178.869,246.816,170.282,256.09,162.211L256.09,162.211z"/>
	<path fill-rule="evenodd" clip-rule="evenodd" fill="#FFFFFF" d="M169.363,101.932c123.878,0,123.936,79.399,0,79.399
		S45.485,101.932,169.363,101.932L169.363,101.932z"/>
	<path fill-rule="evenodd" clip-rule="evenodd" fill="#CCCCCC" d="M169.363,177.896c47.743,0,86.726-16.544,86.726-36.752
		s-38.984-36.751-86.726-36.751c-47.8,0-86.726,16.544-86.726,36.751S121.563,177.896,169.363,177.896L169.363,177.896z"/>
	<path fill-rule="evenodd" clip-rule="evenodd" fill="#131416" d="M169.363,177.953c44.651,0,81.059-13.796,81.059-30.683
		s-36.408-30.683-81.059-30.683s-81.059,13.796-81.059,30.683S124.712,177.953,169.363,177.953L169.363,177.953z"/>
	<path fill-rule="evenodd" clip-rule="evenodd" fill="#434844" d="M165.871,120.25c-16.487,0-31.599,2.175-43.392,5.896
		c-38.755,12.021-29.252,21.925-2.805,16.086c30.397-6.755,52.551-12.708,79.685,5.496c10.419,7.041,19.692,15.8,32.401,9.903
		c5.038-2.29,9.331-6.297,9.331-10.819C241.091,132.5,203.653,120.25,165.871,120.25L165.871,120.25z"/>
	<path fill-rule="evenodd" clip-rule="evenodd" fill="#FFFFFF" d="M169.363,114.812c44.766,0,81.059,13.739,81.059,30.683
		c0,0.344-0.057,0.63-0.057,0.916c-1.202-16.544-37.038-29.825-81.002-29.825c-44.021,0-79.857,13.281-81.059,29.825
		c0-0.286,0-0.572,0-0.916C88.304,128.551,124.597,114.812,169.363,114.812L169.363,114.812z"/>
	<path fill-rule="evenodd" clip-rule="evenodd" fill="#D15D1C" d="M48.919,151.678c4.064-0.573,7.499-0.744,8.93,1.832
		c1.488,2.519-2.29,5.438-6.411,5.953c-4.064,0.573-7.671,0.515-8.358-1.603C42.393,155.685,44.798,152.193,48.919,151.678
		L48.919,151.678z"/>
	<path fill-rule="evenodd" clip-rule="evenodd" fill="#D15D1C" d="M39.302,163.527c1.317,0,2.462-0.973,2.462-2.175
		c0-1.202-1.145-2.175-2.462-2.175c-1.374,0-2.462,0.973-2.462,2.175C36.841,162.554,37.928,163.527,39.302,163.527L39.302,163.527z
		"/>
	<g>
		<path fill-rule="evenodd" clip-rule="evenodd" fill="#F2F2F2" d="M162.175,0c2.301,2.217,10.374,10.835,7.948,22.506
			c-2.803,13.595-11.922,12.508-12.591,25.727c-0.544,11.127,9.203,19.243,13.303,23.51c-3.598-6.317-7.823-15.185-7.404-23.468
			c0.669-13.261,9.747-12.173,12.591-25.727C178.238,11.838,167.027,3.221,162.175,0L162.175,0z"/>
		<path fill-rule="evenodd" clip-rule="evenodd" fill="#F2F2F2" d="M138.121,38.025c2.05,1.213,9.287,6.149,10.165,14.265
			c0.962,9.454-5.396,9.747-3.012,18.741c2.008,7.53,10.291,11.88,13.93,14.265c-3.765-3.807-8.45-9.329-9.956-14.934
			c-2.385-8.994,3.974-9.245,2.97-18.699C151.466,44.217,142.095,39.657,138.121,38.025L138.121,38.025z"/>
		<path fill-rule="evenodd" clip-rule="evenodd" fill="#F2F2F2" d="M198.485,19.745c-2.593,1.799-11.755,9.078-11.629,20.247
			c0.084,13.01,8.827,12.884,6.944,25.309c-1.548,10.458-12.173,17.067-16.775,20.665c4.518-5.522,10.123-13.428,11.253-21.209
			c1.882-12.466-6.819-12.34-6.944-25.308C181.25,29.241,193.34,22.255,198.485,19.745L198.485,19.745z"/>
		<path fill-rule="evenodd" clip-rule="evenodd" fill="#F2F2F2" d="M147.868,86.676c0,0-8.492-4.476-10.123-9.956
			c-1.631-5.522-0.837-10.333-0.837-10.333s-5.187,9.621-2.719,14.767C136.657,86.3,147.868,86.676,147.868,86.676L147.868,86.676z"
			/>
		<path fill-rule="evenodd" clip-rule="evenodd" fill="#F2F2F2" d="M190.077,82.702c0,0,8.492-4.434,10.123-9.956
			c1.673-5.48,0.837-10.291,0.837-10.291s5.187,9.621,2.719,14.767C201.33,82.367,190.077,82.702,190.077,82.702L190.077,82.702z"/>
	</g>
</g>
</svg>
