<?xml version="1.0" encoding="utf-8"?>
<!-- Generator: Adobe Illustrator 17.0.0, SVG Export Plug-In . SVG Version: 6.00 Build 0)  -->
<!DOCTYPE svg PUBLIC "-//W3C//DTD SVG 1.1//EN" "http://www.w3.org/Graphics/SVG/1.1/DTD/svg11.dtd">
<svg version="1.1" xmlns="http://www.w3.org/2000/svg" xmlns:xlink="http://www.w3.org/1999/xlink" x="0px" y="0px" width="300px"
	 height="126.333px" viewBox="0 0 300 126.333" enable-background="new 0 0 300 126.333" xml:space="preserve">
<g id="Layer_1">
	<g display="none">
		<path display="inline" fill="#FFFFFF" d="M169.363,101.932c123.878,0,123.936,79.399,0,79.399S45.485,101.932,169.363,101.932
			L169.363,101.932z"/>
		<path display="inline" fill="#CCCCCC" d="M169.363,177.896c47.743,0,86.726-16.544,86.726-36.752s-38.984-36.751-86.726-36.751
			c-47.8,0-86.726,16.544-86.726,36.751S121.563,177.896,169.363,177.896L169.363,177.896z"/>
		<path display="inline" fill="#131416" d="M169.363,177.953c44.651,0,81.059-13.796,81.059-30.683s-36.408-30.683-81.059-30.683
			s-81.059,13.796-81.059,30.683S124.712,177.953,169.363,177.953L169.363,177.953z"/>
		<path display="inline" fill="#434844" d="M165.871,120.25c-16.487,0-31.599,2.175-43.392,5.896
			c-38.755,12.021-29.252,21.925-2.805,16.086c30.397-6.755,52.551-12.708,79.685,5.496c10.419,7.041,19.692,15.8,32.401,9.903
			c5.038-2.29,9.331-6.297,9.331-10.819C241.091,132.5,203.653,120.25,165.871,120.25L165.871,120.25z"/>
		<path display="inline" fill="#FFFFFF" d="M169.363,114.812c44.766,0,81.059,13.739,81.059,30.683c0,0.344-0.057,0.63-0.057,0.916
			c-1.202-16.544-37.038-29.825-81.002-29.825c-44.021,0-79.857,13.281-81.059,29.825c0-0.286,0-0.572,0-0.916
			C88.304,128.551,124.597,114.812,169.363,114.812L169.363,114.812z"/>
		<g display="inline">
			<path fill="#F2F2F2" d="M147.868,86.676c0,0-8.492-4.476-10.123-9.956c-1.631-5.522-0.837-10.333-0.837-10.333
				s-5.187,9.621-2.719,14.767C136.657,86.3,147.868,86.676,147.868,86.676L147.868,86.676z"/>
		</g>
	</g>
	<g display="none">
		<rect x="6.929" y="88.548" display="inline" fill="#1D1D28" width="32.515" height="17.072"/>
		<g display="inline">
			<path fill="#373747" d="M24.192,107.243c-1.362,0-1.532,2.117-0.16,2.117C25.394,109.36,25.564,107.243,24.192,107.243z"/>
			<path fill="#373747" d="M27.426,110.104c-1.372,0-1.532,2.128-0.16,2.128C28.629,112.231,28.788,110.104,27.426,110.104z"/>
			<path fill="#373747" d="M28.533,108.147c0-0.692-0.574-1.266-1.266-1.266c-0.702,0-1.277,0.574-1.277,1.266
				c0,0.702,0.575,1.266,1.277,1.266C27.958,109.412,28.533,108.849,28.533,108.147z"/>
			<path fill="#373747" d="M27.171,106.039c1.362,0,1.521-2.128,0.16-2.128C25.958,103.912,25.798,106.039,27.171,106.039z"/>
			<path fill="#373747" d="M30.458,107.306c-1.362,0-1.532,2.128-0.16,2.128C31.661,109.434,31.831,107.306,30.458,107.306z"/>
			<path fill="#D9D9E7" d="M24.192,107.243c-1.362,0-1.532,2.117-0.16,2.117C25.394,109.36,25.564,107.243,24.192,107.243z
				 M27.426,110.104c-1.372,0-1.532,2.128-0.16,2.128C28.629,112.231,28.788,110.104,27.426,110.104z M27.33,103.912
				c-1.372,0-1.532,2.128-0.16,2.128C28.533,106.039,28.692,103.912,27.33,103.912z M25.99,108.147c0,0.702,0.575,1.266,1.277,1.266
				c0.692,0,1.266-0.564,1.266-1.266c0-0.692-0.574-1.266-1.266-1.266C26.565,106.881,25.99,107.455,25.99,108.147z M30.299,109.434
				c1.362,0,1.532-2.128,0.16-2.128C29.097,107.306,28.926,109.434,30.299,109.434z M27.267,113.03
				c-2.702,0-4.883-2.181-4.883-4.883c0-2.692,2.181-4.873,4.883-4.873c2.692,0,4.873,2.181,4.873,4.873
				C32.139,110.849,29.958,113.03,27.267,113.03z"/>
			<path fill="#BDBDCB" d="M22.383,108.147c0,2.702,2.181,4.883,4.883,4.883c2.692,0,4.873-2.181,4.873-4.883
				c0-2.692-2.181-4.873-4.873-4.873C24.564,103.274,22.383,105.455,22.383,108.147z M27.267,116.924
				c-4.851,0-8.777-3.926-8.777-8.777c0-4.841,3.926-8.766,8.777-8.766c4.841,0,8.766,3.926,8.766,8.766
				C36.033,112.998,32.107,116.924,27.267,116.924z"/>
			<path fill="#3A3A4C" d="M18.489,108.147c0,4.851,3.926,8.777,8.777,8.777c4.841,0,8.766-3.926,8.766-8.777
				c0-4.841-3.926-8.766-8.766-8.766C22.415,99.38,18.489,103.306,18.489,108.147z M39.236,108.147
				c0,6.617-5.362,11.979-11.969,11.979c-6.617,0-11.979-5.362-11.979-11.979c0-6.607,5.362-11.969,11.979-11.969
				C33.873,96.177,39.236,101.539,39.236,108.147z"/>
			<path fill="#1D1D28" d="M27.267,92.933c8.405,0,15.214,6.809,15.214,15.214c0,8.415-6.809,15.224-15.214,15.224
				c-8.415,0-15.224-6.809-15.224-15.224C12.042,99.742,18.851,92.933,27.267,92.933z M39.236,108.147
				c0-6.607-5.362-11.969-11.969-11.969c-6.617,0-11.979,5.362-11.979,11.969c0,6.617,5.362,11.979,11.979,11.979
				C33.873,120.126,39.236,114.764,39.236,108.147z"/>
		</g>
		<g display="inline">
			<path fill="#373747" d="M264.835,107.243c-1.362,0-1.532,2.117-0.16,2.117C266.037,109.36,266.207,107.243,264.835,107.243z"/>
			<path fill="#373747" d="M268.069,110.104c-1.372,0-1.532,2.128-0.16,2.128C269.271,112.231,269.431,110.104,268.069,110.104z"/>
			<path fill="#373747" d="M269.176,108.147c0-0.692-0.574-1.266-1.266-1.266c-0.702,0-1.277,0.574-1.277,1.266
				c0,0.702,0.574,1.266,1.277,1.266C268.601,109.412,269.176,108.849,269.176,108.147z"/>
			<path fill="#373747" d="M267.814,106.039c1.362,0,1.521-2.128,0.16-2.128C266.601,103.912,266.441,106.039,267.814,106.039z"/>
			<path fill="#373747" d="M271.101,107.306c-1.362,0-1.532,2.128-0.16,2.128C272.303,109.434,272.474,107.306,271.101,107.306z"/>
			<path fill="#D9D9E7" d="M264.835,107.243c-1.362,0-1.532,2.117-0.16,2.117C266.037,109.36,266.207,107.243,264.835,107.243z
				 M268.069,110.104c-1.372,0-1.532,2.128-0.16,2.128C269.271,112.231,269.431,110.104,268.069,110.104z M267.973,103.912
				c-1.372,0-1.532,2.128-0.16,2.128C269.176,106.039,269.335,103.912,267.973,103.912z M266.633,108.147
				c0,0.702,0.574,1.266,1.277,1.266c0.692,0,1.266-0.564,1.266-1.266c0-0.692-0.574-1.266-1.266-1.266
				C267.207,106.881,266.633,107.455,266.633,108.147z M270.942,109.434c1.362,0,1.532-2.128,0.16-2.128
				C269.74,107.306,269.569,109.434,270.942,109.434z M267.91,113.03c-2.702,0-4.883-2.181-4.883-4.883
				c0-2.692,2.181-4.873,4.883-4.873c2.692,0,4.873,2.181,4.873,4.873C272.782,110.849,270.601,113.03,267.91,113.03z"/>
			<path fill="#BDBDCB" d="M263.026,108.147c0,2.702,2.181,4.883,4.883,4.883c2.692,0,4.873-2.181,4.873-4.883
				c0-2.692-2.181-4.873-4.873-4.873C265.207,103.274,263.026,105.455,263.026,108.147z M267.91,116.924
				c-4.851,0-8.777-3.926-8.777-8.777c0-4.841,3.926-8.766,8.777-8.766c4.841,0,8.766,3.926,8.766,8.766
				C276.676,112.998,272.75,116.924,267.91,116.924z"/>
			<path fill="#3A3A4C" d="M259.132,108.147c0,4.851,3.926,8.777,8.777,8.777c4.841,0,8.766-3.926,8.766-8.777
				c0-4.841-3.926-8.766-8.766-8.766C263.058,99.38,259.132,103.306,259.132,108.147z M279.878,108.147
				c0,6.617-5.362,11.979-11.969,11.979c-6.617,0-11.98-5.362-11.98-11.979c0-6.607,5.362-11.969,11.98-11.969
				C274.516,96.177,279.878,101.539,279.878,108.147z"/>
			<path fill="#1D1D28" d="M267.91,92.933c8.405,0,15.214,6.809,15.214,15.214c0,8.415-6.809,15.224-15.214,15.224
				c-8.415,0-15.224-6.809-15.224-15.224C252.685,99.742,259.494,92.933,267.91,92.933z M279.878,108.147
				c0-6.607-5.362-11.969-11.969-11.969c-6.617,0-11.98,5.362-11.98,11.969c0,6.617,5.362,11.979,11.98,11.979
				C274.516,120.126,279.878,114.764,279.878,108.147z"/>
		</g>
		<g display="inline">
			<path fill="#373747" d="M219.032,107.243c-1.362,0-1.532,2.117-0.16,2.117C220.234,109.36,220.404,107.243,219.032,107.243z"/>
			<path fill="#373747" d="M222.266,110.104c-1.372,0-1.532,2.128-0.16,2.128C223.468,112.231,223.628,110.104,222.266,110.104z"/>
			<path fill="#373747" d="M223.372,108.147c0-0.692-0.575-1.266-1.266-1.266c-0.702,0-1.277,0.574-1.277,1.266
				c0,0.702,0.575,1.266,1.277,1.266C222.798,109.412,223.372,108.849,223.372,108.147z"/>
			<path fill="#373747" d="M222.011,106.039c1.362,0,1.521-2.128,0.16-2.128C220.798,103.912,220.638,106.039,222.011,106.039z"/>
			<path fill="#373747" d="M225.298,107.306c-1.362,0-1.532,2.128-0.16,2.128C226.5,109.434,226.67,107.306,225.298,107.306z"/>
			<path fill="#D9D9E7" d="M219.032,107.243c-1.362,0-1.532,2.117-0.16,2.117C220.234,109.36,220.404,107.243,219.032,107.243z
				 M222.266,110.104c-1.372,0-1.532,2.128-0.16,2.128C223.468,112.231,223.628,110.104,222.266,110.104z M222.17,103.912
				c-1.372,0-1.532,2.128-0.16,2.128C223.372,106.039,223.532,103.912,222.17,103.912z M220.83,108.147
				c0,0.702,0.575,1.266,1.277,1.266c0.692,0,1.266-0.564,1.266-1.266c0-0.692-0.575-1.266-1.266-1.266
				C221.404,106.881,220.83,107.455,220.83,108.147z M225.138,109.434c1.362,0,1.532-2.128,0.16-2.128
				C223.936,107.306,223.766,109.434,225.138,109.434z M222.106,113.03c-2.702,0-4.883-2.181-4.883-4.883
				c0-2.692,2.181-4.873,4.883-4.873c2.692,0,4.873,2.181,4.873,4.873C226.979,110.849,224.798,113.03,222.106,113.03z"/>
			<path fill="#BDBDCB" d="M217.223,108.147c0,2.702,2.181,4.883,4.883,4.883c2.692,0,4.873-2.181,4.873-4.883
				c0-2.692-2.181-4.873-4.873-4.873C219.404,103.274,217.223,105.455,217.223,108.147z M222.106,116.924
				c-4.851,0-8.777-3.926-8.777-8.777c0-4.841,3.926-8.766,8.777-8.766c4.841,0,8.766,3.926,8.766,8.766
				C230.873,112.998,226.947,116.924,222.106,116.924z"/>
			<path fill="#3A3A4C" d="M213.329,108.147c0,4.851,3.926,8.777,8.777,8.777c4.841,0,8.766-3.926,8.766-8.777
				c0-4.841-3.926-8.766-8.766-8.766C217.255,99.38,213.329,103.306,213.329,108.147z M234.075,108.147
				c0,6.617-5.362,11.979-11.969,11.979c-6.617,0-11.979-5.362-11.979-11.979c0-6.607,5.362-11.969,11.979-11.969
				C228.713,96.177,234.075,101.539,234.075,108.147z"/>
			<path fill="#1D1D28" d="M222.106,92.933c8.405,0,15.214,6.809,15.214,15.214c0,8.415-6.809,15.224-15.214,15.224
				c-8.415,0-15.224-6.809-15.224-15.224C206.882,99.742,213.691,92.933,222.106,92.933z M234.075,108.147
				c0-6.607-5.362-11.969-11.969-11.969c-6.617,0-11.979,5.362-11.979,11.969c0,6.617,5.362,11.979,11.979,11.979
				C228.713,120.126,234.075,114.764,234.075,108.147z"/>
		</g>
		<g display="inline">
			<path fill="#1D1D28" d="M1.405,96.595L0.78,96.912c0,0,0.587,5.443,0.973,6.871c0.378,1.421,2.633,1.838,2.633,1.838H9.38
				c0,0-0.757-5.142,1.668-10.199C6.053,95.67,1.405,96.595,1.405,96.595z"/>
			<path fill="#B4B4C5" d="M2.964,81.642c-1.096,0.903-1.428,6.84-1.521,10.955c0.062-0.201,1.119-3.49,1.691-7.033
				c0.17-1.027,0.224-1.783,0.224-2.347C3.358,81.781,2.964,81.642,2.964,81.642z"/>
			<path fill="#8787A7" d="M3.065,94.666c0.077-5.165,3.219-6.292,3.69-6.431c-0.17,0.015-0.324,0.039-0.479,0.069
				c-4.107,0.811-4.794,5.898-4.864,6.57c0,0.008,0,0.015,0,0.023c-0.008,0.015-0.008,0.031,0,0.046
				C1.498,94.927,2.216,94.804,3.065,94.666z"/>
			<path fill="#F17121" d="M3.358,83.062c0,0,1.683-0.494,4.246-1.197l-0.185-2.308c-2.324,0.865-3.891,1.621-4.455,2.084
				c0,0,0.394,0.139,0.394,1.575C3.358,83.216,3.358,83.062,3.358,83.062z"/>
			<path fill="#E0631E" d="M3.358,83.216v1.459c1.451-0.517,2.911-0.996,4.362-1.421l-0.116-1.39
				c-2.563,0.703-4.246,1.197-4.246,1.197L3.358,83.216z"/>
			<path fill="#E44C23" d="M5.474,91.169c-0.417,0-0.757,0.463-0.757,1.042c0,0.571,0.34,1.042,0.757,1.042s0.749-0.471,0.749-1.042
				C6.222,91.632,5.891,91.169,5.474,91.169z"/>
			<path fill="#B4B4C5" d="M5.474,93.253c0.417,0,0.749-0.471,0.749-1.042c0-0.579-0.332-1.042-0.749-1.042
				c-0.417,0-0.757,0.463-0.757,1.042C4.717,92.782,5.057,93.253,5.474,93.253z M6.817,93.562c-0.208,0.463-0.425,0.641-0.942,0.695
				c-0.579,0.054-1.791,0.239-2.81,0.409c0.077-5.165,3.219-6.292,3.69-6.431c0.116-0.015,0.239-0.023,0.371-0.031
				c0,0,2.015-0.124,0.803,2.563C7.288,92.179,7.056,93.045,6.817,93.562z"/>
			<path fill="#1D1D28" d="M9.488,77.024v-3.397H8.315c-2.887,0-2.123,3.227-2.123,3.227h1.004l0.224,2.702
				c0.332-0.131,0.679-0.255,1.035-0.386l-0.386-2.146H9.488z"/>
			<path fill="#F17121" d="M7.126,88.203c0,0,2.015-0.124,0.803,2.563c-0.641,1.413-0.872,2.278-1.112,2.795l5.636-0.525
				c0.355-0.502,0.757-0.988,1.197-1.467c2.841-3.065,9.921-4.03,14.7-4.331l0.131-3.683l-0.201-0.008
				c-4.015-0.131-10.724,0.865-14.375,1.822c-3.644,0.965-7.682,2.602-7.682,2.602l0.054,0.332c0.154-0.031,0.309-0.054,0.479-0.069
				C6.871,88.218,6.994,88.212,7.126,88.203z"/>
			<path fill="#1D1D28" d="M7.419,79.557l0.185,2.308c0.409-0.108,0.834-0.224,1.274-0.34L8.453,79.17
				C8.099,79.302,7.751,79.425,7.419,79.557z"/>
			<path fill="#F17121" d="M8.454,79.171l0.425,2.355c5.736-1.529,14.592-3.683,19.803-3.961l0.116-3.281
				C20.606,75.442,13.248,77.465,8.454,79.171z"/>
			<path fill="#1D1D28" d="M8.963,81.989l-0.085-0.463c-0.44,0.116-0.865,0.232-1.274,0.34l0.116,1.39
				c0.888-0.263,1.768-0.502,2.64-0.733c-0.046-0.317-0.108-0.533-0.108-0.533L8.963,81.989L8.963,81.989z"/>
			<path fill="#F17121" d="M10.044,84.49c-0.71,0.764-1.93,0.764-2.224,0l-0.1-1.235c-1.451,0.425-2.911,0.903-4.362,1.421v-1.459
				c0,0.564-0.054,1.32-0.224,2.347c-0.571,3.544-1.629,6.833-1.691,7.033c-0.023,0.857-0.031,1.637-0.031,2.277
				c0.069-0.672,0.757-5.759,4.864-6.57l-0.054-0.332c0,0,4.038-1.637,7.682-2.602c3.652-0.957,10.361-1.953,14.375-1.822
				l0.201,0.008l0.147-4.208c-0.757,0.054-8.987,0.741-18.267,3.173C10.453,83.093,10.5,83.996,10.044,84.49z"/>
			<path fill="#F17121" d="M1.405,95.623c3.312-0.71,7.589-1.073,10.183-1.235c0.255-0.455,0.548-0.911,0.865-1.351l-5.636,0.525
				c-0.208,0.463-0.425,0.641-0.942,0.695c-0.579,0.054-1.791,0.239-2.81,0.409c-0.849,0.139-1.567,0.262-1.652,0.278
				C1.405,95.19,1.405,95.423,1.405,95.623z"/>
			<path fill="#F17121" d="M1.405,96.595c0,0,4.648-0.926,9.643-1.174c0.162-0.347,0.347-0.695,0.54-1.035
				c-2.594,0.162-6.871,0.525-10.183,1.235C1.405,96.233,1.405,96.595,1.405,96.595z"/>
			<path fill="#1D1D28" d="M10.044,84.49c0.456-0.494,0.409-1.397,0.317-1.969c-0.872,0.232-1.753,0.471-2.64,0.733l0.1,1.235
				C8.114,85.255,9.334,85.255,10.044,84.49z"/>
			<path fill="#3A3A4C" d="M11.465,101.582c0-2.278,0.625-4.408,1.714-6.23c-0.71,0.008-1.421,0.031-2.131,0.069
				c-2.424,5.057-1.668,10.199-1.668,10.199h2.085V101.582z"/>
			<path fill="#D35916" d="M11.588,94.388c-0.193,0.34-0.378,0.687-0.54,1.035c0.71-0.039,1.421-0.062,2.131-0.069
				c0.216-0.378,0.463-0.749,0.726-1.096C13.904,94.257,12.993,94.287,11.588,94.388z"/>
			<path fill="#D35916" d="M12.453,93.037c-0.317,0.44-0.61,0.896-0.865,1.351c1.405-0.1,2.316-0.131,2.316-0.131
				c0.401-0.525,0.842-1.027,1.32-1.482L12.453,93.037z"/>
			<path fill="#E0631E" d="M28.681,77.565c-5.211,0.278-14.067,2.432-19.803,3.961l0.085,0.463h1.289c0,0,0.062,0.216,0.108,0.533
				c9.28-2.432,17.51-3.119,18.267-3.173l0.054-1.683v-0.093C28.681,77.573,28.681,77.565,28.681,77.565z"/>
			<path fill="#F17121" d="M26.18,89.377c3.961,1.382,5.945,4.787,6.925,8.122h28.689V94.95h-6.022H37.799l-2.432-3.382
				l-1.575-2.193H28.28h-2.1V89.377z"/>
			<path fill="#D35916" d="M15.225,92.774c2.193-2.108,5.165-3.397,8.446-3.397h2.509h2.1l0.069-2.139
				c-4.779,0.301-11.859,1.266-14.7,4.331c-0.44,0.479-0.842,0.965-1.197,1.467L15.225,92.774z"/>
			<path fill="#BC490F" d="M28.681,77.565v0.008c0.023,0.185,0.355,2.818,2.386,2.162c1.984-0.641,2.038-2.818,2.038-3.057
				c0-0.015,0-0.023,0-0.023L28.681,77.565z"/>
			<path fill="#E44C23" d="M30.596,85.062c-0.803,0-1.451,0.363-1.451,0.803c0,0.448,0.648,0.811,1.451,0.811
				c0.795,0,1.444-0.363,1.444-0.811C32.04,85.425,31.391,85.062,30.596,85.062z"/>
			<path fill="#E0631E" d="M30.596,86.675c0.795,0,1.444-0.363,1.444-0.811c0-0.44-0.649-0.803-1.444-0.803
				c-0.803,0-1.451,0.363-1.451,0.803C29.144,86.312,29.793,86.675,30.596,86.675z M28.48,83.556l0.147-4.208
				c0.039-0.008,0.054-0.008,0.054-0.008v-1.675v-0.093c0.023,0.185,0.355,2.818,2.386,2.162c1.984-0.641,2.038-2.818,2.038-3.057
				v10.446c0,0-2-0.054-4.756,0.116L28.48,83.556z"/>
			<path fill="#E0631E" d="M33.105,76.654v-5.427c-0.594,1.143-0.996,1.915-0.996,1.915s-0.517,1.096-3.312,1.143l-0.116,3.281
				L33.105,76.654z"/>
			<path fill="#BC490F" d="M36.479,55.238l-4.37,5.273h3.822h0.641c-0.031-0.093-0.054-0.147-0.054-0.147h0.842
				c0,0,0.023,0.054,0.046,0.147h0.463c0,0,0.069-1.644,2.64-2.362l0.456-0.502l2.177-2.409h-2.324H36.479z"/>
			<path fill="#D35916" d="M28.28,89.377h5.512h1.197l-1.884-2.254c0,0-2-0.054-4.756,0.116L28.28,89.377z"/>
			<path fill="#E0631E" d="M61.794,97.498H33.105c0.71,2.386,0.903,4.733,0.942,6.284h6.825l-1.197-1.598h22.119
				C61.794,102.185,61.794,97.498,61.794,97.498z"/>
			<polygon fill="#1D1D28" points="35.56,91.431 37.799,91.431 55.772,91.431 55.185,89.377 34.989,89.377 33.792,89.377 
				35.367,91.57 			"/>
			<path fill="#1D1D28" d="M34.016,105.621h48.546h7.913v-1.838h-4.061H40.872h-6.825C34.07,104.91,34.016,105.621,34.016,105.621z"
				/>
			<polygon fill="#F17121" points="35.367,91.57 37.799,94.951 37.799,91.431 35.56,91.431 			"/>
			<path fill="#64648B" d="M36.865,62.279c0.17-0.394-0.162-1.39-0.293-1.768h-0.641l-6.833,13.186
				c1.722-0.178,2.424-0.903,2.424-0.903S36.656,62.765,36.865,62.279z"/>
			<path fill="#E0631E" d="M37.359,60.364h-0.842c0,0,0.023,0.054,0.054,0.147h0.834C37.382,60.418,37.359,60.364,37.359,60.364z"/>
			<path fill="#1D1D28" d="M36.571,60.511c0.131,0.378,0.463,1.374,0.293,1.768c-0.208,0.486-5.343,10.515-5.343,10.515
				s-0.703,0.726-2.424,0.903l-0.301,0.587c2.795-0.046,3.312-1.143,3.312-1.143s0.401-0.772,0.996-1.915
				c1.56-3.019,4.432-8.601,4.524-9.095c0.093-0.525-0.124-1.305-0.224-1.621L36.571,60.511L36.571,60.511z"/>
			<polygon fill="#424268" points="36.996,71.149 38.926,71.149 38.926,69.55 37.884,69.55 37.83,69.528 			"/>
			<rect x="37.799" y="91.43" fill="#E0631E" width="17.973" height="3.521"/>
			<polygon fill="#64648B" points="38.926,67.405 37.83,69.528 37.884,69.55 38.926,69.55 			"/>
			<path fill="#64648B" d="M37.035,73.242c0.394,0.587,1.058,0.896,1.753,0.818l0.139-0.015v-2.895h-1.93l-0.085,0.162
				C36.587,71.937,36.633,72.662,37.035,73.242z"/>
			<path fill="#1D1D28" d="M38.587,74.848c0.093,0,0.185-0.008,0.278-0.015l0.062-0.008v-0.78l-0.139,0.015
				c-0.695,0.077-1.359-0.232-1.753-0.818c-0.401-0.579-0.448-1.305-0.124-1.93l0.085-0.162l0.834-1.621l1.096-2.123v-1.683
				l-2.694,5.234c-0.456,0.88-0.394,1.899,0.162,2.725C36.903,74.423,37.706,74.848,38.587,74.848z"/>
			<path fill="#3A3A4C" d="M39.853,75.257h-0.926v2.085h0.926C39.853,77.341,39.86,76.623,39.853,75.257z"/>
			<path fill="#3A3A4C" d="M38.926,65.722l0.371-0.726c-0.216,0.093-0.371,0.309-0.371,0.556V65.722z"/>
			<path fill="#3A3A4C" d="M39.297,64.996l-0.371,0.726v1.683l1.266-2.455h-0.664C39.443,64.95,39.366,64.965,39.297,64.996z"/>
			<path fill="#1D1D28" d="M39.853,77.341h-0.926v-2.085h-1.791c-0.147,0-0.27,0.124-0.27,0.278v3.613
				c0,0.154,0.124,0.278,0.27,0.278h2.718c0.147,0,0.27-0.124,0.27-0.278v-3.613c0-0.154-0.124-0.278-0.27-0.278
				C39.86,76.623,39.853,77.341,39.853,77.341z"/>
			<path fill="#3A3A4C" d="M39.961,74.724l-1.035,0.1v0.432h0.926C39.853,75.048,39.891,74.871,39.961,74.724z"/>
			<path fill="#F17121" d="M70.487,36.601c6.67-1.297,12.353-1.59,16.414-1.544c0.046,0.355,1.32,10.299,2.084,22.59H65.492
				c-1.351-1.328-3.744-1.938-5.373-2.2V44.206h-0.093v11.226c-0.95-0.154-1.614-0.193-1.614-0.193h-15.27h-2.324
				C46.855,47.849,56.853,39.256,70.487,36.601z M81.389,51.94c1.181,0.926,2.895-0.031,2.733-1.521l-0.409-3.629
				c-0.255-2.262-2.216-3.945-4.486-3.86l-4.81,0.193c-1.397,0.062-1.969,1.822-0.865,2.687L81.389,51.94z"/>
			<path fill="#3A3A4C" d="M40.192,64.95l-1.266,2.455v2.146v1.598v2.895l2.586-0.262v-2.841v-1.39v-2.184v-1.791
				c0-0.147-0.054-0.286-0.147-0.394c-0.108-0.139-0.278-0.232-0.471-0.232L40.192,64.95L40.192,64.95z"/>
			<path fill="#BC490F" d="M43.142,55.238l-2.177,2.409h17.657h1.405v-2.216c-0.95-0.154-1.614-0.193-1.614-0.193H43.142z"/>
			<path fill="#3A3A4C" d="M38.926,74.045v0.78l1.035-0.1c0.363-0.787,1.552-0.679,1.552-0.679v-0.262L38.926,74.045z"/>
			<polygon fill="#64648B" points="41.513,67.367 41.513,69.55 41.652,69.55 52.684,69.55 52.684,67.367 41.652,67.367 			"/>
			<polygon fill="#424268" points="41.513,70.94 52.684,70.94 52.684,69.55 41.652,69.55 41.513,69.55 			"/>
			<path fill="#1D1D28" d="M50.746,83.518v2.887c0,0.726,0.587,1.32,1.312,1.32c0.633,0,1.181-0.456,1.297-1.081l0.703-3.05
				c0.17-0.926-0.656-1.729-1.575-1.521l-0.71,0.154C51.171,82.36,50.746,82.899,50.746,83.518z"/>
			<path fill="#64648B" d="M50.978,72.825c0.973-0.093,1.706-0.911,1.706-1.884H41.513v2.841L50.978,72.825z"/>
			<path fill="#424268" d="M40.191,64.953h0.703c0.193,0,0.363,0.093,0.471,0.232c0.093,0.108,0.147,0.247,0.147,0.394v1.791h11.171
				v-3.814c0-0.224-0.039-0.44-0.116-0.641c-0.255-0.726-0.957-1.251-1.783-1.251H43.04c-0.71,0-1.359,0.394-1.683,1.027
				l-0.093,0.178l-0.594,1.158L40.191,64.953z"/>
			<path fill="#1D1D28" d="M52.684,70.94c0,0.973-0.733,1.791-1.706,1.884l-9.465,0.957v0.262c0,0-1.189-0.108-1.552,0.679
				l11.094-1.127c1.367-0.139,2.401-1.282,2.401-2.656v-7.388c0-1.467-1.197-2.663-2.671-2.663h-7.744
				c-1.004,0-1.907,0.556-2.37,1.444l-1.374,2.663c0.069-0.031,0.147-0.046,0.232-0.046h0.664l0.479-0.926l0.594-1.158l0.093-0.178
				c0.324-0.633,0.973-1.027,1.683-1.027h7.744c0.826,0,1.529,0.525,1.783,1.251c0.077,0.201,0.116,0.417,0.116,0.641v0.479v1.15
				v2.185v2.185v1.389L52.684,70.94L52.684,70.94z"/>
			<path fill="#F17121" d="M34.989,89.377l-1.884-2.254V76.677c0-0.015,0-0.023,0-0.023v-5.427c1.56-3.019,4.432-8.601,4.524-9.095
				c1.382-2.957,3.714-3.096,3.714-3.096s10.299,0.108,13.063,0c0.27-0.008,0.533-0.031,0.78-0.069v0.008v30.403L34.989,89.377
				L34.989,89.377z M53.356,86.644l0.703-3.05c0.17-0.926-0.656-1.729-1.575-1.521l-0.71,0.154
				c-0.602,0.131-1.027,0.672-1.027,1.289v2.887c0,0.726,0.587,1.32,1.312,1.32C52.692,87.725,53.24,87.27,53.356,86.644z
				 M38.926,74.824v0.432h-1.791c-0.147,0-0.27,0.124-0.27,0.278v3.613c0,0.154,0.124,0.278,0.27,0.278h2.718
				c0.147,0,0.27-0.124,0.27-0.278v-3.613c0-0.154-0.124-0.278-0.27-0.278c0-0.208,0.039-0.386,0.108-0.533l11.094-1.127
				c1.367-0.139,2.401-1.282,2.401-2.656v-7.388c0-1.467-1.197-2.663-2.671-2.663h-7.744c-1.004,0-1.907,0.556-2.37,1.444
				l-1.374,2.663c-0.216,0.093-0.371,0.309-0.371,0.556v0.17l-2.694,5.234c-0.456,0.88-0.394,1.899,0.162,2.725
				c0.51,0.741,1.313,1.166,2.193,1.166c0.093,0,0.185-0.008,0.278-0.015L38.926,74.824z"/>
			<path fill="#D35916" d="M40.509,58.147c-2.571,0.718-2.64,2.362-2.64,2.362h-0.463c0.1,0.317,0.317,1.096,0.224,1.621
				c1.382-2.957,3.714-3.096,3.714-3.096s10.299,0.108,13.063,0c0.27-0.008,0.533-0.031,0.78-0.069
				c2.247-0.27,3.436-1.32,3.436-1.32H40.964L40.509,58.147z"/>
			<polygon fill="#E0631E" points="55.772,91.431 55.772,94.951 61.794,94.951 61.794,92.087 60.181,92.087 57.888,91.431 			"/>
			<polygon fill="#1D1D28" points="65.407,92.087 70.92,92.087 86.901,92.087 90.476,92.087 93.178,89.377 88.808,89.377 
				55.185,89.377 55.772,91.431 57.888,91.431 60.181,92.087 61.794,92.087 			"/>
			<rect x="60.026" y="57.646" fill="#1D1D28" width="0.093" height="1.374"/>
			<path fill="#1D1D28" d="M60.026,55.431v2.216h0.093v-2.2C60.088,55.438,60.057,55.431,60.026,55.431z"/>
			<path fill="#1D1D28" d="M60.026,44.205v11.226c0.031,0,0.062,0.008,0.093,0.015V44.205H60.026z"/>
			<path fill="#BC490F" d="M60.119,55.446v2.2h5.373C64.141,56.319,61.748,55.709,60.119,55.446z"/>
			<path fill="#1D1D28" d="M61.068,59.839c0.185-0.378-0.093-0.818-0.51-0.818c-0.139,0-0.293,0-0.44,0h-0.093
				c-0.116,0-0.232,0-0.34,0c-0.417,0-0.695,0.44-0.51,0.818l0.44,0.888c0.208,0.425,0.811,0.425,1.011,0L61.068,59.839z"/>
			<rect x="61.794" y="97.498" fill="#E0631E" width="25.107" height="4.686"/>
			<polygon fill="#F17121" points="61.794,94.951 61.794,97.498 86.901,97.498 86.901,94.951 70.92,94.951 65.407,94.951 			"/>
			<rect x="61.794" y="92.086" fill="#E0631E" width="3.613" height="2.864"/>
			<path fill="#424268" d="M66.928,93.06c-0.239,0-0.432,0.193-0.432,0.432c0,0.239,0.193,0.432,0.432,0.432h2.571
				c0.239,0,0.432-0.193,0.432-0.432c0-0.239-0.193-0.432-0.432-0.432H66.928z"/>
			<path fill="#1D1D28" d="M69.931,93.492c0-0.239-0.193-0.432-0.432-0.432h-2.571c-0.239,0-0.432,0.193-0.432,0.432
				c0,0.239,0.193,0.432,0.432,0.432h2.571C69.738,93.925,69.931,93.731,69.931,93.492z M65.407,94.951v-2.864h5.512v2.864H65.407z"
				/>
			<rect x="70.92" y="92.086" fill="#E0631E" width="15.981" height="2.864"/>
			<path fill="#F17121" d="M70.92,81.263v5.304c0,0.826,0.679,1.505,1.513,1.505h12.955c0.834,0,1.513-0.679,1.513-1.505v-5.304
				c0-0.834-0.679-1.513-1.513-1.513H72.433C71.599,79.75,70.92,80.429,70.92,81.263z"/>
			<path fill="#F17121" d="M74.911,59.893h7.983c0.98,0,1.783,0.803,1.783,1.783v13.21c0,0.981-0.803,1.783-1.783,1.783h-7.983
				c-0.98,0-1.783-0.803-1.783-1.783v-13.21C73.128,60.696,73.931,59.893,74.911,59.893z M78.756,71.196h1.822
				c0.27,0,0.494-0.216,0.494-0.494v-4.038c0-0.278-0.224-0.494-0.494-0.494h-1.822c-0.278,0-0.494,0.216-0.494,0.494v4.038
				C78.262,70.979,78.478,71.196,78.756,71.196z"/>
			<path fill="#1D1D28" d="M74.417,43.123c-1.397,0.062-1.969,1.822-0.865,2.687l7.836,6.13c1.181,0.926,2.895-0.031,2.733-1.521
				l-0.409-3.629c-0.255-2.262-2.216-3.945-4.486-3.86L74.417,43.123z"/>
			<path fill="#E0631E" d="M78.262,66.664v4.038c0,0.278,0.216,0.494,0.494,0.494h1.822c0.27,0,0.494-0.216,0.494-0.494v-4.038
				c0-0.278-0.224-0.494-0.494-0.494h-1.822C78.478,66.17,78.262,66.386,78.262,66.664z"/>
			<path fill="#E0631E" d="M73.128,61.677v13.21c0,0.981,0.803,1.783,1.783,1.783h7.983c0.98,0,1.783-0.803,1.783-1.783v-13.21
				c0-0.98-0.803-1.783-1.783-1.783h-7.983C73.931,59.893,73.128,60.696,73.128,61.677z M85.388,88.073
				c0.834,0,1.513-0.679,1.513-1.505v-5.304c0-0.834-0.679-1.513-1.513-1.513H72.433c-0.834,0-1.513,0.679-1.513,1.513v5.304
				c0,0.826,0.679,1.505,1.513,1.505H85.388z M88.808,89.377H55.185V58.974v-0.007c2.247-0.27,3.436-1.32,3.436-1.32h1.405v1.374
				c-0.116,0-0.232,0-0.34,0c-0.417,0-0.695,0.44-0.51,0.818l0.44,0.888c0.208,0.425,0.811,0.425,1.011,0l0.44-0.888
				c0.185-0.378-0.093-0.818-0.51-0.818c-0.139,0-0.293,0-0.44,0v-1.374h5.373h23.493C89.626,68.007,89.92,80.028,88.808,89.377z"/>
			<polygon fill="#E0631E" points="86.901,102.186 86.415,103.784 90.476,103.784 90.476,103.328 90.476,100.781 90.476,97.498 
				86.901,97.498 			"/>
			<rect x="86.901" y="94.952" fill="#E0631E" width="3.575" height="2.548"/>
			<rect x="86.901" y="92.086" fill="#E0631E" width="3.575" height="2.864"/>
			<path fill="#F17121" d="M88.808,89.377h4.37v-2.339V63.722c0-0.394,0.178-0.741,0.448-0.973v-5.103h-0.317h-4.323
				C89.626,68.007,89.92,80.028,88.808,89.377z"/>
			<path fill="#E0631E" d="M86.901,35.057c0.046,0.355,1.32,10.299,2.084,22.59h4.323h0.317v-22.15
				C93.625,35.497,91.147,35.095,86.901,35.057z"/>
			<path fill="#3A3A4C" d="M93.178,87.037v2.339l-2.702,2.71v2.864v2.548v3.281c3.768,0,3.219-1.768,3.219-1.768v-10.94
				C93.378,87.841,93.178,87.463,93.178,87.037z"/>
			<path fill="#1D1D28" d="M94.482,88.343c-0.293,0-0.571-0.1-0.787-0.27v10.94c0,0,0.548,1.768-3.219,1.768v2.548
				c5.752,0,5.675-3.119,5.675-3.119v-3.853v-8.014L94.482,88.343L94.482,88.343z"/>
			<path fill="#424268" d="M94.482,88.343c0.71,0,1.297-0.587,1.297-1.305V66.17v-2.447c0-0.432-0.216-0.818-0.54-1.05
				c-0.216-0.162-0.479-0.255-0.757-0.255c-0.324,0-0.625,0.124-0.857,0.332c-0.27,0.232-0.448,0.579-0.448,0.973v23.316
				c0,0.425,0.201,0.803,0.517,1.035C93.911,88.243,94.189,88.343,94.482,88.343z"/>
			<path fill="#616183" d="M96.15,31.358l-2.525,4.138v22.15v5.103c0.232-0.208,0.533-0.332,0.857-0.332
				c0.278,0,0.54,0.093,0.757,0.255v-3.791V38.422V36.19l1.019-1.737c0.502-0.865,0.772-1.845,0.772-2.849
				c0-0.293-0.239-0.479-0.479-0.479C96.397,31.127,96.243,31.204,96.15,31.358z"/>
			<path fill="#E0631E" d="M95.239,58.882v3.791c0.324,0.232,0.54,0.618,0.54,1.05v2.447h0.471v-7.288h-0.926L95.239,58.882
				L95.239,58.882z"/>
			<polygon fill="#E0631E" points="95.239,38.423 95.239,58.882 95.324,58.882 96.25,58.882 96.25,40.561 			"/>
			<path fill="#1D1D28" d="M95.779,87.037c0,0.718-0.587,1.305-1.297,1.305h1.668h2.756V58.881H96.25v7.288h-0.471V87.037z"/>
			<path fill="#E0631E" d="M67.326,56.546h20.128c0.267,0,0.484-0.218,0.484-0.484l0,0c0-0.266-0.218-0.484-0.484-0.484H67.326
				c-0.266,0-0.484,0.218-0.484,0.484l0,0C66.841,56.328,67.059,56.546,67.326,56.546z"/>
			<g>
				<rect x="61.698" y="92.087" fill="#AC6600" width="0.193" height="10.098"/>
			</g>
			<g>
				<rect x="86.804" y="92.087" fill="#AC6600" width="0.193" height="10.098"/>
			</g>
			<g>
				<polygon fill="#AC6600" points="37.703,95.048 90.475,95.048 90.475,94.854 37.896,94.854 37.896,91.431 37.703,91.431 				"/>
			</g>
			<g>
				<rect x="55.089" y="58.973" fill="#AC6600" width="0.193" height="30.403"/>
			</g>
			<g>
				
					<rect x="22.093" y="80.673" transform="matrix(-0.0345 0.9994 -0.9994 -0.0345 110.2814 54.9986)" fill="#AC6600" width="12.963" height="0.193"/>
			</g>
			<g>
				
					<rect x="3.277" y="82.366" transform="matrix(-0.9625 0.2712 -0.2712 -0.9625 33.1247 160.3472)" fill="#AC6600" width="4.412" height="0.193"/>
			</g>
			<g>
				<path fill="#AC6600" d="M8.904,81.618c0.121-0.033,12.255-3.364,19.784-3.957l-0.015-0.193
					c-7.547,0.594-19.698,3.93-19.821,3.964L8.904,81.618z"/>
			</g>
			<g>
				<rect x="58.621" y="57.549" fill="#AC6600" width="1.405" height="0.193"/>
			</g>
			<g>
				<rect x="60.119" y="57.549" fill="#AC6600" width="28.866" height="0.193"/>
			</g>
			<g>
				<path fill="#AC6600" d="M88.903,89.39c0.024-0.185,2.361-18.859-1.907-54.345l-0.191,0.023
					c4.264,35.458,1.931,54.112,1.907,54.296L88.903,89.39z"/>
			</g>
			<g>
				<path fill="#AC6600" d="M73.039,74.886v-13.21c0-1.037,0.844-1.88,1.88-1.88h7.983c1.037,0,1.88,0.843,1.88,1.88v13.21
					c0,1.037-0.843,1.88-1.88,1.88h-7.983C73.882,76.766,73.039,75.923,73.039,74.886z M74.919,59.99
					c-0.93,0-1.687,0.757-1.687,1.687v13.21c0,0.93,0.757,1.687,1.687,1.687h7.983c0.93,0,1.687-0.757,1.687-1.687v-13.21
					c0-0.93-0.757-1.687-1.687-1.687H74.919z"/>
			</g>
			<g>
				<path fill="#AC6600" d="M70.823,86.677v-5.444c0-0.822,0.669-1.491,1.491-1.491h13.288c0.823,0,1.491,0.669,1.491,1.491v5.444
					c0,0.823-0.669,1.491-1.491,1.491H72.314C71.492,88.169,70.823,87.501,70.823,86.677z M72.314,79.936
					c-0.716,0-1.298,0.582-1.298,1.298v5.444c0,0.716,0.582,1.298,1.298,1.298h13.288c0.716,0,1.298-0.582,1.298-1.298v-5.444
					c0-0.715-0.582-1.298-1.298-1.298H72.314z"/>
			</g>
			<path fill="#F17121" d="M57.403,85.869L57.403,85.869c0.458,0,0.833-0.375,0.833-0.833V62.494c0-0.458-0.375-0.833-0.833-0.833
				l0,0c-0.458,0-0.833,0.375-0.833,0.833v22.542C56.571,85.494,56.945,85.869,57.403,85.869z"/>
			<path fill="#F17121" d="M37.825,56.901h10.901c0.231,0,0.419-0.189,0.419-0.42l0,0c0-0.231-0.189-0.419-0.419-0.419H37.825
				c-0.231,0-0.419,0.189-0.419,0.419l0,0C37.405,56.712,37.594,56.901,37.825,56.901z"/>
		</g>
		<g display="inline">
			<path fill="#1D1D28" d="M204.074,107.409h87.542v-8.863H272.23c-1.065,1.853-3.065,3.096-5.358,3.096h-8.068h-5.134H230.2h-5.142
				h-8.446c-1.714,0-3.258-0.695-4.385-1.814c-0.378-0.378-0.71-0.811-0.981-1.282h-7.172V107.409z"/>
			<path fill="#3A3A4C" d="M102.195,95.685v-4.169h-2.038v4.841H96.15v3.853c0,0,0.077,3.119-5.675,3.119v0.456v1.838h-7.913v5.273
				h30.604v-3.297v-8.863v-3.05L102.195,95.685L102.195,95.685z"/>
			<path fill="#8C8CA2" d="M102.195,10.444H299.22c0,0-16.9-7.481-102.373-7.481C111.382,2.963,102.195,10.444,102.195,10.444z"/>
			<rect x="106.681" y="35.967" fill="#E5E5E7" width="188.054" height="4.339"/>
			<rect x="106.681" y="30.871" fill="#D3D3D5" width="188.054" height="5.095"/>
			<rect x="106.681" y="25.784" fill="#E5E5E7" width="188.054" height="5.088"/>
			<rect x="106.681" y="20.688" fill="#D3D3D5" width="188.054" height="5.095"/>
			<rect x="106.681" y="16.103" fill="#E5E5E7" width="188.054" height="4.586"/>
			<rect x="121.874" y="92.921" fill="#5B5B77" width="57.741" height="2.517"/>
			<rect x="126.213" y="97.476" fill="#BDBDCB" width="7.937" height="2.517"/>
			<path fill="#8E8E9A" d="M125.704,101.83h8.446v-1.838h-7.937v-2.517h7.937v-1.791h-14.646c0.008,1.112,0.309,2.154,0.834,3.05
				c0.27,0.471,0.602,0.903,0.981,1.282C122.446,101.136,123.99,101.83,125.704,101.83z"/>
			<rect x="134.15" y="99.993" fill="#373747" width="5.142" height="1.837"/>
			<rect x="134.15" y="97.476" fill="#BDBDCB" width="5.142" height="2.517"/>
			<rect x="134.15" y="95.685" fill="#373747" width="5.142" height="1.791"/>
			<rect x="139.292" y="99.993" fill="#8E8E9A" width="23.47" height="1.837"/>
			<rect x="139.292" y="97.476" fill="#BDBDCB" width="23.47" height="2.517"/>
			<rect x="139.292" y="95.685" fill="#8E8E9A" width="23.47" height="1.791"/>
			<rect x="162.762" y="99.993" fill="#373747" width="5.134" height="1.837"/>
			<rect x="162.762" y="97.476" fill="#BDBDCB" width="5.134" height="2.517"/>
			<rect x="162.762" y="95.685" fill="#373747" width="5.134" height="1.791"/>
			<rect x="167.896" y="97.476" fill="#BDBDCB" width="7.558" height="2.517"/>
			<path fill="#8E8E9A" d="M167.896,101.83h8.068c2.293,0,4.293-1.243,5.358-3.096c0.525-0.896,0.826-1.938,0.834-3.05h-14.26v1.791
				h7.558v2.517h-7.558V101.83z"/>
			<path fill="#1D1D28" d="M113.166,107.598h87.542v-8.863h-19.386c-1.065,1.853-3.065,3.096-5.358,3.096h-8.068h-5.134h-23.47
				h-5.142h-8.446c-1.714,0-3.258-0.695-4.385-1.814c-0.378-0.378-0.71-0.811-0.981-1.282h-7.172
				C113.166,98.735,113.166,107.598,113.166,107.598z"/>
			<path fill="#5B5B77" d="M208.143,98.735l-0.834-3.05h-25.153c-0.008,1.112-0.309,2.154-0.834,3.05h19.386H208.143z"/>
			<path fill="#8E8E9A" d="M214.103,97.8h7.852v-2.038h-12.191v-0.077h-2.455l0.834,3.05l0.98,1.282
				c1.119,1.119,2.664,1.814,4.377,1.814h8.454v-1.513h-7.852V97.8H214.103z"/>
			<rect x="214.103" y="97.799" fill="#BDBDCB" width="7.852" height="2.517"/>
			<rect x="221.954" y="100.316" fill="#373747" width="5.134" height="1.513"/>
			<rect x="221.954" y="97.799" fill="#BDBDCB" width="5.134" height="2.517"/>
			<rect x="221.954" y="95.762" fill="#373747" width="5.134" height="2.038"/>
			<rect x="221.954" y="95.685" fill="#5B5B77" width="5.134" height="0.077"/>
			<rect x="227.089" y="100.316" fill="#8E8E9A" width="23.47" height="1.513"/>
			<rect x="227.089" y="97.799" fill="#BDBDCB" width="23.47" height="2.517"/>
			<rect x="227.089" y="95.762" fill="#8E8E9A" width="23.47" height="2.038"/>
			<rect x="106.681" y="45.393" fill="#E5E5E7" width="188.054" height="5.095"/>
			<rect x="250.559" y="100.316" fill="#373747" width="5.134" height="1.513"/>
			<rect x="250.559" y="97.799" fill="#BDBDCB" width="5.134" height="2.517"/>
			<rect x="250.559" y="95.762" fill="#373747" width="5.134" height="2.038"/>
			<rect x="250.559" y="95.685" fill="#5B5B77" width="5.134" height="0.077"/>
			<polygon fill="#5B5B77" points="209.764,95.639 221.954,95.639 227.089,95.639 250.559,95.639 255.693,95.639 267.505,95.639 
				267.505,93.253 209.764,93.253 			"/>
			<rect x="106.681" y="85.184" fill="#E5E5E7" width="188.054" height="4.841"/>
			<rect x="106.681" y="80.097" fill="#D3D3D5" width="188.054" height="5.088"/>
			<rect x="106.681" y="75.38" fill="#E5E5E7" width="188.054" height="4.717"/>
			<rect x="106.681" y="70.285" fill="#D3D3D5" width="188.054" height="5.095"/>
			<rect x="106.681" y="65.196" fill="#E5E5E7" width="188.054" height="5.088"/>
			<rect x="106.681" y="60.101" fill="#D3D3D5" width="188.054" height="5.095"/>
			<rect x="106.681" y="55.576" fill="#E5E5E7" width="188.054" height="4.524"/>
			<rect x="106.681" y="50.49" fill="#D3D3D5" width="188.054" height="5.088"/>
			<rect x="255.693" y="97.799" fill="#BDBDCB" width="7.651" height="2.517"/>
			<path fill="#8E8E9A" d="M263.344,101.83h0.425h0.046c3.382-0.023,6.122-2.764,6.146-6.145h-2.455v0.077h-11.812V97.8h7.651v2.517
				h-7.651v1.513L263.344,101.83L263.344,101.83z"/>
			<path fill="#3A3A4C" d="M263.344,101.83c0,1.081,0.44,2.069,1.15,2.779s1.691,1.15,2.779,1.15h20.722
				c2,0,3.621-1.621,3.621-3.629v-0.301h-27.801h-0.046L263.344,101.83L263.344,101.83z"/>
			<rect x="106.681" y="40.305" fill="#D3D3D5" width="188.054" height="5.088"/>
			<path fill="#5B5B77" d="M269.96,95.685c-0.023,3.382-2.764,6.122-6.146,6.145h27.801h0.834l4.408,3.297v-5.42l-1.421-0.973v-3.05
				H269.96V95.685z"/>
			<path fill="#B7B7C8" d="M209.764,95.639h-2.455c0,0.015,0,0.031,0,0.046h-25.153c0-0.015,0-0.031,0-0.046h-14.26h-5.134h-23.47
				h-5.142h-14.646c0,0.015,0,0.031,0,0.046h-6.339h-10.971v-4.169V10.444H299.22v85.241h-3.783H269.96c0-0.015,0-0.031,0-0.046
				h-2.455v-2.386h-57.741V95.639z M294.735,85.185v-5.088V75.38v-5.096v-5.088v-5.095v-4.524v-5.088v-5.095v-5.088v-4.339v-5.095
				v-5.088v-5.095v-4.586H106.681v4.586v5.095v5.088v5.095v4.339v5.088v5.095v5.088v4.524v5.095v5.088v5.096v4.717v5.088v4.841
				h188.054V85.185z M179.616,92.921h-57.741v2.517h57.741V92.921z"/>
			<polygon fill="#E44C23" points="298.356,106.246 298.356,100.726 296.858,99.707 296.858,105.127 			"/>
			<g>
				<rect x="125.97" y="90.89" fill="#E44C23" width="7.235" height="1.145"/>
			</g>
			<g>
				<rect x="136.093" y="90.89" fill="#E44C23" width="7.235" height="1.145"/>
			</g>
			<g>
				<rect x="209.731" y="91.461" fill="#E44C23" width="7.235" height="1.145"/>
			</g>
			<g>
				<rect x="219.855" y="91.461" fill="#E44C23" width="7.235" height="1.145"/>
			</g>
		</g>
	</g>
</g>
<g id="Layer_2">
	<g>
		<g>
			<path fill="#C7EFFF" d="M134.715,25.108c-8.497,2.193-37.188,14.168-55.447,27.921h12.567l50.803-26.854L134.715,25.108z"/>
			<g opacity="0.5">
				<path fill="#FFFFFF" d="M92.171,44.495l-5.001,8.534h4.666l8.297-4.386l7.215-12.314C102.339,38.793,97.15,41.548,92.171,44.495
					z"/>
				<path fill="#FFFFFF" d="M114.798,40.891l7.831-4.14l5.567-9.501c-2.088,0.774-4.463,1.711-7.04,2.79L114.798,40.891z"/>
				<path fill="#FFFFFF" d="M118.242,31.284c-2.345,1.019-4.818,2.139-7.365,3.343L103.8,46.705l7.831-4.139L118.242,31.284z"/>
			</g>
			<path fill="#333333" d="M12.954,88.458c0.593,2.687-2.292,8.615,0,15.373l9.248-4.229l-2.885-9.287L12.954,88.458z"/>
			<path fill="#333333" d="M72.392,49.798c4.308-0.978,11.777-1.531,17.231,0.603c5.454,2.134-11.5,5.612-11.5,5.612L72.392,49.798z
				"/>
			<path fill="#333333" d="M242.052,1.277c-0.589,0-1.067,0.478-1.067,1.067c0,0.242,0.083,0.462,0.219,0.641l-8.66,17.419
				c-0.907,0.437-2.355,1.362-3.059,3.044l5.217,0.593c0,0-1.173-1.642-1.391-3.046l8.741-17.583c0,0,0.001,0,0.001,0
				c0.589,0,1.067-0.478,1.067-1.067C243.119,1.755,242.641,1.277,242.052,1.277z"/>
			<g>
				<path fill="#C7EFFF" d="M259.717,29.732c7.884,5.572,21.263,21.262,22.962,25.214c1.699,3.952-18.515-1.798-18.693-1.62
					c-0.178,0.178-10.137-19.8-10.137-19.8L259.717,29.732z"/>
				<g opacity="0.5">
					<path fill="#FFFFFF" d="M259.717,29.732l-5.869,3.794c0,0,2.26,4.534,4.647,9.263l5.568-9.503
						C262.515,31.887,261.038,30.665,259.717,29.732z"/>
					<path fill="#FFFFFF" d="M270.474,39.62l-7.257,12.384c0.455,0.852,0.739,1.35,0.768,1.321c0.046-0.046,1.422,0.302,3.409,0.776
						l6.371-10.873C272.704,42.027,271.598,40.814,270.474,39.62z"/>
					<path fill="#FFFFFF" d="M269.12,38.2c-1.143-1.181-2.291-2.322-3.417-3.394l-6.036,10.3c0.913,1.802,1.793,3.527,2.518,4.928
						L269.12,38.2z"/>
				</g>
			</g>
			<path fill="#333333" d="M37.812,108.495c5.309,1.492,13.713-7.212,13.713-7.212s31.715,5.869,31.893,5.869s-2.395-2.537,0.178,0
				c2.573,2.537,3.537,3.458,7.015,2.766c3.478-0.692,88.446-4.206,88.446-4.206l45.527,4.206
				c5.028-0.173,15.966-4.206,15.966-4.206l29.087-1.801c2.806,1.067,7.272,1.265,7.272,1.265l4.861-4.268l-12.641-27.269h-32.215
				l-17.705,28.594H94.326l-12.5-24.484l-32.711-4.11c0,0-14.385,24.186-13.911,24.186C35.678,97.825,37.812,108.495,37.812,108.495
				z"/>
		</g>
		<g>
			<g>
				<circle fill="#333333" cx="64.593" cy="102.232" r="22.824"/>
				<circle fill="#4D4D4D" cx="64.593" cy="102.232" r="21.667"/>
				<circle fill="#333333" cx="64.593" cy="102.232" r="17.965"/>
				<circle fill="#B1B1B1" cx="64.593" cy="102.232" r="17.233"/>
				<circle fill="#333333" cx="64.593" cy="102.232" r="16.035"/>
				<circle fill="#808080" cx="64.593" cy="102.232" r="7.047"/>
				<path fill="#B1B1B1" d="M66.414,104.809l12.513,5.571c1.054-1.867,1.755-3.959,2.01-6.188l-13.396-2.848l9.165-10.178
					c-1.473-1.601-3.26-2.907-5.263-3.825l-6.849,11.862l-6.849-11.862c-2.003,0.918-3.79,2.224-5.263,3.825l9.165,10.178
					l-13.396,2.848c0.255,2.229,0.955,4.321,2.01,6.188l12.513-5.571l-1.432,13.625c1.052,0.211,2.139,0.323,3.253,0.323
					c1.114,0,2.202-0.112,3.253-0.323L66.414,104.809z"/>
			</g>
			<g>
				<circle fill="#333333" cx="251.164" cy="102.232" r="22.824"/>
				<circle fill="#4D4D4D" cx="251.164" cy="102.232" r="21.667"/>
				<circle fill="#333333" cx="251.164" cy="102.232" r="17.965"/>
				<circle fill="#B1B1B1" cx="251.164" cy="102.232" r="17.233"/>
				<circle fill="#333333" cx="251.164" cy="102.232" r="16.035"/>
				<circle fill="#808080" cx="251.164" cy="102.232" r="7.047"/>
				<path fill="#B1B1B1" d="M252.985,104.809l12.513,5.571c1.054-1.867,1.755-3.959,2.009-6.188l-13.396-2.848l9.165-10.178
					c-1.473-1.601-3.26-2.907-5.263-3.825l-6.849,11.862l-6.849-11.862c-2.003,0.918-3.79,2.224-5.263,3.825l9.165,10.178
					l-13.396,2.848c0.255,2.229,0.955,4.321,2.009,6.188l12.513-5.571l-1.432,13.625c1.052,0.211,2.139,0.323,3.253,0.323
					c1.114,0,2.202-0.112,3.253-0.323L252.985,104.809z"/>
			</g>
		</g>
		<path fill="#D03D45" d="M11.887,104.464c0.027,1.938,19.128,3.873,25.925,4.031C37.18,93.161,45.056,77.116,64.593,77.59
			c19.537,0.474,27.678,17.942,26.018,32.327c31.221-1.028,125.437-0.553,133.973,0c-0.79-13.259,6.56-32.269,27.822-32.338
			c21.262-0.069,25.925,19.533,24.502,27.595c8.378-0.711,9.801-4.33,10.354-9.99c0.553-5.66,1.423-13.855,0.316-16.674
			c-1.107-2.818-3.201-2.225-3.083-7.64c0.119-5.414,0.33-12.282-2.134-16.519c-3.952-6.797-19.602-12.567-25.846-20.471
			c6.481-2.371,9.564-6.718,6.876-7.43c-2.687-0.711-42.919-7.509-97.456-6.205c-23.791,1.936-31.221,4.861-31.221,4.861
			c1.788,0.474,3.359,1.719,3.359,1.719c-21.667,7.499-44.361,22.485-54.735,24.601c-3.922,0.8-9.347,0.089-10.947-1.63
			c-26.913,5.009-42.563,9.811-53.886,20.363c0,0-2.845,4.327-3.794,6.995c-0.948,2.668-2.976,7.253-2.549,11.204
			c0.119,1.097,6.446,5.226,6.136,10.196C18.21,99.979,11.848,101.658,11.887,104.464z"/>
		<path fill="#B82935" d="M285.019,74.685c-0.01,1.088,0.009,1.995,0.07,2.589c0.357,3.481-8.181,0.948-17.891-5.323
			c-9.71-6.272-25.147-6.414-40.085-2.617c-14.939,3.797-72.322-4.627-108.838,1.064C81.759,76.089,77.372,64.47,39.41,68.64
			c0,0-15.886,4.067-25.403,10.424c-0.985,2.656-2.181,6.172-1.843,9.296c0.119,1.097,6.446,5.226,6.136,10.196
			c-0.089,1.423-6.452,3.102-6.412,5.908c0.027,1.938,19.128,3.873,25.925,4.031C37.18,93.161,45.056,77.116,64.593,77.59
			c19.537,0.474,27.678,17.942,26.018,32.327c31.221-1.028,125.437-0.553,133.973,0c-0.79-13.259,6.56-32.269,27.822-32.338
			c21.262-0.069,25.925,19.533,24.503,27.595c8.378-0.711,9.801-4.33,10.354-9.99c0.553-5.66,1.423-13.855,0.316-16.674
			C286.849,76.653,285.691,76.277,285.019,74.685z"/>
		<path fill="#E75256" d="M274.854,55.786c-3.32-2.676-11.461-4.674-21.42-4.358c2.055-0.869,4.821-2.055,11.935-2.687
			c4.094-0.364,4.673-2.615,2.124-5.992c-4.27-2.742-8.415-5.625-10.976-8.868c0.126-0.046,0.248-0.094,0.371-0.141
			c-12.118-8.045-64.789-10.371-94.35-9.264c-29.561,1.107-60.308,19.839-70.267,25.293c-9.959,5.454-35.094,4.031-56.828,16.081
			c-0.393,0.036-1.978,4.943,8.139-1.222C53.699,58.463,86.71,55.661,98.12,49.25c0,0,120.22-13.156,139.348-13.867
			c19.128-0.711,28.613,9.169,26.399,11.461c-2.213,2.292-42.286,4.901-55.723,12.123C208.144,58.967,260.073,53.404,274.854,55.786
			z"/>
		<g>
			<path fill="#A11424" d="M11.887,104.464c0.027,1.938,19.128,3.873,25.925,4.031c-0.305-7.387,1.372-14.933,5.369-20.723
				c-5.07,2.592-6.865,3.292-4.5-1.912c2.608-5.74,12.963-12.616,22.447-12.379c-13.279-2.766-18.891,4.11-28.85,4.426
				c-9.959,0.316-11.777-5.081-11.777-5.081c0.628-3.66,9.238-9.604,15.832-13.67c-7.145,2.906-12.897,6.41-17.828,11.005
				c0,0-2.845,4.327-3.794,6.995c-0.948,2.668-2.976,7.253-2.549,11.204c0.119,1.097,6.446,5.226,6.136,10.196
				C18.21,99.979,11.848,101.658,11.887,104.464z"/>
			<path fill="#A11424" d="M250.625,77.634c-3.309,0.028-6.906,0.304-10.826,0.878c-6.521,0.956-10.848,4.034-13.457,5.755
				c-0.119-5.511-14.089-8.95-55.269-8.722c-41.18,0.228-81.886-0.246-80.147,11.373c-1.768-1.971-6.045-3.253-10.753-4.086
				c8.23,6.357,11.553,17.415,10.437,27.087c31.221-1.028,125.437-0.553,133.973,0C223.816,97.036,230.734,78.729,250.625,77.634z"
				/>
			<path fill="#A11424" d="M281.118,96.185c-1.646-8.85-8.902-16.592-23.81-18.239c17.082,2.707,20.907,19.829,19.601,27.23
				c8.378-0.711,9.801-4.33,10.354-9.99c0.52-5.315,1.318-12.866,0.497-16.1c-0.107,1.157-1.257,1.909-4.152,2.22
				c-4.98,0.534-6.343,1.897-6.343,1.897C280.584,87.47,281.118,96.185,281.118,96.185z"/>
		</g>
		<g>
			<path fill="#D03D45" d="M259.887,78.487c7.216,0.437,14.71,5.367,14.71,5.367c-7.054-11.204-21.042-13.62-32.841-10.493
				c-4.92,1.304-9.485,5.098-9.248,6.343c0.349,1.83,6.791-0.467,13.271-1.422c2.04-0.448,4.246-0.695,6.627-0.703
				C255.174,77.571,257.658,77.898,259.887,78.487z"/>
			<path fill="#D03D45" d="M155.622,96.6c5.395,0.652,52.463,3.557,55.368-0.593c2.905-4.15-25.905-10.018-48.669-8.714
				c-22.764,1.304-55.552,9.196-55.294,11.619v0.296C107.249,102.113,150.227,95.948,155.622,96.6z"/>
			<path fill="#D03D45" d="M64.593,77.59c6.627,0.161,11.938,2.281,16.005,5.568c2.716,0.15,7.104,1.191,10.329,3.759
				c0,0-11.312-15.222-30.806-12.666c-15.828,2.075-24.305,15.294-24.008,17.25c0.212,1.399,2.94,0.185,6.306-2.56
				C46.634,82.073,53.846,77.33,64.593,77.59z"/>
		</g>
		<path fill="#890014" d="M98.594,104.365c-0.165,0-0.319-0.086-0.405-0.227c-6.069-9.95-7.038-33.927-6.787-38.315
			c0.172-3.014,1.378-5.291,2.655-7.701c0.532-1.005,1.083-2.044,1.573-3.167c0.104-0.24,0.384-0.351,0.624-0.245
			c0.24,0.105,0.35,0.384,0.245,0.624c-0.504,1.157-1.063,2.212-1.604,3.232c-1.227,2.317-2.386,4.504-2.547,7.312
			c-0.246,4.302,0.68,27.632,6.51,37.534l113.307-2.659c6.996-2.599,29.525-36.011,30.53-40.418
			c0.801-3.511-1.947-10.451-3.953-15.518c-0.489-1.234-0.95-2.399-1.325-3.42c-0.257-0.7-3.235-2.574-30.773,2.673
			c-13.872,2.643-27.702,5.899-29.591,6.346c-4.085,8.465-5.274,21.33-5.544,25.138c0.465,13.194-5.795,25.295-5.858,25.416
			c-0.122,0.232-0.408,0.321-0.64,0.2c-0.232-0.122-0.322-0.408-0.2-0.64c0.062-0.119,6.213-12.022,5.749-24.967
			c0-0.017,0-0.034,0.001-0.05c0.272-3.85,1.49-17.082,5.738-25.715c0.063-0.127,0.178-0.219,0.315-0.252
			c0.148-0.035,14.973-3.572,29.849-6.407c30.47-5.806,31.468-3.091,31.844-2.069c0.371,1.01,0.83,2.17,1.317,3.398
			c2.167,5.471,4.862,12.28,3.996,16.078c-0.54,2.372-6.456,11.929-13.187,21.305c-3.9,5.431-13.462,18.236-18.023,19.823
			c-0.046,0.016-0.095,0.025-0.145,0.026l-113.66,2.668C98.602,104.365,98.598,104.365,98.594,104.365z"/>
		<path fill="#A11424" d="M151.353,69.805c0.145-2.606,13.242-4.735,17.152-2.529c1.541,0.869-5.296,2.49-7.272,4.229
			C159.257,73.243,151.235,71.939,151.353,69.805z"/>
		<g>
			<path fill="#C7EFFF" d="M17.301,76.958c0.198-2.371,1.818-5.019,9.485-8.694c7.22-3.461,13.951-5.177,26.834-7.232
				c-1.146,3.715-11.698,8.813-14.109,13.121c-2.411,4.308-10.157,7.785-19.879,7.035C17.222,79.487,17.185,78.357,17.301,76.958z"
				/>
			<path opacity="0.5" fill="#FFFFFF" d="M39.512,74.152c1.086-1.94,3.822-4.04,6.608-6.102c-12.428,0.896-22.87,2.539-28.225,6.854
				c-0.373,0.716-0.538,1.396-0.592,2.053c-0.117,1.399-0.079,2.529,2.332,4.229C29.355,81.938,37.101,78.46,39.512,74.152z"/>
			<path opacity="0.5" fill="#FFFFFF" d="M21.352,81.276c3.573,0.097,6.836-0.377,9.61-1.243
				c2.316-5.428,5.891-11.553,11.372-16.937c-5.08,1.109-9.039,2.325-12.904,3.971C25.968,71.073,23.008,75.806,21.352,81.276z"/>
		</g>
		<g>
			<path fill="#CA2200" d="M283.074,61.071c-0.432-5.573-5.493-6.165-13.516-5.888c-8.023,0.277-8.892,0.593-6.205,2.45
				c2.687,1.857,12.33,10.987,15.136,10.117C281.295,66.88,283.469,66.169,283.074,61.071z"/>
			<path fill="#CA2200" d="M278.489,67.75c2.437-0.755,4.395-1.395,4.609-4.89c-0.797,1.2-2.197,1.925-3.858,2.519
				c-2.766,0.988-9.999-5.454-12.449-7.667c-1.958-1.768-1.488-2.073,0.653-2.447c-6.042,0.269-6.521,0.689-4.091,2.368
				C266.041,59.49,275.684,68.619,278.489,67.75z"/>
			
				<ellipse transform="matrix(0.7707 -0.6371 0.6371 0.7707 24.9996 191.0356)" fill="#CA2200" cx="277.964" cy="60.778" rx="4.416" ry="5.349"/>
		</g>
		<path fill="#333333" d="M98.594,103.891c-2.952,1.53,56.553,0.059,72.322,0s41.022,1.34,43.274-0.842
			c2.253-2.182,5.098-3.723-0.83-4.316c-5.928-0.593-28.034-5.022-53.32-3.548C134.755,96.659,105.115,100.512,98.594,103.891z"/>
		<path fill="#A11424" d="M254.442,67.761c-3.432,0-6.224-2.792-6.224-6.224c0-3.432,2.792-6.224,6.224-6.224
			c3.432,0,6.224,2.792,6.224,6.224C260.666,64.969,257.874,67.761,254.442,67.761z M254.442,56.26
			c-2.909,0-5.276,2.367-5.276,5.276c0,2.909,2.367,5.276,5.276,5.276c2.909,0,5.276-2.367,5.276-5.276
			C259.717,58.627,257.351,56.26,254.442,56.26z"/>
		<path fill="#333333" d="M84.841,57.672c-0.42,2.695,39.718,0.514,55.605-0.553c15.887-1.067,69.358-4.387,75.404-5.572
			c6.047-1.186,29.235-7.622,29.759-12.805c0.296-2.934-3.646-5.246-5.306-6.699c-1.66-1.452-6.373-2.727-11.204-3.26
			c-4.831-0.534-44.48-3.253-68.498-3.083s-52.581,17.665-59.399,21.044C94.385,50.124,85.078,56.151,84.841,57.672z"/>
		<g>
			<path fill="#C7EFFF" d="M187.514,27.835c0.356,7.647-2.905,19.859-5.098,24.008c17.903-1.186,35.449-0.83,44.223-5.276
				c1.482-7.351,1.956-13.516,1.897-15.531C222.667,28.842,192.553,27.538,187.514,27.835z"/>
			<g opacity="0.5">
				<path fill="#FFFFFF" d="M216.367,29.161c-1.658-0.152-3.394-0.293-5.158-0.422l-13.058,22.284
					c1.901-0.093,3.766-0.191,5.583-0.302L216.367,29.161z"/>
				<path fill="#FFFFFF" d="M223.485,29.969c-1.497-0.217-3.206-0.42-5.049-0.608l-12.429,21.21c1.969-0.138,3.871-0.297,5.693-0.49
					L223.485,29.969z"/>
				<path fill="#FFFFFF" d="M184.835,51.692c3.624-0.215,7.218-0.379,10.712-0.544l13.23-22.578
					c-3.458-0.229-6.937-0.411-10.076-0.541L184.835,51.692z"/>
			</g>
			<path fill="#C7EFFF" d="M229.84,31.273c0.296,4.861-1.186,11.737-1.838,14.642c6.58-1.541,15.374-4.842,15.828-7.647
				C244.284,35.463,235.531,30.858,229.84,31.273z"/>
			<g opacity="0.5">
				<path fill="#FFFFFF" d="M234.347,31.762c-1.566-0.393-3.127-0.589-4.507-0.489c0.177,2.898-0.279,6.508-0.814,9.57
					L234.347,31.762z"/>
				<path fill="#FFFFFF" d="M228.279,45.849c2.087-0.5,4.375-1.169,6.543-1.94l5.632-9.611c-1.236-0.754-2.707-1.446-4.245-1.98
					L228.279,45.849z"/>
			</g>
			<path fill="#C7EFFF" d="M177.555,27.479c-0.059,6.639-5.572,21.4-8.655,25.431c-22.882,2.727-45.942,3.616-51.87,3.616
				c0.059-7.766,2.015-13.753,3.853-17.428C141.098,29.613,154.25,26.833,177.555,27.479z"/>
			<g opacity="0.5">
				<path fill="#FFFFFF" d="M165.087,27.513c-3.058,0.122-5.958,0.337-8.758,0.659l-16.017,27.335
					c2.785-0.184,5.718-0.397,8.747-0.641L165.087,27.513z"/>
				<path fill="#FFFFFF" d="M119.719,56.489c3.646-0.082,9.464-0.307,16.522-0.727l15.822-27.002
					c-6.479,1.038-12.583,2.715-19.137,5.19L119.719,56.489z"/>
				<path fill="#FFFFFF" d="M176.873,27.463c-2.93-0.073-5.701-0.09-8.345-0.046L152.618,54.57c2.899-0.251,5.866-0.529,8.863-0.838
					L176.873,27.463z"/>
			</g>
			<path fill="#C7EFFF" d="M116.615,40.995c-2.371,4.802-2.193,15.531-2.193,15.531C105.67,58.407,90.176,57,90.176,57
				C91.895,52.732,108.989,44.434,116.615,40.995z"/>
			<g opacity="0.5">
				<path fill="#FFFFFF" d="M107.438,45.377l-7.099,12.115c1.75,0.024,3.597,0.015,5.435-0.05l9.199-15.698
					C112.811,42.741,110.177,43.995,107.438,45.377z"/>
				<path fill="#FFFFFF" d="M90.176,57c0,0,0.115,0.01,0.313,0.027l1.116-1.904C90.902,55.805,90.403,56.438,90.176,57z"/>
				<path fill="#FFFFFF" d="M104.306,46.993c-2.906,1.533-5.767,3.15-8.158,4.697l-3.231,5.513c1.388,0.088,3.21,0.184,5.263,0.244
					L104.306,46.993z"/>
			</g>
		</g>
		<g>
			<path fill="#A11424" d="M106.716,54.689c-0.178,3.913-3.557,6.936-3.616,9.485c-0.059,2.549,5.098,1.897,6.639,0
				c1.541-1.897,1.423-5.869,0.711-7.884C109.739,54.274,106.716,54.689,106.716,54.689z"/>
			<path fill="#890014" d="M117.623,47.99c-7.472,0.133-12.745,1.897-11.915,7.173c0.83,5.276,11.441,3.675,11.915,2.253
				C118.097,55.993,120.833,47.933,117.623,47.99z"/>
		</g>
	</g>
</g>
</svg>
