<?xml version="1.0" encoding="utf-8"?>
<!-- Generator: Adobe Illustrator 17.0.0, SVG Export Plug-In . SVG Version: 6.00 Build 0)  -->
<!DOCTYPE svg PUBLIC "-//W3C//DTD SVG 1.1//EN" "http://www.w3.org/Graphics/SVG/1.1/DTD/svg11.dtd">
<svg version="1.1" xmlns="http://www.w3.org/2000/svg" xmlns:xlink="http://www.w3.org/1999/xlink" x="0px" y="0px" width="300px"
	 height="300px" viewBox="0 0 300 300" enable-background="new 0 0 300 300" xml:space="preserve">
<g id="Layer_1" display="none">
	<g display="inline">
		<path fill="#FFFFFF" d="M167.474,297.653c55.871,0,101.438-18.548,101.438-41.217c0-22.726-45.567-41.274-101.438-41.274
			S65.978,233.71,65.978,256.436C65.978,279.105,111.603,297.653,167.474,297.653L167.474,297.653z"/>
		<path fill="#FFFFFF" d="M167.474,219.112c51.807,0,93.768,16.258,93.768,36.351s-41.961,36.408-93.768,36.408
			s-93.768-16.315-93.768-36.408S115.667,219.112,167.474,219.112L167.474,219.112z"/>
		<path fill="#F27222" d="M167.474,219.112c51.807,0,93.768,16.315,93.768,36.408s-41.961,36.408-93.768,36.408
			s-93.768-16.315-93.768-36.408S115.667,219.112,167.474,219.112L167.474,219.112z M167.474,220.372
			c50.032,0,90.562,15.513,90.562,34.576c0,19.12-40.53,34.633-90.562,34.633s-90.619-15.513-90.619-34.633
			C76.855,235.885,117.442,220.372,167.474,220.372L167.474,220.372z"/>
		<path fill="#CCCCCC" d="M167.474,276.93c30.168,0,54.784-9.216,54.784-20.494c0-11.335-24.615-20.551-54.784-20.551
			c-30.226,0-54.841,9.217-54.841,20.551C112.633,267.714,137.248,276.93,167.474,276.93L167.474,276.93z"/>
		<path fill="#F27222" d="M268.855,257.295c0.057,0.515,0.057,0.973,0.057,1.431c0,22.784-45.395,41.274-101.438,41.274
			S65.978,281.51,65.978,258.726c0-0.458,0.057-0.916,0.115-1.431c1.832,22.154,46.483,39.843,101.381,39.843
			C222.315,297.138,267.023,279.449,268.855,257.295L268.855,257.295z"/>
		<path fill="#F27222" d="M76.34,147.728c0,0,0,2.519-3.32,2.92c-7.327,0.916-35.148-12.308-41.274,13.796
			c-10.705,45.567,112.773,106.075,111.113,74.19l-0.687-13.166c-0.687-12.651-77.911,0.859-93.023-42.705
			c-10.762-31.199,28.623-7.556,35.149,1.431c0,0,4.637-20.952,4.637-22.612C88.934,159.864,76.34,147.728,76.34,147.728
			L76.34,147.728z"/>
		<path fill="#D15D1C" d="M76.34,147.728c0,0,0,2.519-3.32,2.92c-1.603,0.229-4.236-0.286-7.385-0.859
			c4.122,7.213,7.671,16.315,5.667,23.928l0,0c5.839,3.549,10.991,7.671,12.995,10.476c0,0,4.637-20.952,4.637-22.612
			C88.934,159.864,76.34,147.728,76.34,147.728L76.34,147.728z M85.613,231.535c28.794,16.143,58.047,22.726,57.245,7.098
			l-0.687-13.166c-0.401-7.442-27.306-5.839-52.494-12.136c0.744,3.206,0.515,7.327-1.431,12.594
			C87.502,228.1,86.586,229.932,85.613,231.535L85.613,231.535z"/>
		<path fill="#F27222" d="M262.386,142.976c-4.637,52.551-28.336,128.172-93.252,128.172c-64.401,0-88.157-76.251-92.737-128.172
			c34.004,0.458,67.95,0.916,101.896,1.088L262.386,142.976z"/>
		<path fill="#D15D1C" d="M251.453,197.016c-12.995,39.041-38.068,74.133-82.319,74.133c-43.792,0-68.751-35.263-81.746-74.133
			c2.92,5.152,4.98,9.388,7.442,14.655c14.311,30.741,37.782,55.299,74.304,55.299c38.297,0,62.226-26.276,76.422-58.619
			C247.732,203.313,248.132,203.255,251.453,197.016L251.453,197.016z"/>
		<path fill="#D15D1C" d="M256.09,162.211c-4.465,28.565-18.948,69.553-43.964,89.245c6.755-16.658,14.254-40.988,0.057-70.24
			C230.558,178.869,246.816,170.282,256.09,162.211L256.09,162.211z"/>
		<path fill="#FFFFFF" d="M169.363,101.932c123.878,0,123.936,79.399,0,79.399S45.485,101.932,169.363,101.932L169.363,101.932z"/>
		<path fill="#CCCCCC" d="M169.363,177.896c47.743,0,86.726-16.544,86.726-36.752s-38.984-36.751-86.726-36.751
			c-47.8,0-86.726,16.544-86.726,36.751S121.563,177.896,169.363,177.896L169.363,177.896z"/>
		<path fill="#131416" d="M169.363,177.953c44.651,0,81.059-13.796,81.059-30.683s-36.408-30.683-81.059-30.683
			s-81.059,13.796-81.059,30.683S124.712,177.953,169.363,177.953L169.363,177.953z"/>
		<path fill="#434844" d="M165.871,120.25c-16.487,0-31.599,2.175-43.392,5.896c-38.755,12.021-29.252,21.925-2.805,16.086
			c30.397-6.755,52.551-12.708,79.685,5.496c10.419,7.041,19.692,15.8,32.401,9.903c5.038-2.29,9.331-6.297,9.331-10.819
			C241.091,132.5,203.653,120.25,165.871,120.25L165.871,120.25z"/>
		<path fill="#FFFFFF" d="M169.363,114.812c44.766,0,81.059,13.739,81.059,30.683c0,0.344-0.057,0.63-0.057,0.916
			c-1.202-16.544-37.038-29.825-81.002-29.825c-44.021,0-79.857,13.281-81.059,29.825c0-0.286,0-0.572,0-0.916
			C88.304,128.551,124.597,114.812,169.363,114.812L169.363,114.812z"/>
		<path fill="#D15D1C" d="M48.919,151.678c4.064-0.573,7.499-0.744,8.93,1.832c1.488,2.519-2.29,5.438-6.411,5.953
			c-4.064,0.573-7.671,0.515-8.358-1.603C42.393,155.685,44.798,152.193,48.919,151.678L48.919,151.678z"/>
		<path fill="#D15D1C" d="M39.302,163.527c1.317,0,2.462-0.973,2.462-2.175s-1.145-2.175-2.462-2.175
			c-1.374,0-2.462,0.973-2.462,2.175C36.841,162.554,37.928,163.527,39.302,163.527L39.302,163.527z"/>
		<g>
			<path fill="#F2F2F2" d="M162.175,0c2.301,2.217,10.374,10.835,7.948,22.506c-2.803,13.595-11.922,12.508-12.591,25.727
				c-0.544,11.127,9.203,19.243,13.303,23.51c-3.598-6.317-7.823-15.185-7.404-23.468c0.669-13.261,9.747-12.173,12.591-25.727
				C178.238,11.838,167.027,3.221,162.175,0L162.175,0z"/>
			<path fill="#F2F2F2" d="M138.121,38.025c2.05,1.213,9.287,6.149,10.165,14.265c0.962,9.454-5.396,9.747-3.012,18.741
				c2.008,7.53,10.291,11.88,13.93,14.265c-3.765-3.807-8.45-9.329-9.956-14.934c-2.385-8.994,3.974-9.245,2.97-18.699
				C151.466,44.217,142.095,39.657,138.121,38.025L138.121,38.025z"/>
			<path fill="#F2F2F2" d="M198.485,19.745c-2.593,1.799-11.755,9.078-11.629,20.247c0.084,13.01,8.827,12.884,6.944,25.309
				c-1.548,10.458-12.173,17.067-16.775,20.665c4.518-5.522,10.123-13.428,11.253-21.209c1.882-12.466-6.819-12.34-6.944-25.308
				C181.25,29.241,193.34,22.255,198.485,19.745L198.485,19.745z"/>
			<path fill="#F2F2F2" d="M147.868,86.676c0,0-8.492-4.476-10.123-9.956c-1.631-5.522-0.837-10.333-0.837-10.333
				s-5.187,9.621-2.719,14.767C136.657,86.3,147.868,86.676,147.868,86.676L147.868,86.676z"/>
			<path fill="#F2F2F2" d="M190.077,82.702c0,0,8.492-4.434,10.123-9.956c1.673-5.48,0.837-10.291,0.837-10.291
				s5.187,9.621,2.719,14.767C201.33,82.367,190.077,82.702,190.077,82.702L190.077,82.702z"/>
		</g>
	</g>
</g>
<g id="Layer_2">
	<g>
		<linearGradient id="SVGID_1_" gradientUnits="userSpaceOnUse" x1="3.789319e-006" y1="150" x2="300" y2="150">
			<stop  offset="0" style="stop-color:#C63C32"/>
			<stop  offset="0.5023" style="stop-color:#DC4F37"/>
			<stop  offset="1" style="stop-color:#C63C32"/>
		</linearGradient>
		<polygon fill="url(#SVGID_1_)" points="87.87,300 0,212.13 0,87.87 87.87,0 212.13,0 300,87.87 300,212.13 212.13,300 		"/>
		<polygon fill="none" stroke="#FFFFFF" stroke-width="3.0825" stroke-miterlimit="10" points="94.253,284.587 15.413,205.747 
			15.413,94.253 94.253,15.413 205.747,15.413 284.587,94.253 284.587,205.747 205.747,284.587 		"/>
		<g opacity="0.1">
			<defs>
				<polygon id="SVGID_2_" opacity="0.1" points="87.87,300 0,212.13 0,87.87 87.87,0 212.13,0 300,87.87 300,212.13 212.13,300 
									"/>
			</defs>
			<clipPath id="SVGID_3_">
				<use xlink:href="#SVGID_2_"  overflow="visible"/>
			</clipPath>
			
				<ellipse transform="matrix(0.9107 -0.413 0.413 0.9107 -18.1824 42.2669)" clip-path="url(#SVGID_3_)" fill="#FFFFFF" cx="88.672" cy="63.189" rx="220.415" ry="125.361"/>
		</g>
	</g>
	<g>
		<path fill="#FFFFFF" d="M63.176,196.011v-87.625h18.476v87.625H63.176z M84.575,108.386h20.523v10.867H84.575V108.386z
			 M84.575,145.118h13.74v11.064h-13.74V145.118z M84.575,185.144h20.523v10.867H84.575V185.144z"/>
		<path fill="#FFFFFF" d="M127.489,108.337l2.515,5.114v82.56h-15.903v-87.673H127.489z M132.927,119.401l18.477,33.928v31.323
			l-18.477-35.305V119.401z M154.326,190.848v-82.51h15.377v87.673h-12.921L154.326,190.848z"/>
		<path fill="#FFFFFF" d="M183.268,196.011v-87.625h18.476v87.625H183.268z M204.667,184.947h0.526c2.845,0,5.203-0.155,7.074-0.468
			c1.871-0.311,3.352-0.86,4.443-1.646c1.091-0.787,1.861-1.853,2.31-3.196c0.447-1.344,0.672-3.049,0.672-5.114v-45.484
			c0-1.737-0.272-3.212-0.818-4.426c-0.546-1.212-1.403-2.195-2.572-2.95c-1.169-0.754-2.651-1.303-4.443-1.647
			c-1.794-0.344-3.918-0.516-6.373-0.516h-0.818v-11.113h0.701c6.549,0,11.946,0.574,16.195,1.721
			c4.248,1.148,7.61,2.876,10.086,5.188c2.475,2.311,4.189,5.212,5.146,8.704c0.954,3.491,1.432,7.581,1.432,12.269v30.241
			c0,3.18-0.166,6.114-0.496,8.802c-0.332,2.688-0.946,5.131-1.842,7.326c-0.897,2.197-2.125,4.123-3.684,5.778
			c-1.56,1.655-3.558,3.048-5.993,4.18c-2.437,1.131-5.379,1.983-8.828,2.557c-3.45,0.574-7.514,0.86-12.19,0.86h-0.526V184.947z"/>
	</g>
</g>
</svg>
