<?xml version="1.0" encoding="utf-8"?>
<!-- Generator: Adobe Illustrator 17.0.0, SVG Export Plug-In . SVG Version: 6.00 Build 0)  -->
<!DOCTYPE svg PUBLIC "-//W3C//DTD SVG 1.1//EN" "http://www.w3.org/Graphics/SVG/1.1/DTD/svg11.dtd">
<svg version="1.1" xmlns="http://www.w3.org/2000/svg" xmlns:xlink="http://www.w3.org/1999/xlink" x="0px" y="0px" width="64px"
	 height="64px" viewBox="468 468 64 64" enable-background="new 468 468 64 64" xml:space="preserve">
<g id="Capa_1" display="none">
	<g display="inline">
		<path d="M482.667,532c-4.852,0-8.8-3.947-8.8-8.799V500.27c0-2.084,0.746-4.106,2.1-5.693c1.279-1.499,3.025-2.53,4.941-2.921
			v-6.324c0-9.557,8.565-17.332,19.092-17.332c10.527,0,19.092,7.775,19.092,17.332v6.324c1.916,0.391,3.662,1.422,4.941,2.921
			c1.354,1.587,2.1,3.609,2.1,5.692V523.2c0,4.852-3.948,8.8-8.8,8.8H482.667z M482.667,494.45c-3.209,0-5.819,2.61-5.819,5.819
			V523.2c0,3.209,2.61,5.819,5.819,5.819h34.666c3.209,0,5.819-2.61,5.819-5.819v-22.932c0-3.209-2.61-5.819-5.819-5.819H482.667z
			 M516.111,491.469v-6.137c0-7.913-7.228-14.351-16.111-14.351s-16.111,6.438-16.111,14.351v6.137H516.111z"/>
		<path d="M518.775,491.918v-6.587c0-9.382-8.423-17.015-18.775-17.015s-18.775,7.633-18.775,17.015v6.587
			c-3.991,0.688-7.041,4.166-7.041,8.351v22.932c0,4.676,3.806,8.482,8.483,8.482h34.666c4.677,0,8.483-3.805,8.483-8.483v-22.932
			C525.816,496.084,522.766,492.606,518.775,491.918z M483.572,485.332c0-8.089,7.369-14.668,16.428-14.668
			s16.428,6.58,16.428,14.668v6.454h-32.857V485.332z M523.469,523.2c0,3.383-2.753,6.136-6.136,6.136h-34.666
			c-3.383,0-6.136-2.753-6.136-6.136v-22.932c0-3.383,2.753-6.136,6.136-6.136h34.666c3.383,0,6.136,2.753,6.136,6.136V523.2z"/>
	</g>
</g>
<g id="Layer_2" display="none">
	<g display="inline">
		<g>
			<path d="M499.768,502.485c0.066,0,0.133,0,0.212,0c0.026,0,0.053,0,0.08,0c0.04,0,0.093,0,0.133,0
				c3.883-0.066,7.024-1.431,9.344-4.042c5.103-5.752,4.254-15.612,4.162-16.553c-0.331-7.064-3.671-10.444-6.428-12.021
				c-2.054-1.18-4.453-1.816-7.13-1.869h-0.093c-0.013,0-0.04,0-0.053,0h-0.08c-1.471,0-4.36,0.239-7.13,1.816
				c-2.783,1.577-6.176,4.957-6.507,12.074c-0.093,0.941-0.941,10.801,4.162,16.553
				C492.744,501.054,495.885,502.419,499.768,502.485z M489.815,482.221c0-0.04,0.013-0.08,0.013-0.106
				c0.437-9.503,7.183-10.523,10.072-10.523h0.053c0.027,0,0.066,0,0.106,0c3.578,0.079,9.662,1.537,10.072,10.523
				c0,0.04,0,0.08,0.013,0.106c0.013,0.093,0.941,9.105-3.274,13.85c-1.67,1.882-3.896,2.81-6.825,2.836c-0.026,0-0.04,0-0.066,0
				l0,0c-0.027,0-0.04,0-0.066,0c-2.916-0.027-5.156-0.954-6.812-2.836C488.9,491.352,489.802,482.3,489.815,482.221z"/>
			<path d="M527.216,518.84c0-0.013,0-0.027,0-0.04c0-0.106-0.013-0.212-0.013-0.331c-0.08-2.624-0.252-8.76-6.004-10.722
				c-0.04-0.013-0.093-0.027-0.133-0.04c-5.977-1.524-10.947-4.97-11-5.01c-0.808-0.57-1.922-0.371-2.492,0.437
				s-0.371,1.922,0.437,2.492c0.225,0.159,5.5,3.83,12.1,5.527c3.088,1.1,3.433,4.4,3.525,7.422c0,0.119,0,0.225,0.013,0.331
				c0.013,1.193-0.066,3.035-0.278,4.095c-2.147,1.219-10.563,5.434-23.366,5.434c-12.75,0-21.218-4.228-23.379-5.447
				c-0.212-1.06-0.305-2.902-0.278-4.095c0-0.106,0.013-0.212,0.013-0.331c0.093-3.022,0.437-6.322,3.525-7.422
				c6.6-1.696,11.875-5.381,12.1-5.527c0.808-0.57,1.007-1.683,0.437-2.492s-1.683-1.007-2.492-0.437
				c-0.053,0.04-4.996,3.486-11,5.01c-0.053,0.013-0.093,0.027-0.133,0.04c-5.752,1.975-5.924,8.111-6.004,10.722
				c0,0.119,0,0.225-0.013,0.331c0,0.013,0,0.026,0,0.04c-0.013,0.689-0.026,4.228,0.676,6.004c0.133,0.345,0.371,0.636,0.689,0.835
				c0.398,0.265,9.927,6.335,25.87,6.335c15.944,0,25.473-6.083,25.87-6.335c0.305-0.199,0.557-0.49,0.689-0.835
				C527.242,523.067,527.229,519.529,527.216,518.84z"/>
		</g>
	</g>
</g>
<g id="Layer_3" display="none">
	<rect x="468" y="468" display="inline" width="64" height="5.131"/>
	<rect x="468" y="526.869" display="inline" width="64" height="5.131"/>
	<rect x="468" y="487.623" display="inline" width="44.916" height="5.131"/>
	<rect x="468" y="507.246" display="inline" width="40.337" height="5.131"/>
</g>
<g id="Layer_4" display="none">
	<g display="inline">
		<path d="M500,513.693c-1.872,0-3.63-0.727-4.95-2.047c-2.729-2.729-2.729-7.17,0-9.9c1.563-1.563,14.405-10.493,24.927-17.665
			c0.317-0.216,0.686-0.33,1.068-0.33c0.507,0,0.984,0.197,1.343,0.556c0.644,0.644,0.739,1.658,0.226,2.411
			c-7.173,10.523-16.103,23.365-17.664,24.927C503.63,512.966,501.872,513.693,500,513.693z M510.746,495.041
			c-4.42,3.072-11.987,8.377-13.01,9.387c-1.252,1.252-1.251,3.285-0.002,4.533c0.604,0.604,1.409,0.937,2.266,0.937
			c0.857,0,1.661-0.333,2.266-0.937c1.014-1.026,6.318-8.592,9.39-13.012L510.746,495.041z"/>
		<path d="M475.002,525.304c-0.636,0-1.226-0.315-1.579-0.843c-3.547-5.306-5.422-11.448-5.422-17.764
			c0-8.547,3.329-16.583,9.372-22.628c6.044-6.044,14.08-9.372,22.628-9.372c4.582,0,9.008,0.949,13.153,2.82
			c0.954,0.431,1.38,1.557,0.949,2.511c-0.307,0.679-0.986,1.118-1.732,1.118c-0.269,0-0.531-0.057-0.779-0.169
			c-2.851-1.287-5.873-2.083-8.981-2.366l-0.712-0.065v4.554c0,1.047-0.851,1.898-1.898,1.898c-1.047,0-1.898-0.851-1.898-1.898
			v-4.553l-0.713,0.066c-8.791,0.811-16.81,5.814-21.451,13.384l-0.378,0.617l4.215,2.022c0.944,0.453,1.343,1.589,0.891,2.532
			c-0.314,0.655-0.986,1.078-1.713,1.078c-0.284,0-0.56-0.063-0.819-0.187l-4.249-2.038l-0.253,0.663
			c-1.218,3.198-1.836,6.567-1.836,10.013c0,4.777,1.244,9.522,3.596,13.721l0.302,0.538l3.704-1.807
			c0.262-0.128,0.541-0.193,0.83-0.193c0.733,0,1.387,0.409,1.708,1.066c0.222,0.456,0.254,0.971,0.089,1.45
			c-0.165,0.479-0.507,0.866-0.963,1.088l-5.23,2.551C475.571,525.239,475.291,525.304,475.002,525.304z"/>
		<path d="M524.999,525.304c-0.283,0-0.557-0.062-0.815-0.185l-5.357-2.551c-0.458-0.218-0.803-0.601-0.973-1.079
			c-0.17-0.478-0.143-0.993,0.075-1.451c0.313-0.658,0.987-1.083,1.716-1.083c0.283,0,0.556,0.062,0.814,0.185l3.839,1.828
			l0.299-0.533c2.36-4.204,3.607-8.955,3.607-13.74c0-4.041-0.836-7.941-2.484-11.592c-0.209-0.462-0.225-0.978-0.046-1.452
			c0.179-0.474,0.532-0.85,0.994-1.059c0.248-0.112,0.51-0.169,0.78-0.169c0.745,0,1.425,0.439,1.731,1.118
			c1.871,4.145,2.82,8.571,2.82,13.153c0,6.316-1.875,12.458-5.422,17.764C526.225,524.988,525.635,525.304,524.999,525.304z"/>
	</g>
</g>
<g id="Layer_5" display="none">
	<g display="inline">
		<path d="M530.16,505.102c-1.015,0-1.84,0.826-1.84,1.84v14.853c-0.003,2.672-2.179,4.849-4.851,4.851h-46.937
			c-2.672-0.002-4.848-2.179-4.851-4.851v-43.591c0.003-2.672,2.179-4.848,4.851-4.851h14.853c1.015,0,1.84-0.826,1.84-1.84
			c0-1.015-0.826-1.84-1.84-1.84h-14.853c-4.699,0.005-8.526,3.832-8.531,8.531v43.592c0.005,4.699,3.833,8.526,8.532,8.531h46.937
			c4.699-0.005,8.526-3.832,8.531-8.531v-14.853C532,505.928,531.174,505.102,530.16,505.102z"/>
		<path d="M479.292,508.204l-3.924,14.168c-0.177,0.637,0.004,1.324,0.472,1.793c0.348,0.348,0.81,0.539,1.302,0.539
			c0.166,0,0.331-0.022,0.491-0.067l14.168-3.925c0.306-0.085,0.586-0.248,0.81-0.472l29.843-29.845c2.994-3,2.994-7.882,0-10.883
			l-1.963-1.963c-1.453-1.453-3.386-2.254-5.441-2.254c-2.055,0-3.988,0.8-5.441,2.254l-29.844,29.844
			C479.54,507.618,479.377,507.898,479.292,508.204z M512.211,480.152c0.758-0.758,1.766-1.176,2.838-1.176
			c1.072,0,2.08,0.418,2.839,1.176l1.963,1.963c1.561,1.566,1.561,4.113,0,5.678l-1.656,1.656l-7.641-7.641L512.211,480.152z
			 M487.926,517.966l-8.143,2.256l2.256-8.144L487.926,517.966z M483.765,508.599l24.188-24.189l7.64,7.64l-24.189,24.189
			L483.765,508.599z"/>
	</g>
</g>
<g id="Layer_6">
	<path fill="#EE5125" d="M522.731,471.35c-0.217-0.087-5.386-2.142-11.511-2.142c-3.676,0-6.934,0.74-9.686,2.199
		c-2.369,1.258-5.583,1.895-9.552,1.896c-5.451,0-10.805-1.196-12.997-1.751v-2.299c0-0.69-0.561-1.251-1.251-1.251
		s-1.251,0.561-1.251,1.251v3.181c0,0.015,0.001,0.028,0.003,0.04c-0.002,0.011-0.003,0.024-0.003,0.039v58.238
		c0,0.69,0.561,1.251,1.251,1.251s1.251-0.561,1.251-1.251v-24.806c2.668,0.653,7.687,1.677,12.923,1.677
		c4.419,0,8.053-0.738,10.8-2.195c2.362-1.253,5.209-1.889,8.464-1.889c5.633,0,10.582,1.926,10.63,1.945
		c0.149,0.06,0.305,0.09,0.464,0.09c0.251,0,0.494-0.075,0.702-0.217c0.344-0.232,0.55-0.619,0.55-1.035v-31.809
		C523.518,471.996,523.209,471.541,522.731,471.35z"/>
</g>
</svg>
