<?xml version="1.0" encoding="utf-8"?>
<!-- Generator: Adobe Illustrator 17.0.0, SVG Export Plug-In . SVG Version: 6.00 Build 0)  -->
<!DOCTYPE svg PUBLIC "-//W3C//DTD SVG 1.1//EN" "http://www.w3.org/Graphics/SVG/1.1/DTD/svg11.dtd">
<svg version="1.1" xmlns="http://www.w3.org/2000/svg" xmlns:xlink="http://www.w3.org/1999/xlink" x="0px" y="0px" width="64px"
	 height="64px" viewBox="468 468 64 64" enable-background="new 468 468 64 64" xml:space="preserve">
<g id="Capa_1" display="none">
	<g display="inline">
		<path d="M482.667,532c-4.852,0-8.8-3.947-8.8-8.799V500.27c0-2.084,0.746-4.106,2.1-5.693c1.279-1.499,3.025-2.53,4.941-2.921
			v-6.324c0-9.557,8.565-17.332,19.092-17.332c10.527,0,19.092,7.775,19.092,17.332v6.324c1.916,0.391,3.662,1.422,4.941,2.921
			c1.354,1.587,2.1,3.609,2.1,5.692V523.2c0,4.852-3.948,8.8-8.8,8.8H482.667z M482.667,494.45c-3.209,0-5.819,2.61-5.819,5.819
			V523.2c0,3.209,2.61,5.819,5.819,5.819h34.666c3.209,0,5.819-2.61,5.819-5.819v-22.932c0-3.209-2.61-5.819-5.819-5.819H482.667z
			 M516.111,491.469v-6.137c0-7.913-7.228-14.351-16.111-14.351s-16.111,6.438-16.111,14.351v6.137H516.111z"/>
		<path d="M518.775,491.918v-6.587c0-9.382-8.423-17.015-18.775-17.015s-18.775,7.633-18.775,17.015v6.587
			c-3.991,0.688-7.041,4.166-7.041,8.351v22.932c0,4.676,3.806,8.482,8.483,8.482h34.666c4.677,0,8.483-3.805,8.483-8.483v-22.932
			C525.816,496.084,522.766,492.606,518.775,491.918z M483.572,485.332c0-8.089,7.369-14.668,16.428-14.668
			s16.428,6.58,16.428,14.668v6.454h-32.857V485.332z M523.469,523.2c0,3.383-2.753,6.136-6.136,6.136h-34.666
			c-3.383,0-6.136-2.753-6.136-6.136v-22.932c0-3.383,2.753-6.136,6.136-6.136h34.666c3.383,0,6.136,2.753,6.136,6.136V523.2z"/>
	</g>
</g>
<g id="Layer_2" display="none">
	<g display="inline">
		<g>
			<path d="M499.768,502.485c0.066,0,0.133,0,0.212,0c0.026,0,0.053,0,0.08,0c0.04,0,0.093,0,0.133,0
				c3.883-0.066,7.024-1.431,9.344-4.042c5.103-5.752,4.254-15.612,4.162-16.553c-0.331-7.064-3.671-10.444-6.428-12.021
				c-2.054-1.18-4.453-1.816-7.13-1.869h-0.093c-0.013,0-0.04,0-0.053,0h-0.08c-1.471,0-4.36,0.239-7.13,1.816
				c-2.783,1.577-6.176,4.957-6.507,12.074c-0.093,0.941-0.941,10.801,4.162,16.553
				C492.744,501.054,495.885,502.419,499.768,502.485z M489.815,482.221c0-0.04,0.013-0.08,0.013-0.106
				c0.437-9.503,7.183-10.523,10.072-10.523h0.053c0.027,0,0.066,0,0.106,0c3.578,0.079,9.662,1.537,10.072,10.523
				c0,0.04,0,0.08,0.013,0.106c0.013,0.093,0.941,9.105-3.274,13.85c-1.67,1.882-3.896,2.81-6.825,2.836c-0.026,0-0.04,0-0.066,0
				l0,0c-0.027,0-0.04,0-0.066,0c-2.916-0.027-5.156-0.954-6.812-2.836C488.9,491.352,489.802,482.3,489.815,482.221z"/>
			<path d="M527.216,518.84c0-0.013,0-0.027,0-0.04c0-0.106-0.013-0.212-0.013-0.331c-0.08-2.624-0.252-8.76-6.004-10.722
				c-0.04-0.013-0.093-0.027-0.133-0.04c-5.977-1.524-10.947-4.97-11-5.01c-0.808-0.57-1.922-0.371-2.492,0.437
				s-0.371,1.922,0.437,2.492c0.225,0.159,5.5,3.83,12.1,5.527c3.088,1.1,3.433,4.4,3.525,7.422c0,0.119,0,0.225,0.013,0.331
				c0.013,1.193-0.066,3.035-0.278,4.095c-2.147,1.219-10.563,5.434-23.366,5.434c-12.75,0-21.218-4.228-23.379-5.447
				c-0.212-1.06-0.305-2.902-0.278-4.095c0-0.106,0.013-0.212,0.013-0.331c0.093-3.022,0.437-6.322,3.525-7.422
				c6.6-1.696,11.875-5.381,12.1-5.527c0.808-0.57,1.007-1.683,0.437-2.492s-1.683-1.007-2.492-0.437
				c-0.053,0.04-4.996,3.486-11,5.01c-0.053,0.013-0.093,0.027-0.133,0.04c-5.752,1.975-5.924,8.111-6.004,10.722
				c0,0.119,0,0.225-0.013,0.331c0,0.013,0,0.026,0,0.04c-0.013,0.689-0.026,4.228,0.676,6.004c0.133,0.345,0.371,0.636,0.689,0.835
				c0.398,0.265,9.927,6.335,25.87,6.335c15.944,0,25.473-6.083,25.87-6.335c0.305-0.199,0.557-0.49,0.689-0.835
				C527.242,523.067,527.229,519.529,527.216,518.84z"/>
		</g>
	</g>
</g>
<g id="Layer_3" display="none">
	<rect x="468" y="468" display="inline" fill="#FFFFFF" width="64" height="5.131"/>
	<rect x="468" y="526.869" display="inline" fill="#FFFFFF" width="64" height="5.131"/>
	<rect x="468" y="487.623" display="inline" fill="#FFFFFF" width="44.916" height="5.131"/>
	<rect x="468" y="507.246" display="inline" fill="#FFFFFF" width="40.337" height="5.131"/>
</g>
<g id="Layer_4" display="none">
	<g display="inline">
		<path fill="#FFFFFF" d="M500,513.693c-1.872,0-3.63-0.727-4.95-2.047c-2.729-2.729-2.729-7.17,0-9.9
			c1.563-1.563,14.405-10.493,24.927-17.665c0.317-0.216,0.686-0.33,1.068-0.33c0.507,0,0.984,0.197,1.343,0.556
			c0.644,0.644,0.739,1.658,0.226,2.411c-7.173,10.523-16.103,23.365-17.664,24.927C503.63,512.966,501.872,513.693,500,513.693z
			 M510.746,495.041c-4.42,3.072-11.987,8.377-13.01,9.387c-1.252,1.252-1.251,3.285-0.002,4.533
			c0.604,0.604,1.409,0.937,2.266,0.937c0.857,0,1.661-0.333,2.266-0.937c1.014-1.026,6.318-8.592,9.39-13.012L510.746,495.041z"/>
		<path fill="#FFFFFF" d="M475.002,525.304c-0.636,0-1.226-0.315-1.579-0.843c-3.547-5.306-5.422-11.448-5.422-17.764
			c0-8.547,3.329-16.583,9.372-22.628c6.044-6.044,14.08-9.372,22.628-9.372c4.582,0,9.008,0.949,13.153,2.82
			c0.954,0.431,1.38,1.557,0.949,2.511c-0.307,0.679-0.986,1.118-1.732,1.118c-0.269,0-0.531-0.057-0.779-0.169
			c-2.851-1.287-5.873-2.083-8.981-2.366l-0.712-0.065v4.554c0,1.047-0.851,1.898-1.898,1.898c-1.047,0-1.898-0.851-1.898-1.898
			v-4.553l-0.713,0.066c-8.791,0.811-16.81,5.814-21.451,13.384l-0.378,0.617l4.215,2.022c0.944,0.453,1.343,1.589,0.891,2.532
			c-0.314,0.655-0.986,1.078-1.713,1.078c-0.284,0-0.56-0.063-0.819-0.187l-4.249-2.038l-0.253,0.663
			c-1.218,3.198-1.836,6.567-1.836,10.013c0,4.777,1.244,9.522,3.596,13.721l0.302,0.538l3.704-1.807
			c0.262-0.128,0.541-0.193,0.83-0.193c0.733,0,1.387,0.409,1.708,1.066c0.222,0.456,0.254,0.971,0.089,1.45
			c-0.165,0.479-0.507,0.866-0.963,1.088l-5.23,2.551C475.571,525.239,475.291,525.304,475.002,525.304z"/>
		<path fill="#FFFFFF" d="M524.999,525.304c-0.283,0-0.557-0.062-0.815-0.185l-5.357-2.551c-0.458-0.218-0.803-0.601-0.973-1.079
			c-0.17-0.478-0.143-0.993,0.075-1.451c0.313-0.658,0.987-1.083,1.716-1.083c0.283,0,0.556,0.062,0.814,0.185l3.839,1.828
			l0.299-0.533c2.36-4.204,3.607-8.955,3.607-13.74c0-4.041-0.836-7.941-2.484-11.592c-0.209-0.462-0.225-0.978-0.046-1.452
			c0.179-0.474,0.532-0.85,0.994-1.059c0.248-0.112,0.51-0.169,0.78-0.169c0.745,0,1.425,0.439,1.731,1.118
			c1.871,4.145,2.82,8.571,2.82,13.153c0,6.316-1.875,12.458-5.422,17.764C526.225,524.988,525.635,525.304,524.999,525.304z"/>
	</g>
</g>
<g id="Layer_5" display="none">
	<g display="inline">
		<path fill="#1B4E7F" d="M530.16,505.102c-1.015,0-1.84,0.826-1.84,1.84v14.853c-0.003,2.672-2.179,4.849-4.851,4.851h-46.937
			c-2.672-0.002-4.848-2.179-4.851-4.851v-43.591c0.003-2.672,2.179-4.848,4.851-4.851h14.853c1.015,0,1.84-0.826,1.84-1.84
			c0-1.015-0.826-1.84-1.84-1.84h-14.853c-4.699,0.005-8.526,3.832-8.531,8.531v43.592c0.005,4.699,3.833,8.526,8.532,8.531h46.937
			c4.699-0.005,8.526-3.832,8.531-8.531v-14.853C532,505.928,531.174,505.102,530.16,505.102z"/>
		<path fill="#1B4E7F" d="M479.292,508.204l-3.924,14.168c-0.177,0.637,0.004,1.324,0.472,1.793c0.348,0.348,0.81,0.539,1.302,0.539
			c0.166,0,0.331-0.022,0.491-0.067l14.168-3.925c0.306-0.085,0.586-0.248,0.81-0.472l29.843-29.845c2.994-3,2.994-7.882,0-10.883
			l-1.963-1.963c-1.453-1.453-3.386-2.254-5.441-2.254c-2.055,0-3.988,0.8-5.441,2.254l-29.844,29.844
			C479.54,507.618,479.377,507.898,479.292,508.204z M512.211,480.152c0.758-0.758,1.766-1.176,2.838-1.176
			c1.072,0,2.08,0.418,2.839,1.176l1.963,1.963c1.561,1.566,1.561,4.113,0,5.678l-1.656,1.656l-7.641-7.641L512.211,480.152z
			 M487.926,517.966l-8.143,2.256l2.256-8.144L487.926,517.966z M483.765,508.599l24.188-24.189l7.64,7.64l-24.189,24.189
			L483.765,508.599z"/>
	</g>
</g>
<g id="Layer_6" display="none">
	<path display="inline" fill="#EE5125" d="M522.731,471.35c-0.217-0.087-5.386-2.142-11.511-2.142c-3.676,0-6.934,0.74-9.686,2.199
		c-2.369,1.258-5.583,1.895-9.552,1.896c-5.451,0-10.805-1.196-12.997-1.751v-2.299c0-0.69-0.561-1.251-1.251-1.251
		s-1.251,0.561-1.251,1.251v3.181c0,0.015,0.001,0.028,0.003,0.04c-0.002,0.011-0.003,0.024-0.003,0.039v58.238
		c0,0.69,0.561,1.251,1.251,1.251s1.251-0.561,1.251-1.251v-24.806c2.668,0.653,7.687,1.677,12.923,1.677
		c4.419,0,8.053-0.738,10.8-2.195c2.362-1.253,5.209-1.889,8.464-1.889c5.633,0,10.582,1.926,10.63,1.945
		c0.149,0.06,0.305,0.09,0.464,0.09c0.251,0,0.494-0.075,0.702-0.217c0.344-0.232,0.55-0.619,0.55-1.035v-31.809
		C523.518,471.996,523.209,471.541,522.731,471.35z"/>
</g>
<g id="Layer_7">
	<g>
		<g>
			<g>
				<path fill="#FFFFFF" d="M512.057,495.5c0-1.381-1.119-2.5-2.5-2.5h-25.75c-1.381,0-2.5,1.119-2.5,2.5s1.119,2.5,2.5,2.5h25.75
					C510.938,498,512.057,496.881,512.057,495.5z"/>
				<path fill="#FFFFFF" d="M483.807,503c-1.381,0-2.5,1.119-2.5,2.5s1.119,2.5,2.5,2.5h15.639c1.381,0,2.5-1.119,2.5-2.5
					s-1.119-2.5-2.5-2.5H483.807z"/>
				<path fill="#FFFFFF" d="M489.682,527h-8.361c-2.757,0-5-2.243-5-5v-44c0-2.757,2.243-5,5-5h30.736c2.757,0,5,2.243,5,5v15.375
					c0,1.381,1.119,2.5,2.5,2.5c1.381,0,2.5-1.119,2.5-2.5V478c0-5.514-4.486-10-10-10h-30.736c-5.514,0-10,4.486-10,10v44
					c0,5.514,4.486,10,10,10h8.361c1.381,0,2.5-1.119,2.5-2.5S491.063,527,489.682,527z"/>
				<path fill="#FFFFFF" d="M526.485,504.197c-2.924-2.924-7.682-2.924-10.605-0.002l-13.725,13.695
					c-0.292,0.291-0.507,0.649-0.626,1.043l-2.989,9.841c-0.265,0.872-0.034,1.82,0.603,2.472c0.477,0.489,1.125,0.754,1.79,0.754
					c0.222,0,0.447-0.03,0.667-0.091l10.091-2.795c0.415-0.115,0.794-0.335,1.099-0.64l13.697-13.671
					C529.41,511.879,529.41,507.121,526.485,504.197z M509.722,524.471l-5.077,1.406l1.486-4.891l9.261-9.241l3.536,3.536
					L509.722,524.471z M522.952,511.266l-0.484,0.483l-3.536-3.536l0.483-0.482c0.975-0.975,2.561-0.975,3.535,0
					C523.925,508.707,523.925,510.293,522.952,511.266z"/>
				<path fill="#FFFFFF" d="M509.557,483h-25.75c-1.381,0-2.5,1.119-2.5,2.5s1.119,2.5,2.5,2.5h25.75c1.381,0,2.5-1.119,2.5-2.5
					S510.938,483,509.557,483z"/>
			</g>
		</g>
	</g>
	<g>
		<g>
			<g>
				<path fill="#1B4E7F" d="M512.057,495.5c0-1.381-1.119-2.5-2.5-2.5h-25.75c-1.381,0-2.5,1.119-2.5,2.5s1.119,2.5,2.5,2.5h25.75
					C510.938,498,512.057,496.881,512.057,495.5z"/>
				<path fill="#1B4E7F" d="M483.807,503c-1.381,0-2.5,1.119-2.5,2.5s1.119,2.5,2.5,2.5h15.639c1.381,0,2.5-1.119,2.5-2.5
					s-1.119-2.5-2.5-2.5H483.807z"/>
				<path fill="#1B4E7F" d="M489.682,527h-8.361c-2.757,0-5-2.243-5-5v-44c0-2.757,2.243-5,5-5h30.736c2.757,0,5,2.243,5,5v15.375
					c0,1.381,1.119,2.5,2.5,2.5c1.381,0,2.5-1.119,2.5-2.5V478c0-5.514-4.486-10-10-10h-30.736c-5.514,0-10,4.486-10,10v44
					c0,5.514,4.486,10,10,10h8.361c1.381,0,2.5-1.119,2.5-2.5S491.063,527,489.682,527z"/>
				<path fill="#1B4E7F" d="M526.485,504.197c-2.924-2.924-7.682-2.924-10.605-0.002l-13.725,13.695
					c-0.292,0.291-0.507,0.649-0.626,1.043l-2.989,9.841c-0.265,0.872-0.034,1.82,0.603,2.472c0.477,0.489,1.125,0.754,1.79,0.754
					c0.222,0,0.447-0.03,0.667-0.091l10.091-2.795c0.415-0.115,0.794-0.335,1.099-0.64l13.697-13.671
					C529.41,511.879,529.41,507.121,526.485,504.197z M509.722,524.471l-5.077,1.406l1.486-4.891l9.261-9.241l3.536,3.536
					L509.722,524.471z M522.952,511.266l-0.484,0.483l-3.536-3.536l0.483-0.482c0.975-0.975,2.561-0.975,3.535,0
					C523.925,508.707,523.925,510.293,522.952,511.266z"/>
				<path fill="#1B4E7F" d="M509.557,483h-25.75c-1.381,0-2.5,1.119-2.5,2.5s1.119,2.5,2.5,2.5h25.75c1.381,0,2.5-1.119,2.5-2.5
					S510.938,483,509.557,483z"/>
			</g>
		</g>
	</g>
</g>
<g id="Layer_8" display="none">
	<path display="inline" fill="#1B4E7F" d="M519.69,500.016c0-1.355-1.084-2.452-2.421-2.452h-14.813v-14.791v0
		c0-1.359-1.103-2.462-2.461-2.462c-1.359,0-2.462,1.102-2.462,2.462v17.234c0,1.36,1.103,2.462,2.462,2.462h17.276
		C518.606,502.468,519.69,501.37,519.69,500.016 M527.083,500c0,14.96-12.125,27.087-27.082,27.087
		c-14.958,0-27.082-12.127-27.082-27.087c0-14.96,12.125-27.087,27.082-27.087C514.957,472.913,527.083,485.04,527.083,500 M532,500
		c0-17.673-14.327-32-32-32c-17.674,0-32,14.327-32,32s14.327,32,32,32C517.673,532,532,517.673,532,500"/>
</g>
<g id="Layer_9" display="none">
	<g display="inline">
		<g>
			<g>
				<path fill="#1B4E7F" d="M500,468c-12.406,0-22.5,10.094-22.5,22.5c0,4.192,1.161,8.283,3.359,11.832l17.861,28.782
					c0.342,0.551,0.945,0.886,1.593,0.886c0.005,0,0.01,0,0.015,0c0.654-0.005,1.258-0.351,1.594-0.911l17.405-29.061
					c2.076-3.474,3.174-7.46,3.174-11.527C522.5,478.094,512.406,468,500,468z M516.108,500.102l-15.824,26.421l-16.238-26.168
					c-1.829-2.954-2.821-6.362-2.821-9.856c0-10.339,8.436-18.775,18.775-18.775s18.763,8.436,18.763,18.775
					C518.763,493.89,517.836,497.211,516.108,500.102z"/>
			</g>
		</g>
		<g>
			<g>
				<path fill="#1B4E7F" d="M500,479.25c-6.203,0-11.25,5.047-11.25,11.25c0,6.164,4.965,11.25,11.25,11.25
					c6.363,0,11.25-5.154,11.25-11.25C511.25,484.297,506.203,479.25,500,479.25z M500,498.025c-4.157,0-7.525-3.379-7.525-7.525
					c0-4.135,3.389-7.525,7.525-7.525s7.513,3.389,7.513,7.525C507.513,494.585,504.223,498.025,500,498.025z"/>
			</g>
		</g>
	</g>
</g>
<g id="Layer_10" display="none">
	<g display="inline">
		<path fill="#999999" d="M476.662,499.826l15.938,17.622h-5.543l-14.552-16.284v16.284H468v-34.896h4.505v16.185l14.602-16.185
			h5.493L476.662,499.826z"/>
		<path fill="#999999" d="M532,483.146v34.302h-4.506v-27.372l-10.935,27.372h-4.012l-10.987-27.273v27.273h-4.505v-34.302h5.395
			l12.176,28.808l11.977-28.808H532z"/>
	</g>
</g>
<g id="Layer_11" display="none">
	<g display="inline">
		<path fill="#EE5125" d="M510.296,509.091c-8.424,12.075-9.641,22.277-9.641,22.277c-0.187,0.842-0.936,0.842-1.123,0
			c0,0-1.591-10.203-9.828-22.277c-6.833-9.547-9.922-13.291-9.922-21.06c0-11.138,8.892-20.031,20.124-20.031
			c11.139,0,20.312,8.892,20.312,20.031C520.217,495.8,514.227,503.381,510.296,509.091z M507.862,488.405
			c0-4.306-3.37-7.675-7.769-7.675c-4.119,0-7.582,3.37-7.582,7.675s3.463,7.956,7.582,7.956
			C504.492,496.361,507.862,492.711,507.862,488.405z"/>
	</g>
</g>
<g id="Layer_12" display="none">
	<polygon fill="#231F20" points="523.273,468 500,491.273 476.727,468 468,476.727 491.273,500 468,523.273 476.727,532 
		500,508.727 523.273,532 532,523.273 508.727,500 532,476.727 	"/>
	<polygon fill="#231F20" points="532,494.947 505.053,494.947 505.053,468 494.947,468 494.947,494.947 468,494.947 468,505.053 
		494.947,505.053 494.947,532 505.053,532 505.053,505.053 532,505.053 	"/>
	<path fill="#231F20" d="M526.974,494.974h-21.949v-21.949c0-2.776-2.25-5.026-5.026-5.026c-2.776,0-5.026,2.25-5.026,5.026v21.949
		h-21.949c-2.776,0-5.026,2.25-5.026,5.026s2.25,5.026,5.026,5.026h21.949v21.949c0,2.776,2.25,5.026,5.026,5.026
		c2.776,0,5.026-2.25,5.026-5.026v-21.949h21.949c2.776,0,5.026-2.25,5.026-5.026S529.75,494.974,526.974,494.974z"/>
	<path display="inline" fill="#FFFFFF" d="M520.608,469.955L500,490.563l-20.608-20.608c-2.606-2.606-6.831-2.606-9.437,0
		c-2.606,2.606-2.606,6.831,0,9.438L490.563,500l-20.608,20.608c-2.606,2.606-2.606,6.831,0,9.438c2.606,2.606,6.831,2.606,9.438,0
		L500,509.438l20.608,20.608c2.606,2.606,6.831,2.606,9.438,0c2.606-2.606,2.606-6.831,0-9.437L509.438,500l20.608-20.608
		c2.606-2.606,2.606-6.831,0-9.438C527.439,467.348,523.214,467.348,520.608,469.955z"/>
</g>
<g id="Layer_13" display="none">
	<path display="inline" d="M526.841,477.251h-53.681c-2.844,0-5.159,2.313-5.159,5.159v35.18c0,2.846,2.315,5.159,5.159,5.159
		h53.681c2.844,0,5.159-2.313,5.159-5.159v-35.18C532,479.564,529.685,477.251,526.841,477.251z M526.841,479.314
		c0.532,0,1.026,0.148,1.464,0.385l-25.874,22.561c-1.317,1.149-3.545,1.149-4.864,0l-25.868-22.564
		c0.437-0.236,0.929-0.383,1.46-0.383H526.841z M529.936,517.59c0,1.707-1.389,3.096-3.096,3.096h-53.681
		c-1.707,0-3.096-1.389-3.096-3.096v-35.18c0-0.422,0.086-0.824,0.24-1.191l20.986,18.307l-11.818,11.083
		c-0.415,0.388-0.435,1.042-0.045,1.457c0.204,0.217,0.479,0.326,0.753,0.326c0.254,0,0.508-0.093,0.706-0.281l11.879-11.14
		c0.03-0.029,0.043-0.067,0.07-0.098l3.377,2.946c1.044,0.91,2.417,1.366,3.789,1.366s2.743-0.456,3.789-1.368l3.378-2.945
		c0.027,0.032,0.04,0.07,0.071,0.099l11.875,11.14c0.198,0.188,0.452,0.281,0.706,0.281c0.277,0,0.549-0.109,0.753-0.326
		c0.39-0.415,0.369-1.069-0.045-1.457l-11.815-11.084l20.987-18.3c0.152,0.365,0.238,0.765,0.238,1.185V517.59z"/>
</g>
<g id="Layer_14" display="none">
	<g display="inline">
		<path fill="#1B4E7F" d="M528.513,500.979l0.6-0.979l-0.6-0.98c-0.101-0.164-2.515-4.06-7.205-7.965
			c-6.238-5.193-13.586-7.938-21.252-7.938c-7.664,0-15.03,2.744-21.304,7.934c-4.717,3.903-7.158,7.796-7.26,7.96L470.88,500
			l0.613,0.988c0.102,0.164,2.543,4.058,7.26,7.96c6.273,5.19,13.64,7.934,21.304,7.934c7.666,0,15.014-2.745,21.252-7.938
			C525.998,505.04,528.412,501.144,528.513,500.979z M518.809,506.145c-5.611,4.637-11.921,6.987-18.753,6.987
			c-6.834,0-13.165-2.352-18.814-6.992c-2.922-2.399-4.903-4.829-5.873-6.141c0.971-1.313,2.952-3.742,5.873-6.141
			c5.649-4.639,11.979-6.992,18.814-6.992c6.832,0,13.141,2.351,18.753,6.987c2.909,2.403,4.873,4.836,5.83,6.146
			C523.681,501.31,521.717,503.743,518.809,506.145z"/>
		<path fill="#1B4E7F" d="M500,488.733c-6.212,0-11.267,5.054-11.267,11.267s5.054,11.267,11.267,11.267s11.267-5.054,11.267-11.267
			S506.212,488.733,500,488.733z M500,507.517c-4.145,0-7.517-3.372-7.517-7.517s3.372-7.517,7.517-7.517s7.517,3.372,7.517,7.517
			S504.145,507.517,500,507.517z"/>
		<path fill="#1B4E7F" d="M471.75,471.75h7.828V468H468v11.438h3.75V471.75z"/>
		<path fill="#1B4E7F" d="M520.422,468v3.75h7.828v7.688H532V468H520.422z"/>
		<path fill="#1B4E7F" d="M471.75,520.563H468V532h11.578v-3.75h-7.828V520.563z"/>
		<path fill="#1B4E7F" d="M528.25,528.25h-7.828V532H532v-11.438h-3.75V528.25z"/>
	</g>
</g>
<g id="Layer_15" display="none">
	<g display="inline">
		<g>
			<g>
				<path fill="#1B4E7F" d="M527.701,484.007c-4.272-7.399-11.17-12.692-19.422-14.903c-8.253-2.211-16.872-1.077-24.272,3.195
					c-7.399,4.272-12.692,11.17-14.903,19.422c-2.211,8.253-1.076,16.873,3.195,24.272c4.272,7.399,11.169,12.692,19.422,14.903
					c2.756,0.739,5.552,1.104,8.331,1.104c5.542,0,11.013-1.454,15.941-4.299c7.399-4.272,12.692-11.169,14.903-19.422
					C533.108,500.026,531.973,491.406,527.701,484.007z M527.679,507.417c-1.981,7.393-6.722,13.572-13.351,17.4
					c-6.628,3.827-14.351,4.843-21.744,2.863c-7.393-1.981-13.573-6.723-17.4-13.351c-3.827-6.629-4.844-14.351-2.863-21.744
					c1.981-7.393,6.723-13.572,13.351-17.4c4.416-2.549,9.315-3.852,14.281-3.852c2.489,0,4.995,0.327,7.463,0.989
					c7.393,1.981,13.573,6.723,17.4,13.351C528.643,492.301,529.66,500.023,527.679,507.417z"/>
			</g>
		</g>
		<g>
			<g>
				<path fill="#1B4E7F" d="M494.338,484.64h-4.14c-1.837,0-3.331,1.494-3.331,3.331v24.058c0,1.837,1.494,3.331,3.331,3.331h4.14
					c1.837,0,3.331-1.494,3.331-3.331v-24.058C497.669,486.134,496.175,484.64,494.338,484.64z M494.338,512.029h-4.14v-24.058h4.14
					l0.002,24.058C494.34,512.029,494.34,512.029,494.338,512.029z"/>
			</g>
		</g>
		<g>
			<g>
				<path fill="#1B4E7F" d="M509.802,484.64h-4.14c-1.837,0-3.331,1.494-3.331,3.331v24.058c0,1.837,1.494,3.331,3.331,3.331h4.14
					c1.837,0,3.331-1.494,3.331-3.331v-24.058C513.133,486.134,511.639,484.64,509.802,484.64z M509.802,512.029h-4.14v-24.058h4.14
					l0.002,24.058C509.804,512.029,509.803,512.029,509.802,512.029z"/>
			</g>
		</g>
	</g>
</g>
<g id="Layer_16" display="none">
	<g display="inline">
		<path fill="#1B4E7F" d="M500,532c-17.645,0-32-14.355-32-32c0-17.645,14.355-32,32-32s32,14.355,32,32
			C532,517.645,517.645,532,500,532z M500,471.812c-15.543,0-28.188,12.645-28.188,28.188c0,15.543,12.645,28.188,28.188,28.188
			c15.543,0,28.188-12.645,28.188-28.188C528.188,484.457,515.543,471.812,500,471.812z"/>
		<path fill="#1B4E7F" d="M500,487.862c-1.604,0-2.908-1.304-2.908-2.907c0-1.605,1.305-2.911,2.908-2.911s2.908,1.306,2.908,2.911
			C502.908,486.558,501.603,487.862,500,487.862z"/>
		<path fill="#1B4E7F" d="M500,517.956c-1.051,0-1.906-0.855-1.906-1.906v-18.056c0-1.051,0.855-1.906,1.906-1.906
			c1.051,0,1.906,0.855,1.906,1.906v18.056C501.906,517.101,501.051,517.956,500,517.956z"/>
	</g>
</g>
<g id="Layer_17" display="none">
	<g display="inline">
		<path fill="#1B4E7F" d="M529.999,498h-25.333c-1.104,0-2-0.896-2-2s0.896-2,2-2h25.333c1.104,0,2,0.896,2,2
			S531.103,498,529.999,498z"/>
		<path fill="#1B4E7F" d="M519.999,508c-0.512,0-1.024-0.195-1.414-0.586c-0.781-0.782-0.781-2.048,0-2.83l8.587-8.586l-8.587-8.587
			c-0.781-0.781-0.781-2.048,0-2.829c0.782-0.782,2.048-0.782,2.83,0l10,10c0.781,0.781,0.781,2.048,0,2.829l-10,10
			C521.023,507.805,520.511,508,519.999,508z"/>
		<path fill="#1B4E7F" d="M489.333,532c-0.571,0-1.112-0.08-1.653-0.248l-16.048-5.347c-2.184-0.763-3.632-2.797-3.632-5.072v-48
			c0-2.941,2.392-5.333,5.333-5.333c0.57,0,1.112,0.08,1.653,0.248l16.048,5.347c2.184,0.763,3.632,2.797,3.632,5.072v48
			C494.666,529.608,492.274,532,489.333,532z M473.333,472c-0.733,0-1.333,0.6-1.333,1.333v48c0,0.568,0.381,1.096,0.925,1.285
			l15.973,5.323c0.115,0.037,0.264,0.059,0.435,0.059c0.733,0,1.333-0.6,1.333-1.333v-48c0-0.568-0.381-1.096-0.925-1.285
			l-15.973-5.323C473.652,472.021,473.503,472,473.333,472z"/>
		<path fill="#1B4E7F" d="M508.666,489.333c-1.104,0-2-0.896-2-2v-12c0-1.837-1.496-3.333-3.333-3.333h-30c-1.104,0-2-0.896-2-2
			s0.896-2,2-2h30c4.045,0,7.333,3.288,7.333,7.333v12C510.666,488.438,509.77,489.333,508.666,489.333z"/>
		<path fill="#1B4E7F" d="M503.333,524h-10.667c-1.104,0-2-0.896-2-2s0.896-2,2-2h10.667c1.837,0,3.333-1.496,3.333-3.333v-12
			c0-1.104,0.896-2,2-2s2,0.896,2,2v12C510.666,520.712,507.378,524,503.333,524z"/>
	</g>
</g>
<g id="Layer_18" display="none">
	<g display="inline">
		<path fill="#1B4E7F" d="M500,485.849c2.812,0,5.1-2.288,5.1-5.1c0-2.812-2.288-5.1-5.1-5.1s-5.1,2.288-5.1,5.1
			C494.9,483.561,497.188,485.849,500,485.849z M500,478.199c1.406,0,2.55,1.144,2.55,2.55c0,1.406-1.144,2.55-2.55,2.55
			s-2.55-1.144-2.55-2.55C497.45,479.343,498.594,478.199,500,478.199z"/>
		<path fill="#1B4E7F" d="M500,501.275c2.812,0,5.1-2.288,5.1-5.1c0-2.812-2.288-5.1-5.1-5.1s-5.1,2.288-5.1,5.1
			C494.9,498.987,497.188,501.275,500,501.275z M500,493.625c1.406,0,2.55,1.144,2.55,2.55s-1.144,2.55-2.55,2.55
			s-2.55-1.144-2.55-2.55S498.594,493.625,500,493.625z"/>
		<path fill="#1B4E7F" d="M500,516.574c2.812,0,5.1-2.288,5.1-5.1c0-2.812-2.288-5.1-5.1-5.1s-5.1,2.288-5.1,5.1
			C494.9,514.286,497.188,516.574,500,516.574z M500,508.924c1.406,0,2.55,1.144,2.55,2.55c0,1.406-1.144,2.55-2.55,2.55
			s-2.55-1.144-2.55-2.55C497.45,510.068,498.594,508.924,500,508.924z"/>
		<path fill="#1B4E7F" d="M513.259,501.095c4.137-0.843,7.139-4.521,7.139-8.745c0-0.703-0.572-1.275-1.275-1.275h-6.375v-5.302
			l0.51-0.104c4.137-0.843,7.139-4.521,7.139-8.745c0-0.703-0.572-1.275-1.275-1.275h-6.375v-2.55c0-2.812-2.288-5.1-5.1-5.1
			h-15.299c-2.812,0-5.1,2.288-5.1,5.1v2.55h-6.375c-0.703,0-1.275,0.572-1.275,1.275c0,4.224,3.003,7.902,7.139,8.745l0.51,0.104
			v5.302h-6.375c-0.703,0-1.275,0.572-1.275,1.275c0,4.224,3.003,7.902,7.139,8.745l0.51,0.104v5.175h-6.375
			c-0.703,0-1.275,0.572-1.275,1.275c0,4.224,3.003,7.902,7.139,8.745l0.51,0.104v2.625c0,2.812,2.288,5.1,5.1,5.1h2.55v6.502
			c0,0.703,0.572,1.275,1.275,1.275h7.649c0.703,0,1.275-0.572,1.275-1.275v-6.502h2.55c2.812,0,5.1-2.288,5.1-5.1v-2.625
			l0.51-0.104c4.137-0.843,7.139-4.521,7.139-8.745c0-0.703-0.572-1.275-1.275-1.275h-6.375v-5.175L513.259,501.095z
			 M517.786,508.924l-0.302,0.851c-0.637,1.795-2.089,3.247-3.885,3.884l-0.851,0.302v-5.036H517.786z M512.749,483.235v-5.036
			h5.037l-0.302,0.851c-0.637,1.795-2.089,3.247-3.885,3.884L512.749,483.235z M512.749,498.661v-5.036h5.037l-0.302,0.851
			c-0.637,1.795-2.089,3.247-3.885,3.884L512.749,498.661z M502.55,524.223v5.227h-5.1v-5.227H502.55z M489.801,473.1
			c0-1.406,1.144-2.55,2.55-2.55h15.299c1.406,0,2.55,1.144,2.55,2.55v46.024c0,1.406-1.144,2.55-2.55,2.55h-15.299
			c-1.406,0-2.55-1.144-2.55-2.55V473.1z M487.251,478.199v5.036l-0.85-0.302c-1.796-0.637-3.248-2.089-3.885-3.884l-0.302-0.851
			H487.251z M487.251,493.625v5.036l-0.85-0.302c-1.796-0.637-3.248-2.089-3.885-3.884l-0.302-0.851H487.251z M487.251,508.924
			v5.036l-0.85-0.302c-1.796-0.637-3.248-2.089-3.885-3.884l-0.302-0.851H487.251z"/>
	</g>
</g>
<g id="Layer_19" display="none">
	<g display="inline">
		<path fill="#1B4E7F" d="M531.647,525.572c-0.231-0.231-0.549-0.353-0.918-0.353h-2.967v-55.947c0-0.749-0.523-1.271-1.272-1.271
			h-52.98c-0.749,0-1.272,0.523-1.272,1.271v55.947h-2.967c-0.749,0-1.271,0.523-1.271,1.272v4.238c0,0.749,0.523,1.272,1.271,1.272
			h61.457c0.749,0,1.271-0.523,1.271-1.272v-4.238C532,526.121,531.878,525.803,531.647,525.572z M507.205,515.047v10.172h-5.934
			v-10.172H507.205z M508.477,512.503h-16.954c-0.749,0-1.272,0.523-1.272,1.271v11.444h-15.47v-54.676h50.437v54.676h-15.47
			v-11.444C509.748,513.026,509.225,512.503,508.477,512.503z M498.729,515.047v10.172h-5.934v-10.172H498.729z M470.543,529.457
			v-1.695h58.914l0,1.695H470.543z"/>
		<path fill="#1B4E7F" d="M488.344,473.298h-8.477c-0.749,0-1.271,0.523-1.271,1.271v6.358c0,0.749,0.523,1.271,1.271,1.271h8.477
			c0.749,0,1.271-0.523,1.271-1.271v-6.358C489.616,473.821,489.093,473.298,488.344,473.298z M487.073,475.841v3.815h-5.934v-3.815
			H487.073z"/>
		<path fill="#1B4E7F" d="M488.344,484.954h-8.477c-0.749,0-1.271,0.523-1.271,1.271v6.358c0,0.749,0.523,1.271,1.271,1.271h8.477
			c0.749,0,1.271-0.523,1.271-1.271v-6.358C489.616,485.477,489.093,484.954,488.344,484.954z M487.073,487.497v3.815h-5.934v-3.815
			H487.073z"/>
		<path fill="#1B4E7F" d="M495.762,493.854h8.477c0.749,0,1.272-0.523,1.272-1.271v-6.358c0-0.749-0.523-1.271-1.272-1.271h-8.477
			c-0.749,0-1.271,0.523-1.271,1.271v6.358C494.49,493.332,495.013,493.854,495.762,493.854z M502.967,487.497v3.815h-5.934v-3.815
			H502.967z"/>
		<path fill="#1B4E7F" d="M511.656,493.854h8.477c0.749,0,1.272-0.523,1.272-1.271v-6.358c0-0.749-0.523-1.271-1.272-1.271h-8.477
			c-0.749,0-1.272,0.523-1.272,1.271v6.358C510.384,493.332,510.907,493.854,511.656,493.854z M518.861,487.497v3.815h-5.934v-3.815
			H518.861z"/>
		<path fill="#1B4E7F" d="M495.762,505.51h8.477c0.749,0,1.272-0.523,1.272-1.272v-6.358c0-0.749-0.523-1.271-1.272-1.271h-8.477
			c-0.749,0-1.271,0.523-1.271,1.271v6.358C494.49,504.987,495.013,505.51,495.762,505.51z M502.967,499.152v3.815h-5.934v-3.815
			H502.967z"/>
		<path fill="#1B4E7F" d="M511.656,505.51h8.477c0.749,0,1.272-0.523,1.272-1.272v-6.358c0-0.749-0.523-1.271-1.272-1.271h-8.477
			c-0.749,0-1.272,0.523-1.272,1.271v6.358C510.384,504.987,510.907,505.51,511.656,505.51z M518.861,499.152v3.815h-5.934v-3.815
			H518.861z"/>
		<path fill="#1B4E7F" d="M488.344,496.609h-8.477c-0.749,0-1.271,0.523-1.271,1.271v6.358c0,0.749,0.523,1.272,1.271,1.272h8.477
			c0.749,0,1.271-0.523,1.271-1.272v-6.358C489.616,497.132,489.093,496.609,488.344,496.609z M487.073,499.152v3.815h-5.934v-3.815
			H487.073z"/>
		<path fill="#1B4E7F" d="M495.762,482.199h8.477c0.749,0,1.272-0.523,1.272-1.271v-6.358c0-0.749-0.523-1.271-1.272-1.271h-8.477
			c-0.749,0-1.271,0.523-1.271,1.271v6.358C494.49,481.676,495.013,482.199,495.762,482.199z M502.967,475.841v3.815h-5.934v-3.815
			H502.967z"/>
		<path fill="#1B4E7F" d="M511.656,482.199h8.477c0.749,0,1.272-0.523,1.272-1.271v-6.358c0-0.749-0.523-1.271-1.272-1.271h-8.477
			c-0.749,0-1.272,0.523-1.272,1.271v6.358C510.384,481.676,510.907,482.199,511.656,482.199z M518.861,475.841v3.815h-5.934v-3.815
			H518.861z"/>
		<path fill="#1B4E7F" d="M506.358,508.265h-12.715c-0.749,0-1.271,0.523-1.271,1.271c0,0.369,0.122,0.687,0.353,0.918
			c0.231,0.231,0.549,0.353,0.918,0.353h12.715c0.749,0,1.272-0.523,1.272-1.272S507.106,508.265,506.358,508.265z"/>
	</g>
</g>
<g id="Layer_20" display="none">
	<path display="inline" fill="none" stroke="#1B4E7F" stroke-width="2.4553" stroke-miterlimit="10" d="M517.21,499.165h4.125
		c-0.201-5.267-2.308-10.044-5.654-13.662l-2.772,2.772l-1.255-1.254l2.771-2.771c-3.591-3.291-8.311-5.367-13.512-5.585v3.696
		h-1.773v-3.697c-5.154,0.206-9.839,2.236-13.423,5.466l2.533,2.533l-1.254,1.254l-2.543-2.543
		c-3.308,3.518-5.436,8.155-5.753,13.285h3.637v1.773h-3.672c0.105,5.205,2.071,9.95,5.262,13.601l2.711-2.711l1.254,1.254
		l-2.744,2.744c3.537,3.429,8.254,5.644,13.486,5.976v-4.061h1.773v4.099c5.318-0.099,10.16-2.137,13.847-5.443l-2.957-2.957
		l1.255-1.254l2.971,2.971c3.412-3.611,5.579-8.409,5.81-13.713h-4.122V499.165z M497.354,509.344l-9.125-9.125
		c-0.972-0.972-0.972-2.563,0-3.542c0.49-0.482,1.133-0.731,1.775-0.731c0.643,0,1.277,0.249,1.767,0.731l5.583,5.583l3.543,3.543
		L497.354,509.344z M511.781,494.917l-9.502,9.502l-3.543-3.543l9.502-9.502c0.49-0.482,1.125-0.731,1.767-0.731
		c0.643,0,1.285,0.249,1.775,0.731C512.753,492.355,512.753,493.945,511.781,494.917z"/>
	<path display="inline" fill="none" stroke="#1B4E7F" stroke-width="2.4553" stroke-miterlimit="10" d="M530.5,500
		c0-16.845-13.655-30.5-30.5-30.5c-16.845,0-30.5,13.655-30.5,30.5c0,16.845,13.655,30.5,30.5,30.5
		C516.845,530.5,530.5,516.845,530.5,500z M500,524.651c-13.614,0-24.651-11.037-24.651-24.651
		c0-13.615,11.037-24.651,24.651-24.651c13.614,0,24.651,11.037,24.651,24.651C524.651,513.615,513.614,524.651,500,524.651z"/>
</g>
<g id="Layer_21" display="none">
	<g transform="translate(1 1)" display="inline">
		<g>
			<g>
				<path fill="#1B4E7F" d="M513.933,486.2c0-1.813-1.387-3.2-3.2-3.2h-23.467c-1.813,0-3.2,1.387-3.2,3.2V499
					c0,1.813,1.387,3.2,3.2,3.2h23.467c1.813,0,3.2-1.387,3.2-3.2L513.933,486.2L513.933,486.2z M511.8,499
					c0,0.64-0.427,1.067-1.067,1.067h-7.04l3.52-3.52c0.427-0.427,0.427-1.067,0-1.493c-0.427-0.427-1.067-0.427-1.493,0
					l-5.013,5.013h-6.613l3.52-3.52c0.427-0.427,0.427-1.067,0-1.493s-1.067-0.427-1.493,0l-5.013,5.013h-3.84
					c-0.64,0-1.067-0.427-1.067-1.067v-12.8c0-0.64,0.427-1.067,1.067-1.067h23.467c0.64,0,1.067,0.427,1.067,1.067L511.8,499
					L511.8,499z"/>
				<path fill="#1B4E7F" d="M529.08,485.24h-2.453c-1.067,0-1.92,0.853-1.92,1.92v2.24h-1.173v-19.2c0-1.813-1.387-3.2-3.2-3.2
					h-42.667c-1.813,0-3.2,1.387-3.2,3.2v19.2h-1.173v-2.24c0-1.067-0.853-1.92-1.92-1.92h-2.453c-1.067,0-1.92,0.853-1.92,1.92
					v6.72c0,1.067,0.853,1.92,1.92,1.92h2.56c1.067,0,1.92-0.853,1.813-1.92v-2.347h1.173v11.733H473.4
					c-0.64,0-1.067,0.427-1.067,1.067v12.8c0,0.018,0.002,0.036,0.002,0.053c-0.001,0.018-0.002,0.035-0.002,0.053v4.16
					c0,1.813,1.387,3.2,3.2,3.2h1.067v2.133c0,2.346,1.92,4.266,4.267,4.266h4.267c2.347,0,4.267-1.92,4.267-4.267V524.6h19.2v2.133
					c0,2.347,1.92,4.267,4.267,4.267h4.267c2.347,0,4.267-1.92,4.267-4.267V524.6h1.067c1.813,0,3.2-1.387,3.2-3.2v-4.16
					c0-0.018-0.002-0.036-0.002-0.053c0.001-0.018,0.002-0.035,0.002-0.053v-12.8c0-0.64-0.427-1.067-1.067-1.067h-1.067v-11.733
					h1.173v2.347c0,1.067,0.853,1.92,1.92,1.92h2.453c1.067,0,1.92-0.853,1.92-1.92v-6.72C531,486.093,530.147,485.24,529.08,485.24
					z M471.267,493.667h-2.133v-6.4h2.133L471.267,493.667L471.267,493.667z M487.267,526.733c0,1.173-0.96,2.133-2.133,2.133
					h-4.267c-1.173,0-2.133-0.96-2.133-2.133V524.6h8.533V526.733z M519.267,526.733c0,1.173-0.96,2.133-2.133,2.133h-4.267
					c-1.173,0-2.133-0.96-2.133-2.133V524.6h8.533V526.733L519.267,526.733z M523.533,521.4c0,0.64-0.427,1.067-1.067,1.067H521.4
					h-12.8h-19.2h-12.8h-1.067c-0.64,0-1.067-0.427-1.067-1.067v-3.093h49.067V521.4z M523.533,516.067h-49.067V505.4h5.333h1.067
					v-1.067V481.72c0-1.067,0.853-1.92,1.92-1.92h32.427c1.067,0,1.92,0.853,1.92,1.92v22.613v1.067h1.067h5.333L523.533,516.067
					L523.533,516.067z M519.267,503.267V481.72c0-2.24-1.813-4.053-4.053-4.053h-5.547v-3.2c0-0.64-0.427-1.067-1.067-1.067
					c-0.64,0-1.067,0.427-1.067,1.067v3.2h-3.2v-3.2c0-0.64-0.427-1.067-1.067-1.067c-0.64,0-1.067,0.427-1.067,1.067v3.2H499v-3.2
					c0-0.64-0.427-1.067-1.067-1.067c-0.64,0-1.067,0.427-1.067,1.067v3.2h-3.2v-3.2c0-0.64-0.427-1.067-1.067-1.067
					c-0.64,0-1.067,0.427-1.067,1.067v3.2h-3.2v-3.2c0-0.64-0.427-1.067-1.067-1.067c-0.64,0-1.067,0.427-1.067,1.067v3.2h-3.413
					c-2.24,0-4.053,1.813-4.053,4.053v21.547H476.6V470.2c0-0.64,0.427-1.067,1.067-1.067h42.667c0.64,0,1.067,0.427,1.067,1.067
					v33.067H519.267z M528.867,493.667h-2.133v-6.4h2.133V493.667z"/>
				<path fill="#1B4E7F" d="M503.267,508.6c0.64,0,1.067-0.427,1.067-1.067c0-0.64-0.427-1.067-1.067-1.067h-8.533
					c-0.64,0-1.067,0.427-1.067,1.067c0,0.64,0.427,1.067,1.067,1.067H503.267z"/>
				<path fill="#1B4E7F" d="M506.467,510.733h-14.933c-0.64,0-1.067,0.427-1.067,1.067c0,0.64,0.427,1.067,1.067,1.067h14.933
					c0.64,0,1.067-0.427,1.067-1.067C507.533,511.16,507.107,510.733,506.467,510.733z"/>
				<path fill="#1B4E7F" d="M480.867,507.533c-1.813,0-3.2,1.387-3.2,3.2s1.387,3.2,3.2,3.2c1.813,0,3.2-1.387,3.2-3.2
					S482.68,507.533,480.867,507.533z M480.867,511.8c-0.64,0-1.067-0.427-1.067-1.067c0-0.64,0.427-1.067,1.067-1.067
					c0.64,0,1.067,0.427,1.067,1.067C481.933,511.373,481.507,511.8,480.867,511.8z"/>
				<path fill="#1B4E7F" d="M513.933,510.733c0,1.813,1.387,3.2,3.2,3.2c1.813,0,3.2-1.387,3.2-3.2c0-1.813-1.387-3.2-3.2-3.2
					C515.32,507.533,513.933,508.92,513.933,510.733z M518.2,510.733c0,0.64-0.427,1.067-1.067,1.067
					c-0.64,0-1.067-0.427-1.067-1.067c0-0.64,0.427-1.067,1.067-1.067C517.773,509.667,518.2,510.093,518.2,510.733z"/>
			</g>
		</g>
	</g>
</g>
<g id="Layer_22" display="none">
	<g display="inline">
		<path fill="#1B4E7F" d="M513.838,527.742c-0.624,0-1.131-0.507-1.131-1.131v-5.256h-25.414v5.256c0,0.624-0.507,1.131-1.131,1.131
			h-8.516c-0.624,0-1.131-0.507-1.131-1.131v-5.471c-1.27-0.47-2.123-1.687-2.129-3.044v-9.514h-2.062
			c-2.384,0-4.324-1.94-4.324-4.324c0-2.384,1.94-4.324,4.324-4.324h3.385l6.128-14.008v-12.537c0-0.624,0.507-1.131,1.131-1.131
			h34.062c0.624,0,1.131,0.507,1.131,1.131v12.537l6.128,14.008h3.385c2.385,0,4.324,1.94,4.324,4.324
			c0,2.384-1.94,4.324-4.324,4.324h-2.062v9.514c-0.006,1.357-0.859,2.574-2.129,3.044v5.471c0,0.624-0.507,1.131-1.131,1.131
			H513.838z M521.222,525.48v-4.125h-6.254v4.125H521.222z M485.031,525.48v-4.125h-6.254v4.125H485.031z M476.649,518.096
			c0,0.55,0.448,0.998,0.998,0.998h44.707c0.55,0,0.998-0.448,0.998-0.998v-3.127h-46.703V518.096z M523.351,512.707v-4.125h-8.383
			v4.125H523.351z M512.707,512.707v-1.996h-25.414v1.996H512.707z M485.031,512.707v-4.125h-8.383v4.125H485.031z M512.707,508.449
			v-0.998c0-0.624,0.507-1.131,1.131-1.131h9.514v-1.996h-46.703v1.996h9.514c0.624,0,1.131,0.507,1.131,1.131v0.998H512.707z
			 M527.609,506.32l0.067-0.001c1.137,0,2.062-0.925,2.062-2.062c0-1.137-0.925-2.062-2.062-2.062h-2.396l0.238,0.546
			c0.001,0.002,0.011,0.025,0.015,0.048c0.039,0.13,0.066,0.264,0.08,0.399l0,3.134H527.609z M472.324,502.195
			c-1.137,0-2.062,0.925-2.062,2.062c0,1.137,0.925,2.062,2.062,2.062h2.062v-3.127c0.014-0.143,0.042-0.279,0.082-0.41
			c0.005-0.014,0.009-0.031,0.009-0.031l0.242-0.557H472.324z M522.753,502.062l-6.462-14.769h-32.583l-6.462,14.769H522.753z
			 M515.9,485.031V474.52h-31.8v10.511H515.9z"/>
		<path fill="#1B4E7F" d="M527.676,500h-3.429l-6.151-14.06v-12.551c0-0.588-0.477-1.064-1.064-1.064h-34.062
			c-0.588,0-1.064,0.477-1.064,1.064v12.551L475.753,500h-3.429c-2.351,0-4.258,1.906-4.258,4.258c0,2.351,1.906,4.258,4.258,4.258
			h2.129v9.58c0.006,1.348,0.858,2.548,2.129,2.997v5.518c0,0.588,0.477,1.064,1.064,1.064h8.516c0.588,0,1.064-0.477,1.064-1.064
			v-5.322h25.547v5.322c0,0.588,0.477,1.064,1.064,1.064h8.516c0.588,0,1.064-0.477,1.064-1.064v-5.518
			c1.271-0.45,2.123-1.649,2.129-2.997v-9.58h2.129c2.351,0,4.258-1.906,4.258-4.258C531.933,501.906,530.027,500,527.676,500z
			 M474.543,502.768c0,0-0.006,0.025-0.01,0.035c-0.039,0.127-0.065,0.258-0.079,0.391v3.193h-2.129
			c-1.176,0-2.129-0.953-2.129-2.129c0-1.176,0.953-2.129,2.129-2.129h2.497L474.543,502.768z M484.033,474.453h31.933v10.645
			h-31.933V474.453z M483.665,487.227h32.671l6.52,14.902h-45.71L483.665,487.227z M476.582,508.516h8.516v4.258h-8.516V508.516z
			 M485.098,525.547h-6.387v-4.258h6.387V525.547z M521.289,525.547h-6.387v-4.258h6.387V525.547z M523.418,518.096
			c0,0.588-0.477,1.064-1.064,1.064h-44.707c-0.588,0-1.064-0.477-1.064-1.064v-3.193h46.836V518.096z M487.227,512.773v-2.129
			h25.547v2.129H487.227z M523.418,512.773h-8.516v-4.258h8.516V512.773z M523.418,506.387h-9.58c-0.588,0-1.064,0.477-1.064,1.064
			v1.064h-25.547v-1.064c0-0.588-0.477-1.064-1.064-1.064h-9.58v-2.129h46.836V506.387z M527.676,506.387h-2.129v-3.193
			c-0.013-0.133-0.04-0.264-0.079-0.392c0-0.009-0.009-0.033-0.01-0.035l-0.279-0.639h2.497c1.176,0,2.129,0.953,2.129,2.129
			c0,1.176-0.953,2.129-2.129,2.129V506.387z"/>
		<path fill="#1B4E7F" d="M489.355,484.1c-0.624,0-1.131-0.507-1.131-1.131v-5.256h-0.998c-0.624,0-1.131-0.507-1.131-1.131
			s0.507-1.131,1.131-1.131h4.258c0.624,0,1.131,0.507,1.131,1.131s-0.507,1.131-1.131,1.131h-0.998v5.256
			C490.486,483.592,489.979,484.1,489.355,484.1z"/>
		<path fill="#1B4E7F" d="M491.484,475.518h-4.258c-0.588,0-1.064,0.477-1.064,1.064s0.477,1.064,1.064,1.064h1.064v5.322
			c0,0.588,0.477,1.064,1.064,1.064c0.588,0,1.064-0.477,1.064-1.064v-5.322h1.064c0.588,0,1.064-0.477,1.064-1.064
			S492.072,475.518,491.484,475.518z"/>
		<path fill="#1B4E7F" d="M498.869,484.1v-2.129h-1.996v2.129h-2.262v-7.518c0-0.624,0.507-1.131,1.131-1.131H500
			c0.624,0,1.131,0.507,1.131,1.131v7.518H498.869z M498.869,479.709v-1.996h-1.996v1.996H498.869z"/>
		<path fill="#1B4E7F" d="M500,475.518h-4.258c-0.588,0-1.064,0.477-1.064,1.064v7.451h2.129v-2.129h2.129v2.129h2.129v-7.451
			C501.064,475.994,500.588,475.518,500,475.518z M498.936,479.775h-2.129v-2.129h2.129V479.775z"/>
		<path fill="#1B4E7F" d="M504.259,484.1c-0.223,0-0.44-0.066-0.627-0.19c-0.251-0.168-0.422-0.423-0.482-0.72
			c-0.059-0.296,0.001-0.598,0.168-0.849l1.71-2.565l-1.712-2.565c-0.346-0.519-0.206-1.223,0.313-1.569
			c0.187-0.125,0.403-0.19,0.627-0.19c0.379,0,0.732,0.188,0.942,0.504l1.188,1.785l1.188-1.785c0.21-0.315,0.563-0.504,0.942-0.504
			c0.223,0,0.44,0.066,0.627,0.19c0.518,0.347,0.658,1.051,0.311,1.569l-1.71,2.565l1.712,2.562
			c0.168,0.251,0.228,0.553,0.168,0.849c-0.059,0.296-0.23,0.552-0.482,0.72c-0.187,0.124-0.403,0.19-0.627,0.19h0
			c-0.38,0-0.732-0.188-0.942-0.504l-1.188-1.782l-1.186,1.785C504.991,483.912,504.638,484.1,504.259,484.1z"/>
		<path fill="#1B4E7F" d="M509.107,475.696c-0.489-0.326-1.15-0.194-1.477,0.295l-1.243,1.869l-1.243-1.869
			c-0.326-0.489-0.988-0.621-1.477-0.295c-0.489,0.326-0.621,0.988-0.295,1.477l1.737,2.602l-1.735,2.602
			c-0.326,0.489-0.194,1.15,0.295,1.477c0.49,0.326,1.15,0.194,1.477-0.295l1.241-1.869l1.243,1.865
			c0.326,0.49,0.988,0.622,1.477,0.295c0.489-0.326,0.621-0.988,0.295-1.477l-1.737-2.599l1.735-2.602
			C509.726,476.685,509.595,476.023,509.107,475.696z"/>
		<path fill="#1B4E7F" d="M512.773,484.1c-0.624,0-1.131-0.507-1.131-1.131v-6.387c0-0.624,0.507-1.131,1.131-1.131
			c0.624,0,1.131,0.507,1.131,1.131v6.387C513.904,483.592,513.397,484.1,512.773,484.1z"/>
		<path fill="#1B4E7F" d="M512.773,475.518c-0.588,0-1.064,0.477-1.064,1.064v6.387c0,0.588,0.477,1.064,1.064,1.064
			s1.064-0.477,1.064-1.064v-6.387C513.838,475.994,513.361,475.518,512.773,475.518z"/>
		<path fill="#1B4E7F" d="M517.032,497.938c-0.432,0-0.82-0.24-1.013-0.626l-2.88-5.761h-12.074c-0.624,0-1.131-0.507-1.131-1.131
			s0.507-1.131,1.131-1.131h12.773c0.437,0,0.825,0.24,1.017,0.626l3.241,6.483h-0.011c0.096,0.246,0.103,0.514,0.018,0.767
			c-0.096,0.287-0.297,0.519-0.568,0.654C517.378,497.898,517.208,497.938,517.032,497.938z"/>
		<path fill="#1B4E7F" d="M517.989,496.331l-3.193-6.387c-0.181-0.363-0.552-0.591-0.958-0.589h-12.773
			c-0.588,0-1.064,0.477-1.064,1.064s0.477,1.064,1.064,1.064h12.115l2.899,5.798c0.263,0.527,0.902,0.74,1.428,0.477
			c0.526-0.263,0.74-0.902,0.477-1.428H517.989z"/>
		<path fill="#1B4E7F" d="M495.742,491.551c-0.624,0-1.131-0.507-1.131-1.131s0.507-1.131,1.131-1.131h1.064
			c0.624,0,1.131,0.507,1.131,1.131s-0.507,1.131-1.131,1.131H495.742z"/>
		<path fill="#1B4E7F" d="M496.807,489.355h-1.064c-0.588,0-1.064,0.477-1.064,1.064s0.477,1.064,1.064,1.064h1.064
			c0.588,0,1.064-0.477,1.064-1.064S497.395,489.355,496.807,489.355z"/>
	</g>
</g>
</svg>
