<?xml version="1.0" encoding="utf-8"?>
<!-- Generator: Adobe Illustrator 17.0.0, SVG Export Plug-In . SVG Version: 6.00 Build 0)  -->
<!DOCTYPE svg PUBLIC "-//W3C//DTD SVG 1.1//EN" "http://www.w3.org/Graphics/SVG/1.1/DTD/svg11.dtd">
<svg version="1.1" id="Layer_1" xmlns="http://www.w3.org/2000/svg" xmlns:xlink="http://www.w3.org/1999/xlink" x="0px" y="0px"
	 width="400px" height="104.853px" viewBox="0 0 400 104.853" enable-background="new 0 0 400 104.853" xml:space="preserve">
<g>
	<g>
		<path fill="#126FAA" d="M132.837,63.809h11.171v5.09h-17.818V35.622h6.647V63.809z"/>
		<path fill="#126FAA" d="M172.03,37.318c2.53,1.446,4.526,3.465,5.987,6.057s2.192,5.523,2.192,8.791s-0.731,6.206-2.192,8.814
			c-1.461,2.609-3.457,4.636-5.987,6.081c-2.53,1.446-5.35,2.168-8.46,2.168c-3.112,0-5.932-0.722-8.461-2.168
			c-2.53-1.445-4.526-3.472-5.987-6.081c-1.461-2.608-2.192-5.545-2.192-8.814s0.731-6.199,2.192-8.791s3.457-4.612,5.987-6.057
			c2.529-1.445,5.35-2.168,8.461-2.168C166.68,35.15,169.5,35.874,172.03,37.318z M158.431,42.598
			c-1.477,0.88-2.632,2.145-3.464,3.794c-0.833,1.65-1.249,3.575-1.249,5.775c0,2.2,0.416,4.124,1.249,5.774
			c0.832,1.65,1.987,2.915,3.464,3.794c1.477,0.88,3.189,1.321,5.138,1.321c1.948,0,3.66-0.44,5.137-1.321
			c1.477-0.879,2.631-2.145,3.464-3.794c0.832-1.65,1.249-3.574,1.249-5.774c0-2.2-0.417-4.125-1.249-5.775
			c-0.833-1.65-1.988-2.914-3.464-3.794c-1.477-0.879-3.19-1.32-5.137-1.32C161.62,41.278,159.908,41.719,158.431,42.598z"/>
		<path fill="#126FAA" d="M210.704,38.285c2.671,1.997,4.384,4.69,5.138,8.084h-6.976c-0.66-1.508-1.705-2.71-3.134-3.606
			c-1.43-0.896-3.119-1.343-5.067-1.343c-1.918,0-3.615,0.44-5.091,1.32c-1.477,0.88-2.624,2.137-3.441,3.771
			c-0.818,1.634-1.225,3.551-1.225,5.751c0,3.488,0.935,6.206,2.804,8.154c1.869,1.949,4.422,2.923,7.66,2.923
			c2.388,0,4.438-0.708,6.151-2.122c1.712-1.414,2.82-3.377,3.323-5.892H199.58v-4.761h16.828v6.411
			c-0.471,2.2-1.39,4.226-2.757,6.081c-1.367,1.854-3.159,3.339-5.374,4.454c-2.215,1.116-4.753,1.673-7.612,1.673
			c-3.269,0-6.152-0.714-8.65-2.145c-2.498-1.429-4.431-3.425-5.798-5.987c-1.367-2.561-2.05-5.491-2.05-8.79
			c0-3.3,0.683-6.23,2.05-8.791c1.367-2.561,3.292-4.565,5.775-6.01c2.482-1.445,5.357-2.168,8.626-2.168
			C204.671,35.292,208.033,36.29,210.704,38.285z"/>
		<path fill="#126FAA" d="M257.275,35.999V68.9h-6.599V45.945L242.238,68.9h-5.75l-8.438-22.861V68.9h-6.646V35.999h8.06
			l9.993,24.746l9.804-24.746H257.275z"/>
		<path fill="#126FAA" d="M283.576,62.206h-13.339L267.88,68.9h-7.024l12.255-32.901h7.589L292.909,68.9h-7.024L283.576,62.206z
			 M281.785,57.163l-4.903-14.046l-4.902,14.046H281.785z"/>
		<path fill="#126FAA" d="M318.079,64.493c-0.848,1.43-2.106,2.577-3.771,3.441c-1.666,0.865-3.693,1.296-6.081,1.296
			c-2.357,0-4.462-0.401-6.316-1.202c-1.854-0.801-3.34-1.956-4.455-3.464c-1.116-1.508-1.752-3.268-1.909-5.28h7.071
			c0.157,1.351,0.699,2.474,1.626,3.37c0.926,0.896,2.16,1.344,3.7,1.344c1.382,0,2.443-0.369,3.182-1.108
			c0.738-0.738,1.108-1.689,1.108-2.852c0-1.037-0.299-1.893-0.896-2.569c-0.598-0.675-1.352-1.217-2.263-1.626
			c-0.912-0.408-2.168-0.879-3.771-1.414c-2.074-0.691-3.771-1.374-5.09-2.05c-1.321-0.675-2.444-1.658-3.371-2.947
			c-0.927-1.288-1.39-2.969-1.39-5.043c0-2.859,1.029-5.115,3.087-6.764c2.058-1.65,4.785-2.474,8.178-2.474
			c3.519,0,6.324,0.848,8.414,2.545c2.089,1.697,3.276,3.96,3.559,6.788h-7.164c-0.189-1.194-0.692-2.175-1.509-2.946
			c-0.818-0.77-1.932-1.155-3.346-1.155c-1.225,0-2.215,0.323-2.969,0.966c-0.754,0.644-1.131,1.579-1.131,2.804
			c0,0.974,0.29,1.784,0.872,2.427c0.581,0.644,1.32,1.171,2.215,1.579c0.896,0.409,2.113,0.865,3.653,1.367
			c2.137,0.754,3.873,1.461,5.209,2.122c1.335,0.66,2.474,1.65,3.417,2.969c0.943,1.32,1.414,3.048,1.414,5.185
			C319.351,61.499,318.927,63.063,318.079,64.493z"/>
		<path fill="#126FAA" d="M346.878,35.622v5.28h-9.192V68.9h-6.646V40.901h-9.145v-5.28H346.878z"/>
		<path fill="#126FAA" d="M357.201,40.901v8.625h11.784v5.091h-11.784v8.956h13.198V68.9h-19.844V35.622h19.844v5.28H357.201z"/>
		<path fill="#126FAA" d="M392.647,68.9l-7.778-12.962h-2.922V68.9h-6.647V35.622h12.679c3.866,0,6.811,0.943,8.838,2.828
			c2.027,1.886,3.04,4.369,3.04,7.448c0,2.514-0.7,4.619-2.097,6.317c-1.399,1.697-3.417,2.828-6.057,3.394L400,68.9H392.647z
			 M381.947,51.366h5.467c3.802,0,5.704-1.681,5.704-5.044c0-1.603-0.464-2.852-1.39-3.747c-0.927-0.896-2.366-1.343-4.313-1.343
			h-5.467V51.366z"/>
	</g>
	<linearGradient id="SVGID_1_" gradientUnits="userSpaceOnUse" x1="-12.6375" y1="-7.3301" x2="92.7457" y2="89.4504">
		<stop  offset="0" style="stop-color:#23315A"/>
		<stop  offset="0.8911" style="stop-color:#126FAA"/>
	</linearGradient>
	<path fill="url(#SVGID_1_)" d="M82,51.002h7.091c-0.346-9.054-3.968-17.265-9.719-23.484l-4.765,4.765l-2.157-2.155l4.763-4.763
		c-6.172-5.656-14.285-9.225-23.225-9.599v6.353h-3.048v-6.355c-8.86,0.354-16.912,3.843-23.072,9.395l4.354,4.354l-2.155,2.155
		l-4.372-4.372c-5.686,6.047-9.344,14.018-9.888,22.836h6.252v3.048h-6.311c0.181,8.946,3.559,17.103,9.044,23.379l4.66-4.66
		l2.155,2.155l-4.717,4.717c6.079,5.894,14.188,9.702,23.181,10.272v-6.981h3.048v7.047c9.141-0.169,17.465-3.674,23.801-9.357
		l-5.083-5.084l2.157-2.155l5.107,5.107c5.865-6.207,9.59-14.455,9.987-23.571H82V51.002z M47.87,68.499L32.184,52.813
		c-1.671-1.671-1.671-4.405,0-6.089c0.842-0.829,1.947-1.257,3.052-1.257c1.105,0,2.195,0.428,3.038,1.257l9.596,9.596l6.089,6.089
		L47.87,68.499z M72.669,43.7L56.336,60.033l-6.089-6.089l16.333-16.333c0.842-0.828,1.933-1.256,3.038-1.256
		c1.105,0,2.209,0.428,3.052,1.256C74.339,39.295,74.339,42.029,72.669,43.7z"/>
	<linearGradient id="SVGID_2_" gradientUnits="userSpaceOnUse" x1="1.767623e-005" y1="52.4265" x2="104.8529" y2="52.4265">
		<stop  offset="0" style="stop-color:#F37921"/>
		<stop  offset="1" style="stop-color:#EB3C27"/>
	</linearGradient>
	<path fill="url(#SVGID_2_)" d="M104.853,52.427C104.853,23.472,81.381,0,52.426,0C23.472,0,0,23.472,0,52.427
		c0,28.954,23.472,52.426,52.426,52.426C81.381,104.853,104.853,81.381,104.853,52.427z M52.426,94.799
		c-23.402,0-42.373-18.971-42.373-42.373s18.971-42.373,42.373-42.373s42.373,18.971,42.373,42.373S75.828,94.799,52.426,94.799z"/>
</g>
</svg>
