<?xml version="1.0" encoding="utf-8"?>
<!-- Generator: Adobe Illustrator 17.0.0, SVG Export Plug-In . SVG Version: 6.00 Build 0)  -->
<!DOCTYPE svg PUBLIC "-//W3C//DTD SVG 1.1//EN" "http://www.w3.org/Graphics/SVG/1.1/DTD/svg11.dtd">
<svg version="1.1" xmlns="http://www.w3.org/2000/svg" xmlns:xlink="http://www.w3.org/1999/xlink" x="0px" y="0px" width="300px"
	 height="300px" viewBox="0 0 300 300" enable-background="new 0 0 300 300" xml:space="preserve">
<g id="Layer_1" display="none">
	<g display="inline">
		<path fill="#FFFFFF" d="M167.474,297.653c55.871,0,101.438-18.548,101.438-41.217c0-22.726-45.567-41.274-101.438-41.274
			S65.978,233.71,65.978,256.436C65.978,279.105,111.603,297.653,167.474,297.653L167.474,297.653z"/>
		<path fill="#FFFFFF" d="M167.474,219.112c51.807,0,93.768,16.258,93.768,36.351s-41.961,36.408-93.768,36.408
			s-93.768-16.315-93.768-36.408S115.667,219.112,167.474,219.112L167.474,219.112z"/>
		<path fill="#F27222" d="M167.474,219.112c51.807,0,93.768,16.315,93.768,36.408s-41.961,36.408-93.768,36.408
			s-93.768-16.315-93.768-36.408S115.667,219.112,167.474,219.112L167.474,219.112z M167.474,220.372
			c50.032,0,90.562,15.513,90.562,34.576c0,19.12-40.53,34.633-90.562,34.633s-90.619-15.513-90.619-34.633
			C76.855,235.885,117.442,220.372,167.474,220.372L167.474,220.372z"/>
		<path fill="#CCCCCC" d="M167.474,276.93c30.168,0,54.784-9.216,54.784-20.494c0-11.335-24.615-20.551-54.784-20.551
			c-30.226,0-54.841,9.217-54.841,20.551C112.633,267.714,137.248,276.93,167.474,276.93L167.474,276.93z"/>
		<path fill="#F27222" d="M268.855,257.295c0.057,0.515,0.057,0.973,0.057,1.431c0,22.784-45.395,41.274-101.438,41.274
			S65.978,281.51,65.978,258.726c0-0.458,0.057-0.916,0.115-1.431c1.832,22.154,46.483,39.843,101.381,39.843
			C222.315,297.138,267.023,279.449,268.855,257.295L268.855,257.295z"/>
		<path fill="#F27222" d="M76.34,147.728c0,0,0,2.519-3.32,2.92c-7.327,0.916-35.148-12.308-41.274,13.796
			c-10.705,45.567,112.773,106.075,111.113,74.19l-0.687-13.166c-0.687-12.651-77.911,0.859-93.023-42.705
			c-10.762-31.199,28.623-7.556,35.149,1.431c0,0,4.637-20.952,4.637-22.612C88.934,159.864,76.34,147.728,76.34,147.728
			L76.34,147.728z"/>
		<path fill="#D15D1C" d="M76.34,147.728c0,0,0,2.519-3.32,2.92c-1.603,0.229-4.236-0.286-7.385-0.859
			c4.122,7.213,7.671,16.315,5.667,23.928l0,0c5.839,3.549,10.991,7.671,12.995,10.476c0,0,4.637-20.952,4.637-22.612
			C88.934,159.864,76.34,147.728,76.34,147.728L76.34,147.728z M85.613,231.535c28.794,16.143,58.047,22.726,57.245,7.098
			l-0.687-13.166c-0.401-7.442-27.306-5.839-52.494-12.136c0.744,3.206,0.515,7.327-1.431,12.594
			C87.502,228.1,86.586,229.932,85.613,231.535L85.613,231.535z"/>
		<path fill="#F27222" d="M262.386,142.976c-4.637,52.551-28.336,128.172-93.252,128.172c-64.401,0-88.157-76.251-92.737-128.172
			c34.004,0.458,67.95,0.916,101.896,1.088L262.386,142.976z"/>
		<path fill="#D15D1C" d="M251.453,197.016c-12.995,39.041-38.068,74.133-82.319,74.133c-43.792,0-68.751-35.263-81.746-74.133
			c2.92,5.152,4.98,9.388,7.442,14.655c14.311,30.741,37.782,55.299,74.304,55.299c38.297,0,62.226-26.276,76.422-58.619
			C247.732,203.313,248.132,203.255,251.453,197.016L251.453,197.016z"/>
		<path fill="#D15D1C" d="M256.09,162.211c-4.465,28.565-18.948,69.553-43.964,89.245c6.755-16.658,14.254-40.988,0.057-70.24
			C230.558,178.869,246.816,170.282,256.09,162.211L256.09,162.211z"/>
		<path fill="#FFFFFF" d="M169.363,101.932c123.878,0,123.936,79.399,0,79.399S45.485,101.932,169.363,101.932L169.363,101.932z"/>
		<path fill="#CCCCCC" d="M169.363,177.896c47.743,0,86.726-16.544,86.726-36.752s-38.984-36.751-86.726-36.751
			c-47.8,0-86.726,16.544-86.726,36.751S121.563,177.896,169.363,177.896L169.363,177.896z"/>
		<path fill="#131416" d="M169.363,177.953c44.651,0,81.059-13.796,81.059-30.683s-36.408-30.683-81.059-30.683
			s-81.059,13.796-81.059,30.683S124.712,177.953,169.363,177.953L169.363,177.953z"/>
		<path fill="#434844" d="M165.871,120.25c-16.487,0-31.599,2.175-43.392,5.896c-38.755,12.021-29.252,21.925-2.805,16.086
			c30.397-6.755,52.551-12.708,79.685,5.496c10.419,7.041,19.692,15.8,32.401,9.903c5.038-2.29,9.331-6.297,9.331-10.819
			C241.091,132.5,203.653,120.25,165.871,120.25L165.871,120.25z"/>
		<path fill="#FFFFFF" d="M169.363,114.812c44.766,0,81.059,13.739,81.059,30.683c0,0.344-0.057,0.63-0.057,0.916
			c-1.202-16.544-37.038-29.825-81.002-29.825c-44.021,0-79.857,13.281-81.059,29.825c0-0.286,0-0.572,0-0.916
			C88.304,128.551,124.597,114.812,169.363,114.812L169.363,114.812z"/>
		<path fill="#D15D1C" d="M48.919,151.678c4.064-0.573,7.499-0.744,8.93,1.832c1.488,2.519-2.29,5.438-6.411,5.953
			c-4.064,0.573-7.671,0.515-8.358-1.603C42.393,155.685,44.798,152.193,48.919,151.678L48.919,151.678z"/>
		<path fill="#D15D1C" d="M39.302,163.527c1.317,0,2.462-0.973,2.462-2.175s-1.145-2.175-2.462-2.175
			c-1.374,0-2.462,0.973-2.462,2.175C36.841,162.554,37.928,163.527,39.302,163.527L39.302,163.527z"/>
		<g>
			<path fill="#F2F2F2" d="M162.175,0c2.301,2.217,10.374,10.835,7.948,22.506c-2.803,13.595-11.922,12.508-12.591,25.727
				c-0.544,11.127,9.203,19.243,13.303,23.51c-3.598-6.317-7.823-15.185-7.404-23.468c0.669-13.261,9.747-12.173,12.591-25.727
				C178.238,11.838,167.027,3.221,162.175,0L162.175,0z"/>
			<path fill="#F2F2F2" d="M138.121,38.025c2.05,1.213,9.287,6.149,10.165,14.265c0.962,9.454-5.396,9.747-3.012,18.741
				c2.008,7.53,10.291,11.88,13.93,14.265c-3.765-3.807-8.45-9.329-9.956-14.934c-2.385-8.994,3.974-9.245,2.97-18.699
				C151.466,44.217,142.095,39.657,138.121,38.025L138.121,38.025z"/>
			<path fill="#F2F2F2" d="M198.485,19.745c-2.593,1.799-11.755,9.078-11.629,20.247c0.084,13.01,8.827,12.884,6.944,25.309
				c-1.548,10.458-12.173,17.067-16.775,20.665c4.518-5.522,10.123-13.428,11.253-21.209c1.882-12.466-6.819-12.34-6.944-25.308
				C181.25,29.241,193.34,22.255,198.485,19.745L198.485,19.745z"/>
			<path fill="#F2F2F2" d="M147.868,86.676c0,0-8.492-4.476-10.123-9.956c-1.631-5.522-0.837-10.333-0.837-10.333
				s-5.187,9.621-2.719,14.767C136.657,86.3,147.868,86.676,147.868,86.676L147.868,86.676z"/>
			<path fill="#F2F2F2" d="M190.077,82.702c0,0,8.492-4.434,10.123-9.956c1.673-5.48,0.837-10.291,0.837-10.291
				s5.187,9.621,2.719,14.767C201.33,82.367,190.077,82.702,190.077,82.702L190.077,82.702z"/>
		</g>
	</g>
</g>
<g id="Layer_2">
	<g>
		<path fill="#ED332A" d="M188.839,297.006H101.7c1.212-11.558,2.493-25.854,3.268-40.506c1.707-32.269-2.464-69.818,0-73.033
			c2.676-3.491,10.415-7.433,23.292-9.418c11.525-1.775,22.461,0,22.461,0s12.111-0.703,24.483,2.553
			c11.583,3.052,16.728,6.885,20.38,10.636c3.711,3.819-3.377,44.291-5.851,74.234C188.734,273.555,188.616,286.147,188.839,297.006
			z"/>
		<path fill="#FAB587" d="M151.734,190.137c0,0,24.652-10.014,20.564-12.913c-5.42-3.847-10.156-12.26-7.779-30.981
			c3.397-26.73-22.997-28.729-24.258-4.748c0.648,23.686-4.355,31.278-9.094,34.014
			C128.201,177.224,151.734,190.137,151.734,190.137z"/>
		<path fill="#D4C3B8" d="M164.572,163.562c-5.581-0.131-18.092-2.435-22.576-6.51c-4.114-3.741,0.458-5.637-1.693-10.459
			c0.013-1.621,0.006-3.297-0.042-5.098c1.26-23.981,27.655-21.982,24.258,4.748C163.606,153.43,163.748,159.087,164.572,163.562z"
			/>
		<path fill="#FFFFFF" d="M134.928,170.674c0,0,5.279,3.658,11.585,6.652c1.802,0.852,5.22,10.199,5.22,10.199
			s4.832-9.396,6.196-9.905c6.893-2.568,10.056-6.947,10.056-6.947l7.218,5.928c0,0-9.059,9.406-17.405,13.167
			c-2.079,0.942-4.121,26.612-5.961,26.612c-2.2,0-4.337-25.588-6.37-26.432c-9.83-4.056-17.209-15.9-17.209-15.9L134.928,170.674z"
			/>
		<path fill="#FAB587" d="M94.913,78.802c1.976-0.327,6.382,0,8.409,2.592c-0.176-6.826-2.497-17.204-2.615-24.806
			c-0.397-26.457,27.972-39.864,52.348-37.982c24.377-1.882,52.74,11.525,52.343,37.982c-0.116,7.602-2.437,17.979-2.612,24.806
			c2.031-2.592,6.431-2.919,8.41-2.592c6.327,1.054,9.539,8.223,6.96,17.963c-4.603,17.4-17.354,11.954-17.543,11.888
			c-1.047,10.294-14.079,48.736-47.357,50.388c-0.067,0.005-0.133,0-0.201,0c-0.069,0-0.132,0.005-0.201,0
			c-33.279-1.651-46.314-40.094-47.357-50.388c-0.189,0.067-12.942,5.512-17.544-11.888C85.375,87.025,88.583,79.856,94.913,78.802z
			"/>
		<path fill="#542809" d="M107.041,97.828c-8.215-3.965-1.605-19.161-12.876-18.856c-1.537-5.729-3.168-33.533,4.085-41.363
			c-10.585-7.83-3.773-24.94,0.869-26.825c3.187,18.851,64.579-13.248,85.551-6.959c5.273,1.583,7.903,9.083,9.03,12.613
			c9.519-3.481,13.522,0.993,16.337,11.891c1.59,6.16,9.01,23.2,1.159,50.473c-12.468-1.033-5.204,14.579-14.502,19.703
			c6.536-14.144-14.929-21.894-1.594-43.497c-16.518,12.615-38.666,13.827-53.781,8.554c18.984-2.458,26.016-16.53,26.016-16.53
			s-7.081,10.45-19.46,8.227c-15.181-2.732-13.71-10.838-27.88-2.98c-11.487,6.372-10.295,18.387-4.495,26.523
			C102.759,86.184,107.041,97.828,107.041,97.828z"/>
		<g>
			<path fill="#542809" d="M168.003,76.348c0.598-0.351,2.787-1.42,5.268-1.332c8.5,0.29,11.398,7.578,11.398,7.578
				s-3.081-3.789-10.927-3.789c-2.9,0-5.104,1.185-5.968,1.163C166.911,79.945,167.409,76.707,168.003,76.348z"/>
			<path fill="#542809" d="M141.098,76.348c-0.595-0.351-2.787-1.42-5.267-1.332c-8.499,0.29-11.4,7.578-11.4,7.578
				s3.08-3.789,10.928-3.789c2.903,0,5.101,1.185,5.97,1.163C142.195,79.945,141.695,76.707,141.098,76.348z"/>
			<path fill="#FFFFFF" d="M140.824,122.788c0,0,2.429,8.945,14.272,8.945c11.592,0,14.268-8.14,14.268-8.14
				s-5.841,1.507-13.756,1.507C147.702,125.1,140.824,122.788,140.824,122.788z"/>
			<g>
				<path fill="#D59168" d="M172.264,121.749c0,0-0.089,0.109-0.256,0.314c-0.179,0.182-0.5,0.461-0.942,0.693
					c-0.881,0.495-2.246,0.978-3.914,1.348c-0.834,0.181-1.743,0.36-2.71,0.492c-0.966,0.136-1.987,0.27-3.047,0.344
					c-1.059,0.085-2.155,0.164-3.269,0.188c-1.114,0.031-2.246,0.036-3.378,0.029c-1.132-0.029-2.263-0.078-3.376-0.146
					c-1.113-0.063-2.205-0.183-3.261-0.305c-1.057-0.115-2.073-0.282-3.034-0.46c-0.962-0.168-1.864-0.384-2.689-0.605
					c-0.413-0.113-0.807-0.233-1.179-0.347c-0.369-0.137-0.719-0.256-1.044-0.387c-0.648-0.265-1.197-0.543-1.617-0.827
					c-0.428-0.269-0.709-0.568-0.873-0.776c-0.141-0.226-0.217-0.347-0.217-0.347s0.098,0.1,0.28,0.289
					c0.198,0.166,0.519,0.37,0.961,0.558c0.438,0.194,1.004,0.358,1.652,0.527c0.655,0.155,1.404,0.292,2.224,0.422
					c0.824,0.118,1.718,0.227,2.669,0.324c0.95,0.097,1.955,0.168,2.995,0.242c1.04,0.08,2.119,0.107,3.213,0.167
					c1.095,0.049,2.209,0.076,3.322,0.091c1.113,0.025,2.227,0.038,3.324,0.025c1.096-0.017,2.176-0.007,3.218-0.049
					c2.086-0.061,4.03-0.172,5.687-0.341c0.825-0.1,1.582-0.194,2.245-0.319c0.659-0.131,1.235-0.26,1.687-0.422
					c0.461-0.156,0.786-0.319,1.01-0.468C172.154,121.838,172.264,121.749,172.264,121.749z"/>
			</g>
			<g>
				<path fill="#D59168" d="M159.558,133.836c-0.018,0.002,0.031,0.209-0.062,0.592c-0.044,0.198-0.126,0.425-0.271,0.664
					c-0.136,0.247-0.337,0.5-0.593,0.733c-0.503,0.487-1.237,0.86-2.048,1.097c-0.409,0.101-0.835,0.212-1.275,0.237
					c-0.439,0.039-0.886,0.042-1.332,0.018c-0.889-0.081-1.773-0.28-2.542-0.646c-0.773-0.344-1.427-0.856-1.853-1.401
					c-0.439-0.537-0.621-1.105-0.668-1.485c-0.041-0.188-0.02-0.344-0.021-0.445c0.003-0.1,0.004-0.153,0.004-0.153
					s0.09,0.201,0.29,0.495c0.192,0.296,0.519,0.663,0.981,0.982c0.466,0.316,1.054,0.601,1.733,0.8
					c0.333,0.116,0.7,0.167,1.061,0.253c0.368,0.065,0.744,0.12,1.125,0.135c0.757,0.077,1.522,0.033,2.223-0.05
					c0.345-0.065,0.687-0.112,0.993-0.206c0.307-0.092,0.593-0.193,0.844-0.316c0.246-0.127,0.473-0.257,0.65-0.406
					c0.177-0.145,0.336-0.294,0.435-0.426C159.459,134.042,159.551,133.825,159.558,133.836z"/>
			</g>
			<path fill="#542809" d="M131.586,94.455c0,1.865,1.516,3.377,3.377,3.377l0,0c1.863,0,3.375-1.512,3.375-3.377v-4.9
				c0-1.863-1.511-3.371-3.375-3.371l0,0c-1.861,0-3.377,1.509-3.377,3.371V94.455z"/>
			<path fill="#542809" d="M170.592,94.455c0,1.865,1.514,3.377,3.377,3.377l0,0c1.861,0,3.373-1.512,3.373-3.377v-4.9
				c0-1.863-1.512-3.371-3.373-3.371l0,0c-1.863,0-3.377,1.509-3.377,3.371V94.455z"/>
			<path fill="#FFFFFF" d="M171.304,88.765c0,0.734,0.588,1.327,1.321,1.327c0.731,0,1.325-0.593,1.325-1.327
				c0-0.73-0.594-1.322-1.325-1.322C171.892,87.443,171.304,88.035,171.304,88.765z"/>
			<path fill="#FFFFFF" d="M134.89,88.765c0,0.734,0.593,1.327,1.321,1.327c0.733,0,1.326-0.593,1.326-1.327
				c0-0.73-0.593-1.322-1.326-1.322C135.483,87.443,134.89,88.035,134.89,88.765z"/>
			<circle fill="#FFFFFF" cx="173.225" cy="91.288" r="0.725"/>
			<circle fill="#FFFFFF" cx="134.164" cy="91.288" r="0.726"/>
			<path fill="#E4C9C1" d="M155.468,103.728c-4.039,0-7.558,0.967-9.558,2.418c0.258-2.717,4.419-4.881,9.558-4.881
				c5.141,0,9.3,2.164,9.561,4.878C163.026,104.695,159.508,103.728,155.468,103.728z"/>
			<path fill="#E4C9C1" d="M205.795,97.743c-0.799,1.337-0.775,2.93-0.096,4.241c-1.972-1.299-2.756-3.635-1.74-5.341
				c1.018-1.699,3.456-2.114,5.529-0.992C208.016,95.672,206.597,96.406,205.795,97.743z"/>
			<path fill="#E4C9C1" d="M98.904,97.743c0.798,1.337,0.773,2.93,0.094,4.241c1.972-1.299,2.758-3.635,1.739-5.341
				c-1.017-1.699-3.454-2.114-5.527-0.992C96.687,95.672,98.1,96.406,98.904,97.743z"/>
			<path fill="#E4C9C1" d="M94.136,84.442c-7.079,1.388-1.982,14.762-1.982,14.762s-6.631-15.659,1.982-17.227
				c5.058-0.918,7.049,9.29,7.049,9.29S98.1,83.667,94.136,84.442z"/>
			<path fill="#E4C9C1" d="M211.152,84.442c7.081,1.388,1.978,14.762,1.978,14.762s6.632-15.659-1.978-17.227
				c-5.059-0.918-7.047,9.29-7.047,9.29S207.185,83.667,211.152,84.442z"/>
		</g>
		<path fill="#ED332A" d="M210.134,297.006c-0.358-14.289-1.091-30.338-2.609-35.027c-2.898-8.993-16.682-30.927-16.682-30.927
			s-7.992-51.63,1.33-46.872c9.322,4.761,32.164,61.663,34.533,71.49c1.267,5.264,0.588,24.545-0.321,41.336H210.134z"/>
		<path fill="#ED332A" d="M91.338,259.586c2.901-8.993,16.686-30.927,16.686-30.927s7.994-51.629-1.333-46.871
			c-9.32,4.761-31.017,62.728-33.385,72.558C70.935,264.177,88.435,268.577,91.338,259.586z"/>
		<g>
			<g>
				<polygon fill="#00738B" points="101.586,237.492 111.232,233.726 89.413,177.875 79.769,181.638 				"/>
				<polygon fill="#0088A6" points="106.407,235.607 111.232,233.726 89.413,177.875 84.597,179.756 				"/>
				<polygon fill="#00A2C5" points="86.573,190.766 89.997,189.429 89.413,177.875 79.769,181.638 				"/>
				<polygon fill="#00A2C5" points="104.424,224.598 100.998,225.938 101.586,237.492 111.232,233.726 				"/>
				<polygon fill="#56B8D5" points="111.232,233.726 136.846,223.721 115.035,167.869 89.413,177.875 				"/>
				<polygon fill="#FFFFFF" points="96.861,186.748 116.337,179.144 115.35,176.606 95.866,184.215 				"/>
				<polygon fill="#FFFFFF" points="99.486,196.42 125.12,198.677 124.37,196.745 98.729,194.49 				"/>
				<polygon fill="#FFFFFF" points="103.891,207.703 129.529,209.959 128.778,208.028 103.137,205.771 				"/>
				<polygon fill="#FFFFFF" points="102.306,203.644 127.945,205.901 127.19,203.972 101.551,201.715 				"/>
				<polygon fill="#FFFFFF" points="100.721,199.588 126.362,201.845 125.606,199.913 99.967,197.662 				"/>
				
					<rect x="111.403" y="227.45" transform="matrix(0.9317 -0.3632 0.3632 0.9317 -75.455 56.8253)" fill="#FFFFFF" width="3.988" height="3.264"/>
			</g>
			<g>
				
					<rect x="108.648" y="174.165" transform="matrix(-0.9962 0.0868 -0.0868 -0.9962 244.9268 397.6452)" fill="#00738B" width="10.349" height="59.959"/>
				
					<rect x="113.813" y="173.941" transform="matrix(-0.9962 0.0867 -0.0867 -0.9962 250.0391 396.9828)" fill="#0088A6" width="5.174" height="59.959"/>
				<polygon fill="#00A2C5" points="110.022,185.396 113.682,185.077 116.382,173.829 106.067,174.722 				"/>
				<polygon fill="#00A2C5" points="117.618,222.889 113.958,223.208 111.264,234.46 121.574,233.562 				"/>
				<polygon fill="#56B8D5" points="121.574,233.562 148.976,231.181 143.778,171.443 116.382,173.829 				"/>
				
					<rect x="120.868" y="180.818" transform="matrix(-0.9962 0.0865 -0.0865 -0.9962 277.9161 352.311)" fill="#FFFFFF" width="20.908" height="2.721"/>
				<polygon fill="#FFFFFF" points="120.815,194.461 144.783,203.848 144.604,201.787 120.641,192.397 				"/>
				<polygon fill="#FFFFFF" points="121.866,206.522 145.83,215.911 145.654,213.846 121.692,204.459 				"/>
				<polygon fill="#FFFFFF" points="121.487,202.183 145.455,211.573 145.274,209.511 121.309,200.125 				"/>
				<polygon fill="#FFFFFF" points="121.111,197.848 145.078,207.235 144.898,205.175 120.931,195.785 				"/>
				
					<rect x="122.97" y="228.081" transform="matrix(0.9962 -0.0871 0.0871 0.9962 -19.538 11.7604)" fill="#FFFFFF" width="3.986" height="3.269"/>
			</g>
			<g>
				<rect x="113.455" y="210.51" fill="#D17EB3" width="16.268" height="8.188"/>
				<path fill="#D18EBD" d="M117.44,167.71h7.859c0,0,4.424,2.98,3.551,6.753c0.881,2.221,2.318,4.939,2.318,8.112
					c0,9.421,0,34.675,0,34.675h-19.156c0,0,0-25.131,0-34.675c0-3.095,1.387-5.753,2.12-7.924
					C113.526,170.961,117.44,167.71,117.44,167.71z"/>
				<rect x="112.86" y="183.359" fill="#FFFFFF" width="12.14" height="25.527"/>
				<path fill="#B24868" d="M122.862,161.018c0-0.942-2.919-1.081-2.919,0c0,0.461,0,2.27,0,2.27h2.919
					C122.862,163.288,122.862,161.658,122.862,161.018z"/>
				<path fill="#98395C" d="M123.874,162.955c0-1.203-4.944-1.386-4.944,0c0,0.585,0,2.896,0,2.896h4.944
					C123.874,165.851,123.874,163.768,123.874,162.955z"/>
				<path fill="#EDD9D0" d="M121.556,174.463c0.873-3.773-3.551-6.753-3.551-6.753h7.293c0,0,4.424,2.98,3.551,6.753
					c0.881,2.221,2.318,4.939,2.318,8.112c0,9.421,0,34.675,0,34.675h-7.293c0,0,0-25.254,0-34.675
					C123.874,179.403,122.441,176.684,121.556,174.463z"/>
				<path fill="#B24868" d="M125.604,164.62c0-0.864-8.4-1.013-8.4,0c0,0.629,0,3.09,0,3.09h8.4
					C125.604,167.71,125.604,165.49,125.604,164.62z"/>
				<path fill="#E3CED8" d="M123.088,163.984c1.404,0.106,2.516,0.322,2.516,0.636c0,0.87,0,3.09,0,3.09h-5.373
					C122.797,167.005,124.143,165.299,123.088,163.984z"/>
				<path fill="#BBC6CD" d="M124.404,167.098c0,0.069,0.106,0.123,0.239,0.123l0,0c0.13,0,0.237-0.054,0.237-0.123v-2.412
					c0-0.069-0.107-0.123-0.237-0.123l0,0c-0.133,0-0.239,0.053-0.239,0.123V167.098z"/>
				<path fill="#BBC6CD" d="M122.915,167.098c0,0.069,0.107,0.123,0.241,0.123l0,0c0.131,0,0.24-0.054,0.24-0.123v-2.412
					c0-0.069-0.108-0.123-0.24-0.123l0,0c-0.134,0-0.241,0.053-0.241,0.123V167.098z"/>
				<path fill="#BBC6CD" d="M121.432,167.098c0,0.069,0.099,0.123,0.238,0.123l0,0c0.127,0,0.236-0.054,0.236-0.123v-2.412
					c0-0.069-0.109-0.123-0.236-0.123l0,0c-0.139,0-0.238,0.053-0.238,0.123V167.098z"/>
				<path fill="#BBC6CD" d="M119.943,167.098c0,0.069,0.104,0.123,0.238,0.123l0,0c0.127,0,0.237-0.054,0.237-0.123v-2.412
					c0-0.069-0.111-0.123-0.237-0.123l0,0c-0.135,0-0.238,0.053-0.238,0.123V167.098z"/>
				<path fill="#BBC6CD" d="M118.453,167.098c0,0.069,0.107,0.123,0.239,0.123l0,0c0.128,0,0.237-0.054,0.237-0.123v-2.412
					c0-0.069-0.109-0.123-0.237-0.123l0,0c-0.132,0-0.239,0.053-0.239,0.123V167.098z"/>
			</g>
			<g>
				<polygon fill="#007EA1" points="145.834,216.092 144.195,223.16 132.256,220.398 133.897,213.326 				"/>
				<polygon fill="#007EA1" points="152.036,175.998 155.205,180.456 141.141,177.199 145.32,174.441 				"/>
				
					<rect x="136.23" y="178.286" transform="matrix(-0.9742 -0.2258 0.2258 -0.9742 238.2086 425.726)" fill="#019BC2" width="14.433" height="41.914"/>
				
					<rect x="136.793" y="186.956" transform="matrix(0.9742 0.2255 -0.2255 0.9742 47.9844 -26.9498)" fill="#FFFFFF" width="10.337" height="19.23"/>
				<path fill="#69BAC2" d="M153.787,170.444c0.37-1.591-7.168-3.615-7.599-1.761c-0.268,1.15-1.31,5.656-1.31,5.656l7.601,1.76
					C152.479,176.099,153.421,172.035,153.787,170.444z"/>
				<path fill="#5CA5AC" d="M151.784,168.752c1.228,0.486,2.136,1.118,2.003,1.692c-0.366,1.591-1.308,5.655-1.308,5.655
					l-4.856-1.121C150.241,174.23,152.181,171.383,151.784,168.752z"/>
				<path fill="#BBC6CD" d="M151.565,175.108c-0.028,0.116,0.048,0.236,0.168,0.265l0,0c0.117,0.026,0.24-0.049,0.268-0.167
					l0.977-4.241c0.031-0.118-0.042-0.237-0.161-0.265l0,0c-0.12-0.026-0.239,0.045-0.265,0.167L151.565,175.108z"/>
				<path fill="#BBC6CD" d="M150.22,174.793c-0.027,0.121,0.049,0.239,0.165,0.266l0,0c0.12,0.027,0.241-0.048,0.265-0.167
					l0.985-4.24c0.026-0.119-0.045-0.234-0.163-0.264l0,0c-0.122-0.028-0.238,0.046-0.265,0.166L150.22,174.793z"/>
				<path fill="#BBC6CD" d="M148.874,174.482c-0.025,0.118,0.048,0.237,0.166,0.265l0,0c0.123,0.026,0.24-0.048,0.265-0.163
					l0.983-4.241c0.028-0.123-0.047-0.239-0.165-0.265l0,0c-0.122-0.026-0.235,0.045-0.261,0.163L148.874,174.482z"/>
				<path fill="#BBC6CD" d="M147.529,174.17c-0.028,0.122,0.047,0.236,0.164,0.264l0,0c0.12,0.028,0.241-0.044,0.267-0.162
					l0.979-4.242c0.029-0.122-0.045-0.238-0.163-0.266l0,0c-0.12-0.026-0.241,0.045-0.266,0.165L147.529,174.17z"/>
				<path fill="#BBC6CD" d="M146.184,173.857c-0.027,0.121,0.047,0.237,0.166,0.265l0,0c0.119,0.026,0.233-0.045,0.266-0.164
					l0.98-4.241c0.03-0.12-0.047-0.238-0.167-0.265l0,0c-0.118-0.026-0.237,0.047-0.262,0.163L146.184,173.857z"/>
				
					<rect x="143.313" y="179.098" transform="matrix(-0.9743 -0.2253 0.2253 -0.9743 245.0391 428.0688)" fill="#C3D2DB" width="7.257" height="41.914"/>
			</g>
			<g>
				<polygon fill="#007EA1" points="145.489,219.399 146.75,226.542 134.685,228.675 133.418,221.524 				"/>
				<polygon fill="#007EA1" points="135.496,180.075 140.158,182.935 125.942,185.447 128.711,181.275 				"/>
				
					<rect x="129.479" y="183.869" transform="matrix(-0.9848 0.1737 -0.1737 -0.9848 306.8915 382.7959)" fill="#019BC2" width="14.433" height="41.915"/>
				
					<rect x="129.114" y="193.334" transform="matrix(0.9848 -0.1739 0.1739 0.9848 -33.2535 26.4507)" fill="#FFFFFF" width="10.342" height="19.232"/>
				<path fill="#69BAC2" d="M134.936,174.286c-0.284-1.613-8.018-0.523-7.682,1.352c0.201,1.163,1.006,5.716,1.006,5.716
					l7.684-1.357C135.944,179.997,135.216,175.887,134.936,174.286z"/>
				<path fill="#5CA5AC" d="M132.429,173.51c1.316-0.036,2.399,0.19,2.507,0.775c0.28,1.601,1.008,5.711,1.008,5.711l-4.91,0.867
					C133.153,179.152,133.819,175.772,132.429,173.51z"/>
				<path fill="#BBC6CD" d="M134.713,179.436c0.023,0.122,0.139,0.205,0.26,0.183l0,0c0.118-0.023,0.198-0.135,0.18-0.258
					l-0.757-4.289c-0.021-0.118-0.136-0.196-0.256-0.176l0,0c-0.123,0.02-0.203,0.136-0.18,0.255L134.713,179.436z"/>
				<path fill="#BBC6CD" d="M133.353,179.681c0.027,0.119,0.138,0.198,0.256,0.177l0,0c0.121-0.022,0.2-0.137,0.18-0.26
					l-0.758-4.284c-0.022-0.12-0.133-0.201-0.255-0.181l0,0c-0.121,0.022-0.203,0.136-0.182,0.258L133.353,179.681z"/>
				<path fill="#BBC6CD" d="M131.995,179.919c0.021,0.123,0.133,0.201,0.253,0.176l0,0c0.123-0.02,0.203-0.131,0.182-0.252
					l-0.758-4.288c-0.02-0.123-0.137-0.201-0.255-0.181l0,0c-0.12,0.025-0.201,0.137-0.18,0.255L131.995,179.919z"/>
				<path fill="#BBC6CD" d="M130.634,180.156c0.02,0.123,0.135,0.204,0.254,0.18l0,0c0.122-0.016,0.203-0.132,0.18-0.255
					l-0.758-4.288c-0.022-0.118-0.132-0.198-0.254-0.176l0,0c-0.119,0.02-0.2,0.136-0.183,0.258L130.634,180.156z"/>
				<path fill="#BBC6CD" d="M129.275,180.4c0.02,0.12,0.135,0.198,0.255,0.178l0,0c0.117-0.02,0.198-0.137,0.178-0.255l-0.758-4.284
					c-0.02-0.123-0.134-0.205-0.252-0.181l0,0c-0.125,0.02-0.202,0.131-0.182,0.254L129.275,180.4z"/>
				
					<rect x="136.599" y="183.248" transform="matrix(-0.9847 0.1743 -0.1743 -0.9847 313.8958 380.8509)" fill="#C3D2DB" width="7.259" height="41.915"/>
			</g>
			<polygon fill="#F8A35A" points="95.955,297.006 87.482,204.439 92.564,207.453 96.179,203.644 101.678,206.622 105.914,202.755 
				110.377,205.822 114.404,201.976 119.901,204.949 124.552,201.048 129.426,204.079 134.91,200.098 139.368,203.17 
				144.024,199.261 148.895,202.299 152.171,198.519 161.186,297.006 			"/>
			<path fill="#E79144" d="M115.598,297.006c15.439-13.011,26.878-34.038,29.023-49.086c2.188-15.331-0.508-32.014-7.74-46.463
				l2.487,1.713l4.657-3.909l4.87,3.038l3.277-3.78l9.015,98.487H115.598z"/>
		</g>
		<g>
			<g>
				<path fill="#FAB587" d="M146.843,225.751c-1.63,0.778-0.829,3.408-2.981,8.192c-1.898,4.204-3.33,6.512-6.337,8.011
					c-3.004,1.497-4.287,6.573-6.414,8.123c-2.127,1.554-13.1,2.903-13.1,2.903l1.798,8.944l14.816-3.715
					c0,0,14.849,0.745,21.047-1.767c0.277-1.621-3.004-12.963-3.004-12.963l-0.727-1.604l-4.164-0.428c0,0-1.27-4.174,0.301-5.602
					C151.413,232.802,148.467,224.971,146.843,225.751z"/>
			</g>
			<path fill="#FAB587" d="M158.316,251.705c1.906-0.084,3.318,2.263,0.936,3.239c-2.435,0.995-3.936,1.631-3.936,1.631
				l-2.305-3.977C153.012,252.598,156.415,251.788,158.316,251.705z"/>
			<path fill="#FAB587" d="M159.472,247.767c2.023-0.083,2.619,3.615-0.124,4.192c-2.744,0.571-6.489,2.026-6.489,2.026
				l-0.537-5.494C152.323,248.491,157.444,247.849,159.472,247.767z"/>
			<path fill="#FAB587" d="M159.028,244.047c2.025-0.082,3.234,4.148,0.492,4.725c-2.744,0.573-7.355,1.543-7.355,1.543
				l-0.532-5.498C151.632,244.817,156.996,244.125,159.028,244.047z"/>
			<path fill="#FAB587" d="M156.057,241.448c2.008-0.269,3.22,3.72,0.525,4.471c-2.691,0.747-7.61,2.552-7.61,2.552l0.221-6.878
				C149.192,241.593,154.049,241.711,156.057,241.448z"/>
		</g>
		<path fill="#ED332A" d="M133.263,260.059l-2.353-13.012c0,0-39.62-0.856-49.047-0.217c-11.891,0.806-12.364,22.591-1.267,22.432
			C90.705,269.114,133.263,260.059,133.263,260.059z"/>
	</g>
</g>
</svg>
