<?xml version="1.0" encoding="utf-8"?>
<!-- Generator: Adobe Illustrator 17.0.0, SVG Export Plug-In . SVG Version: 6.00 Build 0)  -->
<!DOCTYPE svg PUBLIC "-//W3C//DTD SVG 1.1//EN" "http://www.w3.org/Graphics/SVG/1.1/DTD/svg11.dtd">
<svg version="1.1" id="Capa_1" xmlns="http://www.w3.org/2000/svg" xmlns:xlink="http://www.w3.org/1999/xlink" x="0px" y="0px"
	 width="64px" height="64px" viewBox="468 468 64 64" enable-background="new 468 468 64 64" xml:space="preserve">
<g>
	<path d="M482.667,532c-4.852,0-8.8-3.947-8.8-8.799V500.27c0-2.084,0.746-4.106,2.1-5.693c1.279-1.499,3.025-2.53,4.941-2.921
		v-6.324c0-9.557,8.565-17.332,19.092-17.332c10.527,0,19.092,7.775,19.092,17.332v6.324c1.916,0.391,3.662,1.422,4.941,2.921
		c1.354,1.587,2.1,3.609,2.1,5.692V523.2c0,4.852-3.948,8.8-8.8,8.8H482.667z M482.667,494.45c-3.209,0-5.819,2.61-5.819,5.819
		V523.2c0,3.209,2.61,5.819,5.819,5.819h34.666c3.209,0,5.819-2.61,5.819-5.819v-22.932c0-3.209-2.61-5.819-5.819-5.819H482.667z
		 M516.111,491.469v-6.137c0-7.913-7.228-14.351-16.111-14.351s-16.111,6.438-16.111,14.351v6.137H516.111z"/>
	<path d="M518.775,491.918v-6.587c0-9.382-8.423-17.015-18.775-17.015s-18.775,7.633-18.775,17.015v6.587
		c-3.991,0.688-7.041,4.166-7.041,8.351v22.932c0,4.676,3.806,8.482,8.483,8.482h34.666c4.677,0,8.483-3.805,8.483-8.483v-22.932
		C525.816,496.084,522.766,492.606,518.775,491.918z M483.572,485.332c0-8.089,7.369-14.668,16.428-14.668
		s16.428,6.58,16.428,14.668v6.454h-32.857V485.332z M523.469,523.2c0,3.383-2.753,6.136-6.136,6.136h-34.666
		c-3.383,0-6.136-2.753-6.136-6.136v-22.932c0-3.383,2.753-6.136,6.136-6.136h34.666c3.383,0,6.136,2.753,6.136,6.136V523.2z"/>
</g>
</svg>
