<?xml version="1.0" encoding="utf-8"?>
<!-- Generator: Adobe Illustrator 17.0.0, SVG Export Plug-In . SVG Version: 6.00 Build 0)  -->
<!DOCTYPE svg PUBLIC "-//W3C//DTD SVG 1.1//EN" "http://www.w3.org/Graphics/SVG/1.1/DTD/svg11.dtd">
<svg version="1.1" id="Layer_1" xmlns="http://www.w3.org/2000/svg" xmlns:xlink="http://www.w3.org/1999/xlink" x="0px" y="0px"
	 width="300px" height="300px" viewBox="0 0 300 300" enable-background="new 0 0 300 300" xml:space="preserve">
<g display="none">
	<path display="inline" fill="#FFFFFF" d="M167.474,297.653c55.871,0,101.438-18.548,101.438-41.217
		c0-22.726-45.567-41.274-101.438-41.274S65.978,233.71,65.978,256.436C65.978,279.105,111.603,297.653,167.474,297.653
		L167.474,297.653z"/>
	<path display="inline" fill="#FFFFFF" d="M167.474,219.112c51.807,0,93.768,16.258,93.768,36.351s-41.961,36.408-93.768,36.408
		s-93.768-16.315-93.768-36.408S115.667,219.112,167.474,219.112L167.474,219.112z"/>
	<path display="inline" fill="#F27222" d="M167.474,219.112c51.807,0,93.768,16.315,93.768,36.408s-41.961,36.408-93.768,36.408
		s-93.768-16.315-93.768-36.408S115.667,219.112,167.474,219.112L167.474,219.112z M167.474,220.372
		c50.032,0,90.562,15.513,90.562,34.576c0,19.12-40.53,34.633-90.562,34.633s-90.619-15.513-90.619-34.633
		C76.855,235.885,117.442,220.372,167.474,220.372L167.474,220.372z"/>
	<path display="inline" fill="#CCCCCC" d="M167.474,276.93c30.168,0,54.784-9.216,54.784-20.494
		c0-11.335-24.615-20.551-54.784-20.551c-30.226,0-54.841,9.217-54.841,20.551C112.633,267.714,137.248,276.93,167.474,276.93
		L167.474,276.93z"/>
	<path display="inline" fill="#F27222" d="M268.855,257.295c0.057,0.515,0.057,0.973,0.057,1.431
		c0,22.784-45.395,41.274-101.438,41.274S65.978,281.51,65.978,258.726c0-0.458,0.057-0.916,0.115-1.431
		c1.832,22.154,46.483,39.843,101.381,39.843C222.315,297.138,267.023,279.449,268.855,257.295L268.855,257.295z"/>
	<path display="inline" fill="#F27222" d="M76.34,147.728c0,0,0,2.519-3.32,2.92c-7.327,0.916-35.148-12.308-41.274,13.796
		c-10.705,45.567,112.773,106.075,111.113,74.19l-0.687-13.166c-0.687-12.651-77.911,0.859-93.023-42.705
		c-10.762-31.199,28.623-7.556,35.149,1.431c0,0,4.637-20.952,4.637-22.612C88.934,159.864,76.34,147.728,76.34,147.728
		L76.34,147.728z"/>
	<path display="inline" fill="#D15D1C" d="M76.34,147.728c0,0,0,2.519-3.32,2.92c-1.603,0.229-4.236-0.286-7.385-0.859
		c4.122,7.213,7.671,16.315,5.667,23.928l0,0c5.839,3.549,10.991,7.671,12.995,10.476c0,0,4.637-20.952,4.637-22.612
		C88.934,159.864,76.34,147.728,76.34,147.728L76.34,147.728z M85.613,231.535c28.794,16.143,58.047,22.726,57.245,7.098
		l-0.687-13.166c-0.401-7.442-27.306-5.839-52.494-12.136c0.744,3.206,0.515,7.327-1.431,12.594
		C87.502,228.1,86.586,229.932,85.613,231.535L85.613,231.535z"/>
	<path display="inline" fill="#F27222" d="M262.386,142.976c-4.637,52.551-28.336,128.172-93.252,128.172
		c-64.401,0-88.157-76.251-92.737-128.172c34.004,0.458,67.95,0.916,101.896,1.088L262.386,142.976z"/>
	<path display="inline" fill="#D15D1C" d="M251.453,197.016c-12.995,39.041-38.068,74.133-82.319,74.133
		c-43.792,0-68.751-35.263-81.746-74.133c2.92,5.152,4.98,9.388,7.442,14.655c14.311,30.741,37.782,55.299,74.304,55.299
		c38.297,0,62.226-26.276,76.422-58.619C247.732,203.313,248.132,203.255,251.453,197.016L251.453,197.016z"/>
	<path display="inline" fill="#D15D1C" d="M256.09,162.211c-4.465,28.565-18.948,69.553-43.964,89.245
		c6.755-16.658,14.254-40.988,0.057-70.24C230.558,178.869,246.816,170.282,256.09,162.211L256.09,162.211z"/>
	<path display="inline" fill="#FFFFFF" d="M169.363,101.932c123.878,0,123.936,79.399,0,79.399S45.485,101.932,169.363,101.932
		L169.363,101.932z"/>
	<path display="inline" fill="#CCCCCC" d="M169.363,177.896c47.743,0,86.726-16.544,86.726-36.752s-38.984-36.751-86.726-36.751
		c-47.8,0-86.726,16.544-86.726,36.751S121.563,177.896,169.363,177.896L169.363,177.896z"/>
	<path display="inline" fill="#131416" d="M169.363,177.953c44.651,0,81.059-13.796,81.059-30.683s-36.408-30.683-81.059-30.683
		s-81.059,13.796-81.059,30.683S124.712,177.953,169.363,177.953L169.363,177.953z"/>
	<path display="inline" fill="#434844" d="M165.871,120.25c-16.487,0-31.599,2.175-43.392,5.896
		c-38.755,12.021-29.252,21.925-2.805,16.086c30.397-6.755,52.551-12.708,79.685,5.496c10.419,7.041,19.692,15.8,32.401,9.903
		c5.038-2.29,9.331-6.297,9.331-10.819C241.091,132.5,203.653,120.25,165.871,120.25L165.871,120.25z"/>
	<path display="inline" fill="#FFFFFF" d="M169.363,114.812c44.766,0,81.059,13.739,81.059,30.683c0,0.344-0.057,0.63-0.057,0.916
		c-1.202-16.544-37.038-29.825-81.002-29.825c-44.021,0-79.857,13.281-81.059,29.825c0-0.286,0-0.572,0-0.916
		C88.304,128.551,124.597,114.812,169.363,114.812L169.363,114.812z"/>
	<path display="inline" fill="#D15D1C" d="M48.919,151.678c4.064-0.573,7.499-0.744,8.93,1.832c1.488,2.519-2.29,5.438-6.411,5.953
		c-4.064,0.573-7.671,0.515-8.358-1.603C42.393,155.685,44.798,152.193,48.919,151.678L48.919,151.678z"/>
	<path display="inline" fill="#D15D1C" d="M39.302,163.527c1.317,0,2.462-0.973,2.462-2.175s-1.145-2.175-2.462-2.175
		c-1.374,0-2.462,0.973-2.462,2.175C36.841,162.554,37.928,163.527,39.302,163.527L39.302,163.527z"/>
	<g display="inline">
		<path fill="#F2F2F2" d="M162.175,0c2.301,2.217,10.374,10.835,7.948,22.506c-2.803,13.595-11.922,12.508-12.591,25.727
			c-0.544,11.127,9.203,19.243,13.303,23.51c-3.598-6.317-7.823-15.185-7.404-23.468c0.669-13.261,9.747-12.173,12.591-25.727
			C178.238,11.838,167.027,3.221,162.175,0L162.175,0z"/>
		<path fill="#F2F2F2" d="M138.121,38.025c2.05,1.213,9.287,6.149,10.165,14.265c0.962,9.454-5.396,9.747-3.012,18.741
			c2.008,7.53,10.291,11.88,13.93,14.265c-3.765-3.807-8.45-9.329-9.956-14.934c-2.385-8.994,3.974-9.245,2.97-18.699
			C151.466,44.217,142.095,39.657,138.121,38.025L138.121,38.025z"/>
		<path fill="#F2F2F2" d="M198.485,19.745c-2.593,1.799-11.755,9.078-11.629,20.247c0.084,13.01,8.827,12.884,6.944,25.309
			c-1.548,10.458-12.173,17.067-16.775,20.665c4.518-5.522,10.123-13.428,11.253-21.209c1.882-12.466-6.819-12.34-6.944-25.308
			C181.25,29.241,193.34,22.255,198.485,19.745L198.485,19.745z"/>
		<path fill="#F2F2F2" d="M147.868,86.676c0,0-8.492-4.476-10.123-9.956c-1.631-5.522-0.837-10.333-0.837-10.333
			s-5.187,9.621-2.719,14.767C136.657,86.3,147.868,86.676,147.868,86.676L147.868,86.676z"/>
		<path fill="#F2F2F2" d="M190.077,82.702c0,0,8.492-4.434,10.123-9.956c1.673-5.48,0.837-10.291,0.837-10.291
			s5.187,9.621,2.719,14.767C201.33,82.367,190.077,82.702,190.077,82.702L190.077,82.702z"/>
	</g>
</g>
<g>
	<rect x="7.113" y="175.186" fill="#1D1D28" width="32.515" height="17.072"/>
	<g>
		<path fill="#373747" d="M24.376,193.879c-1.362,0-1.532,2.117-0.16,2.117C25.578,195.997,25.748,193.879,24.376,193.879z"/>
		<path fill="#373747" d="M27.61,196.741c-1.372,0-1.532,2.128-0.16,2.128C28.812,198.869,28.972,196.741,27.61,196.741z"/>
		<path fill="#373747" d="M28.716,194.784c0-0.692-0.574-1.266-1.266-1.266c-0.702,0-1.277,0.574-1.277,1.266
			c0,0.702,0.575,1.266,1.277,1.266C28.142,196.05,28.716,195.486,28.716,194.784z"/>
		<path fill="#373747" d="M27.355,192.677c1.362,0,1.521-2.128,0.16-2.128C26.142,190.549,25.982,192.677,27.355,192.677z"/>
		<path fill="#373747" d="M30.642,193.943c-1.362,0-1.532,2.128-0.16,2.128C31.844,196.071,32.015,193.943,30.642,193.943z"/>
		<path fill="#D9D9E7" d="M24.376,193.879c-1.362,0-1.532,2.117-0.16,2.117C25.578,195.997,25.748,193.879,24.376,193.879z
			 M27.61,196.741c-1.372,0-1.532,2.128-0.16,2.128C28.812,198.869,28.972,196.741,27.61,196.741z M27.514,190.549
			c-1.372,0-1.532,2.128-0.16,2.128C28.716,192.677,28.876,190.549,27.514,190.549z M26.174,194.784
			c0,0.702,0.575,1.266,1.277,1.266c0.692,0,1.266-0.564,1.266-1.266c0-0.692-0.574-1.266-1.266-1.266
			C26.748,193.518,26.174,194.092,26.174,194.784z M30.483,196.071c1.362,0,1.532-2.128,0.16-2.128
			C29.28,193.943,29.11,196.071,30.483,196.071z M27.45,199.667c-2.702,0-4.883-2.181-4.883-4.883c0-2.692,2.181-4.873,4.883-4.873
			c2.692,0,4.873,2.181,4.873,4.873C32.323,197.486,30.142,199.667,27.45,199.667z"/>
		<path fill="#BDBDCB" d="M22.567,194.784c0,2.702,2.181,4.883,4.883,4.883c2.692,0,4.873-2.181,4.873-4.883
			c0-2.692-2.181-4.873-4.873-4.873C24.748,189.911,22.567,192.092,22.567,194.784z M27.45,203.561
			c-4.851,0-8.777-3.926-8.777-8.777c0-4.841,3.926-8.766,8.777-8.766c4.841,0,8.766,3.926,8.766,8.766
			C36.217,199.635,32.291,203.561,27.45,203.561z"/>
		<path fill="#3A3A4C" d="M18.673,194.784c0,4.851,3.926,8.777,8.777,8.777c4.841,0,8.766-3.926,8.766-8.777
			c0-4.841-3.926-8.766-8.766-8.766C22.599,186.017,18.673,189.943,18.673,194.784z M39.419,194.784
			c0,6.617-5.362,11.979-11.969,11.979c-6.617,0-11.979-5.362-11.979-11.979c0-6.607,5.362-11.969,11.979-11.969
			C34.057,182.815,39.419,188.177,39.419,194.784z"/>
		<path fill="#1D1D28" d="M27.45,179.57c8.405,0,15.214,6.809,15.214,15.214c0,8.415-6.809,15.224-15.214,15.224
			c-8.415,0-15.224-6.809-15.224-15.224C12.226,186.379,19.035,179.57,27.45,179.57z M39.419,194.784
			c0-6.607-5.362-11.969-11.969-11.969c-6.617,0-11.979,5.362-11.979,11.969c0,6.617,5.362,11.979,11.979,11.979
			C34.057,206.763,39.419,201.401,39.419,194.784z"/>
	</g>
	<g>
		<path fill="#373747" d="M265.019,193.879c-1.362,0-1.532,2.117-0.16,2.117C266.221,195.997,266.391,193.879,265.019,193.879z"/>
		<path fill="#373747" d="M268.253,196.741c-1.372,0-1.532,2.128-0.16,2.128C269.455,198.869,269.615,196.741,268.253,196.741z"/>
		<path fill="#373747" d="M269.359,194.784c0-0.692-0.574-1.266-1.266-1.266c-0.702,0-1.277,0.574-1.277,1.266
			c0,0.702,0.575,1.266,1.277,1.266C268.785,196.05,269.359,195.486,269.359,194.784z"/>
		<path fill="#373747" d="M267.998,192.677c1.362,0,1.521-2.128,0.16-2.128C266.785,190.549,266.625,192.677,267.998,192.677z"/>
		<path fill="#373747" d="M271.285,193.943c-1.362,0-1.532,2.128-0.16,2.128C272.487,196.071,272.657,193.943,271.285,193.943z"/>
		<path fill="#D9D9E7" d="M265.019,193.879c-1.362,0-1.532,2.117-0.16,2.117C266.221,195.997,266.391,193.879,265.019,193.879z
			 M268.253,196.741c-1.372,0-1.532,2.128-0.16,2.128C269.455,198.869,269.615,196.741,268.253,196.741z M268.157,190.549
			c-1.372,0-1.532,2.128-0.16,2.128C269.359,192.677,269.519,190.549,268.157,190.549z M266.817,194.784
			c0,0.702,0.575,1.266,1.277,1.266c0.692,0,1.266-0.564,1.266-1.266c0-0.692-0.574-1.266-1.266-1.266
			C267.391,193.518,266.817,194.092,266.817,194.784z M271.125,196.071c1.362,0,1.532-2.128,0.16-2.128
			C269.923,193.943,269.753,196.071,271.125,196.071z M268.093,199.667c-2.702,0-4.883-2.181-4.883-4.883
			c0-2.692,2.181-4.873,4.883-4.873c2.692,0,4.873,2.181,4.873,4.873C272.966,197.486,270.785,199.667,268.093,199.667z"/>
		<path fill="#BDBDCB" d="M263.21,194.784c0,2.702,2.181,4.883,4.883,4.883c2.692,0,4.873-2.181,4.873-4.883
			c0-2.692-2.181-4.873-4.873-4.873C265.391,189.911,263.21,192.092,263.21,194.784z M268.093,203.561
			c-4.851,0-8.777-3.926-8.777-8.777c0-4.841,3.926-8.766,8.777-8.766c4.841,0,8.766,3.926,8.766,8.766
			C276.86,199.635,272.934,203.561,268.093,203.561z"/>
		<path fill="#3A3A4C" d="M259.316,194.784c0,4.851,3.926,8.777,8.777,8.777c4.841,0,8.766-3.926,8.766-8.777
			c0-4.841-3.926-8.766-8.766-8.766C263.242,186.017,259.316,189.943,259.316,194.784z M280.062,194.784
			c0,6.617-5.362,11.979-11.969,11.979c-6.617,0-11.979-5.362-11.979-11.979c0-6.607,5.362-11.969,11.979-11.969
			C274.7,182.815,280.062,188.177,280.062,194.784z"/>
		<path fill="#1D1D28" d="M268.093,179.57c8.405,0,15.214,6.809,15.214,15.214c0,8.415-6.809,15.224-15.214,15.224
			c-8.415,0-15.224-6.809-15.224-15.224C252.869,186.379,259.678,179.57,268.093,179.57z M280.062,194.784
			c0-6.607-5.362-11.969-11.969-11.969c-6.617,0-11.979,5.362-11.979,11.969c0,6.617,5.362,11.979,11.979,11.979
			C274.7,206.763,280.062,201.401,280.062,194.784z"/>
	</g>
	<g>
		<path fill="#373747" d="M219.215,193.879c-1.362,0-1.532,2.117-0.16,2.117C220.418,195.997,220.588,193.879,219.215,193.879z"/>
		<path fill="#373747" d="M222.45,196.741c-1.372,0-1.532,2.128-0.16,2.128C223.652,198.869,223.811,196.741,222.45,196.741z"/>
		<path fill="#373747" d="M223.556,194.784c0-0.692-0.575-1.266-1.266-1.266c-0.702,0-1.277,0.574-1.277,1.266
			c0,0.702,0.575,1.266,1.277,1.266C222.982,196.05,223.556,195.486,223.556,194.784z"/>
		<path fill="#373747" d="M222.194,192.677c1.362,0,1.521-2.128,0.16-2.128C220.981,190.549,220.822,192.677,222.194,192.677z"/>
		<path fill="#373747" d="M225.482,193.943c-1.362,0-1.532,2.128-0.16,2.128C226.684,196.071,226.854,193.943,225.482,193.943z"/>
		<path fill="#D9D9E7" d="M219.215,193.879c-1.362,0-1.532,2.117-0.16,2.117C220.418,195.997,220.588,193.879,219.215,193.879z
			 M222.45,196.741c-1.372,0-1.532,2.128-0.16,2.128C223.652,198.869,223.811,196.741,222.45,196.741z M222.354,190.549
			c-1.372,0-1.532,2.128-0.16,2.128C223.556,192.677,223.716,190.549,222.354,190.549z M221.013,194.784
			c0,0.702,0.575,1.266,1.277,1.266c0.692,0,1.266-0.564,1.266-1.266c0-0.692-0.575-1.266-1.266-1.266
			C221.588,193.518,221.013,194.092,221.013,194.784z M225.322,196.071c1.362,0,1.532-2.128,0.16-2.128
			C224.12,193.943,223.95,196.071,225.322,196.071z M222.29,199.667c-2.702,0-4.883-2.181-4.883-4.883
			c0-2.692,2.181-4.873,4.883-4.873c2.692,0,4.873,2.181,4.873,4.873C227.163,197.486,224.982,199.667,222.29,199.667z"/>
		<path fill="#BDBDCB" d="M217.407,194.784c0,2.702,2.181,4.883,4.883,4.883c2.692,0,4.873-2.181,4.873-4.883
			c0-2.692-2.181-4.873-4.873-4.873C219.588,189.911,217.407,192.092,217.407,194.784z M222.29,203.561
			c-4.851,0-8.777-3.926-8.777-8.777c0-4.841,3.926-8.766,8.777-8.766c4.841,0,8.766,3.926,8.766,8.766
			C231.057,199.635,227.131,203.561,222.29,203.561z"/>
		<path fill="#3A3A4C" d="M213.513,194.784c0,4.851,3.926,8.777,8.777,8.777c4.841,0,8.766-3.926,8.766-8.777
			c0-4.841-3.926-8.766-8.766-8.766C217.439,186.017,213.513,189.943,213.513,194.784z M234.259,194.784
			c0,6.617-5.362,11.979-11.969,11.979c-6.617,0-11.979-5.362-11.979-11.979c0-6.607,5.362-11.969,11.979-11.969
			C228.897,182.815,234.259,188.177,234.259,194.784z"/>
		<path fill="#1D1D28" d="M222.29,179.57c8.405,0,15.214,6.809,15.214,15.214c0,8.415-6.809,15.224-15.214,15.224
			c-8.415,0-15.224-6.809-15.224-15.224C207.066,186.379,213.875,179.57,222.29,179.57z M234.259,194.784
			c0-6.607-5.362-11.969-11.969-11.969c-6.617,0-11.979,5.362-11.979,11.969c0,6.617,5.362,11.979,11.979,11.979
			C228.897,206.763,234.259,201.401,234.259,194.784z"/>
	</g>
	<g>
		<path fill="#1D1D28" d="M1.589,183.233l-0.625,0.317c0,0,0.587,5.443,0.973,6.871c0.378,1.421,2.633,1.837,2.633,1.837h4.995
			c0,0-0.757-5.142,1.668-10.199C6.236,182.306,1.589,183.233,1.589,183.233z"/>
		<path fill="#B4B4C5" d="M3.148,168.278c-1.096,0.903-1.428,6.84-1.521,10.955c0.062-0.201,1.119-3.49,1.691-7.033
			c0.17-1.027,0.224-1.783,0.224-2.347C3.542,168.417,3.148,168.278,3.148,168.278z"/>
		<path fill="#8787A7" d="M3.249,181.303c0.077-5.165,3.219-6.292,3.69-6.431c-0.17,0.015-0.324,0.039-0.479,0.069
			c-4.107,0.811-4.794,5.898-4.864,6.57c0,0.008,0,0.015,0,0.023c-0.008,0.015-0.008,0.031,0,0.046
			C1.681,181.565,2.399,181.442,3.249,181.303z"/>
		<path fill="#F17121" d="M3.542,169.699c0,0,1.683-0.494,4.246-1.197l-0.185-2.308c-2.324,0.865-3.891,1.621-4.455,2.084
			c0,0,0.394,0.139,0.394,1.575V169.699z"/>
		<path fill="#E0631E" d="M3.542,169.853v1.459c1.451-0.517,2.911-0.996,4.362-1.421l-0.116-1.39
			c-2.563,0.703-4.246,1.197-4.246,1.197V169.853z"/>
		<path fill="#E44C23" d="M5.657,177.805c-0.417,0-0.757,0.463-0.757,1.042c0,0.571,0.34,1.042,0.757,1.042
			c0.417,0,0.749-0.471,0.749-1.042C6.406,178.269,6.074,177.805,5.657,177.805z"/>
		<path fill="#B4B4C5" d="M5.657,179.89c0.417,0,0.749-0.471,0.749-1.042c0-0.579-0.332-1.042-0.749-1.042
			c-0.417,0-0.757,0.463-0.757,1.042C4.901,179.419,5.24,179.89,5.657,179.89z M7.001,180.199c-0.208,0.463-0.425,0.641-0.942,0.695
			c-0.579,0.054-1.791,0.239-2.81,0.409c0.077-5.165,3.219-6.292,3.69-6.431c0.116-0.015,0.239-0.023,0.371-0.031
			c0,0,2.015-0.124,0.803,2.563C7.472,178.817,7.24,179.682,7.001,180.199z"/>
		<path fill="#1D1D28" d="M9.672,163.662v-3.397H8.498c-2.887,0-2.123,3.227-2.123,3.227h1.004l0.224,2.702
			c0.332-0.131,0.679-0.255,1.035-0.386l-0.386-2.146H9.672z"/>
		<path fill="#F17121" d="M7.31,174.841c0,0,2.015-0.124,0.803,2.563c-0.641,1.413-0.872,2.278-1.112,2.795l5.636-0.525
			c0.355-0.502,0.757-0.988,1.197-1.467c2.841-3.065,9.921-4.03,14.7-4.331l0.131-3.683l-0.201-0.008
			c-4.015-0.131-10.724,0.865-14.375,1.822c-3.644,0.965-7.682,2.602-7.682,2.602l0.054,0.332c0.154-0.031,0.309-0.054,0.479-0.069
			C7.055,174.856,7.178,174.849,7.31,174.841z"/>
		<path fill="#1D1D28" d="M7.603,166.194l0.185,2.308c0.409-0.108,0.834-0.224,1.274-0.34l-0.425-2.355
			C8.282,165.939,7.935,166.063,7.603,166.194z"/>
		<path fill="#F17121" d="M8.637,165.808l0.425,2.355c5.736-1.529,14.592-3.683,19.803-3.961l0.116-3.281
			C20.789,162.079,13.432,164.102,8.637,165.808z"/>
		<path fill="#1D1D28" d="M9.147,168.626l-0.085-0.463c-0.44,0.116-0.865,0.232-1.274,0.34l0.116,1.39
			c0.888-0.262,1.768-0.502,2.64-0.733c-0.046-0.317-0.108-0.533-0.108-0.533H9.147z"/>
		<path fill="#F17121" d="M10.228,171.127c-0.71,0.764-1.93,0.764-2.224,0l-0.1-1.235c-1.451,0.425-2.911,0.903-4.362,1.421v-1.459
			c0,0.564-0.054,1.32-0.224,2.347c-0.571,3.544-1.629,6.833-1.691,7.033c-0.023,0.857-0.031,1.637-0.031,2.277
			c0.069-0.672,0.757-5.759,4.864-6.57l-0.054-0.332c0,0,4.038-1.637,7.682-2.602c3.652-0.957,10.361-1.953,14.375-1.822
			l0.201,0.008l0.147-4.208c-0.757,0.054-8.987,0.741-18.267,3.173C10.637,169.73,10.683,170.633,10.228,171.127z"/>
		<path fill="#F17121" d="M1.589,182.26c3.312-0.71,7.589-1.073,10.183-1.235c0.255-0.455,0.548-0.911,0.865-1.351l-5.636,0.525
			c-0.208,0.463-0.425,0.641-0.942,0.695c-0.579,0.054-1.791,0.239-2.81,0.409c-0.849,0.139-1.567,0.262-1.652,0.278
			C1.589,181.828,1.589,182.059,1.589,182.26z"/>
		<path fill="#F17121" d="M1.589,183.233c0,0,4.648-0.926,9.643-1.174c0.162-0.347,0.347-0.695,0.54-1.035
			c-2.594,0.162-6.871,0.525-10.183,1.235C1.589,182.87,1.589,183.233,1.589,183.233z"/>
		<path fill="#1D1D28" d="M10.228,171.127c0.456-0.494,0.409-1.397,0.317-1.969c-0.872,0.232-1.753,0.471-2.64,0.733l0.1,1.235
			C8.298,171.892,9.518,171.892,10.228,171.127z"/>
		<path fill="#3A3A4C" d="M11.648,188.22c0-2.278,0.625-4.408,1.714-6.23c-0.71,0.008-1.421,0.031-2.131,0.069
			c-2.424,5.057-1.668,10.199-1.668,10.199h2.085V188.22z"/>
		<path fill="#D35916" d="M11.772,181.025c-0.193,0.34-0.378,0.687-0.54,1.035c0.71-0.039,1.421-0.062,2.131-0.069
			c0.216-0.378,0.463-0.749,0.726-1.096C14.088,180.894,13.177,180.925,11.772,181.025z"/>
		<path fill="#D35916" d="M12.637,179.674c-0.317,0.44-0.61,0.896-0.865,1.351c1.405-0.1,2.316-0.131,2.316-0.131
			c0.401-0.525,0.842-1.027,1.32-1.482L12.637,179.674z"/>
		<path fill="#E0631E" d="M28.865,164.202c-5.211,0.278-14.067,2.432-19.803,3.961l0.085,0.463h1.289c0,0,0.062,0.216,0.108,0.533
			c9.28-2.432,17.51-3.119,18.267-3.173l0.054-1.683v-0.093V164.202z"/>
		<path fill="#F17121" d="M26.364,176.014c3.961,1.382,5.945,4.787,6.925,8.122h28.689v-2.548h-6.022H37.983l-2.432-3.382
			l-1.575-2.193h-5.512H26.364z"/>
		<path fill="#D35916" d="M15.408,179.411c2.193-2.108,5.165-3.397,8.446-3.397h2.509h2.1l0.069-2.139
			c-4.779,0.301-11.859,1.266-14.7,4.331c-0.44,0.479-0.842,0.965-1.197,1.467L15.408,179.411z"/>
		<path fill="#BC490F" d="M28.865,164.202v0.008c0.023,0.185,0.355,2.818,2.386,2.162c1.984-0.641,2.038-2.818,2.038-3.057
			c0-0.015,0-0.023,0-0.023L28.865,164.202z"/>
		<path fill="#E44C23" d="M30.78,171.699c-0.803,0-1.451,0.363-1.451,0.803c0,0.448,0.648,0.811,1.451,0.811
			c0.795,0,1.444-0.363,1.444-0.811C32.223,172.061,31.575,171.699,30.78,171.699z"/>
		<path fill="#E0631E" d="M30.78,173.312c0.795,0,1.444-0.363,1.444-0.811c0-0.44-0.649-0.803-1.444-0.803
			c-0.803,0-1.451,0.363-1.451,0.803C29.328,172.949,29.977,173.312,30.78,173.312z M28.664,170.193l0.147-4.208
			c0.039-0.008,0.054-0.008,0.054-0.008v-1.675v-0.093c0.023,0.185,0.355,2.818,2.386,2.162c1.984-0.641,2.038-2.818,2.038-3.057
			v10.446c0,0-2-0.054-4.756,0.116L28.664,170.193z"/>
		<path fill="#E0631E" d="M33.289,163.291v-5.427c-0.594,1.143-0.996,1.915-0.996,1.915s-0.517,1.096-3.312,1.143l-0.116,3.281
			L33.289,163.291z"/>
		<path fill="#BC490F" d="M36.663,141.875l-4.37,5.273h3.822h0.641c-0.031-0.093-0.054-0.147-0.054-0.147h0.842
			c0,0,0.023,0.054,0.046,0.147h0.463c0,0,0.069-1.644,2.64-2.362l0.456-0.502l2.177-2.409h-2.324H36.663z"/>
		<path fill="#D35916" d="M28.463,176.014h5.512h1.197l-1.884-2.254c0,0-2-0.054-4.756,0.116L28.463,176.014z"/>
		<path fill="#E0631E" d="M61.978,184.136H33.289c0.71,2.386,0.903,4.733,0.942,6.284h6.825l-1.197-1.598h22.119V184.136z"/>
		<polygon fill="#1D1D28" points="35.744,178.068 37.983,178.068 55.956,178.068 55.369,176.014 35.173,176.014 33.976,176.014 
			35.551,178.207 		"/>
		<path fill="#1D1D28" d="M34.2,192.258h48.546h7.913v-1.837h-4.061H41.056h-6.825C34.254,191.548,34.2,192.258,34.2,192.258z"/>
		<polygon fill="#F17121" points="35.551,178.207 37.983,181.589 37.983,178.068 35.744,178.068 		"/>
		<path fill="#64648B" d="M37.049,148.916c0.17-0.394-0.162-1.39-0.293-1.768h-0.641l-6.833,13.186
			c1.722-0.178,2.424-0.903,2.424-0.903S36.84,149.402,37.049,148.916z"/>
		<path fill="#E0631E" d="M37.543,147.001h-0.842c0,0,0.023,0.054,0.054,0.147h0.834C37.566,147.055,37.543,147.001,37.543,147.001z
			"/>
		<path fill="#1D1D28" d="M36.755,147.148c0.131,0.378,0.463,1.374,0.293,1.768c-0.208,0.486-5.343,10.515-5.343,10.515
			s-0.703,0.726-2.424,0.903l-0.301,0.587c2.795-0.046,3.312-1.143,3.312-1.143s0.401-0.772,0.996-1.915
			c1.56-3.019,4.432-8.601,4.524-9.095c0.093-0.525-0.124-1.305-0.224-1.621H36.755z"/>
		<polygon fill="#424268" points="37.18,157.786 39.11,157.786 39.11,156.188 38.068,156.188 38.014,156.165 		"/>
		<rect x="37.983" y="178.068" fill="#E0631E" width="17.973" height="3.521"/>
		<polygon fill="#64648B" points="39.11,154.042 38.014,156.165 38.068,156.188 39.11,156.188 		"/>
		<path fill="#64648B" d="M37.218,159.879c0.394,0.587,1.058,0.896,1.753,0.818l0.139-0.015v-2.895h-1.93l-0.085,0.162
			C36.771,158.574,36.817,159.3,37.218,159.879z"/>
		<path fill="#1D1D28" d="M38.77,161.485c0.093,0,0.185-0.008,0.278-0.015l0.062-0.008v-0.78l-0.139,0.015
			c-0.695,0.077-1.359-0.232-1.753-0.818c-0.401-0.579-0.448-1.305-0.124-1.93l0.085-0.162l0.834-1.621l1.096-2.123v-1.683
			l-2.694,5.234c-0.456,0.88-0.394,1.899,0.162,2.725C37.087,161.06,37.89,161.485,38.77,161.485z"/>
		<path fill="#3A3A4C" d="M40.036,161.894H39.11v2.085h0.926C40.036,163.978,40.044,163.26,40.036,161.894z"/>
		<path fill="#3A3A4C" d="M39.11,152.359l0.371-0.726c-0.216,0.093-0.371,0.309-0.371,0.556V152.359z"/>
		<path fill="#3A3A4C" d="M39.481,151.633l-0.371,0.726v1.683l1.266-2.455h-0.664C39.627,151.587,39.55,151.602,39.481,151.633z"/>
		<path fill="#1D1D28" d="M40.036,163.978H39.11v-2.085h-1.791c-0.147,0-0.27,0.124-0.27,0.278v3.613
			c0,0.154,0.124,0.278,0.27,0.278h2.718c0.147,0,0.27-0.124,0.27-0.278v-3.613c0-0.154-0.124-0.278-0.27-0.278
			C40.044,163.26,40.036,163.978,40.036,163.978z"/>
		<path fill="#3A3A4C" d="M40.144,161.361l-1.035,0.1v0.432h0.926C40.036,161.685,40.075,161.508,40.144,161.361z"/>
		<path fill="#F17121" d="M70.671,123.238c6.67-1.297,12.353-1.59,16.414-1.544c0.046,0.355,1.32,10.299,2.084,22.59H65.676
			c-1.351-1.328-3.744-1.938-5.373-2.2v-11.241H60.21v11.226c-0.95-0.154-1.614-0.193-1.614-0.193H43.325h-2.324
			C47.039,134.486,57.037,125.893,70.671,123.238z M81.572,138.578c1.181,0.926,2.895-0.031,2.733-1.521l-0.409-3.629
			c-0.255-2.262-2.216-3.945-4.486-3.86l-4.81,0.193c-1.397,0.062-1.969,1.822-0.865,2.687L81.572,138.578z"/>
		<path fill="#3A3A4C" d="M40.376,151.587l-1.266,2.455v2.146v1.598v2.895l2.586-0.262v-2.841v-1.39v-2.185v-1.791
			c0-0.147-0.054-0.286-0.147-0.394c-0.108-0.139-0.278-0.232-0.471-0.232H40.376z"/>
		<path fill="#BC490F" d="M43.325,141.875l-2.177,2.409h17.657h1.405v-2.216c-0.95-0.154-1.614-0.193-1.614-0.193H43.325z"/>
		<path fill="#3A3A4C" d="M39.11,160.682v0.78l1.035-0.1c0.363-0.788,1.552-0.679,1.552-0.679v-0.262L39.11,160.682z"/>
		<polygon fill="#64648B" points="41.696,154.003 41.696,156.188 41.835,156.188 52.868,156.188 52.868,154.003 41.835,154.003 		
			"/>
		<polygon fill="#424268" points="41.696,157.578 52.868,157.578 52.868,156.188 41.835,156.188 41.696,156.188 		"/>
		<path fill="#1D1D28" d="M50.93,170.155v2.887c0,0.726,0.587,1.32,1.312,1.32c0.633,0,1.181-0.456,1.297-1.081l0.703-3.05
			c0.17-0.926-0.656-1.729-1.575-1.521l-0.71,0.154C51.355,168.996,50.93,169.537,50.93,170.155z"/>
		<path fill="#64648B" d="M51.162,159.462c0.973-0.093,1.706-0.911,1.706-1.884H41.696v2.841L51.162,159.462z"/>
		<path fill="#424268" d="M40.375,151.59h0.703c0.193,0,0.363,0.093,0.471,0.232c0.093,0.108,0.147,0.247,0.147,0.394v1.791h11.171
			v-3.814c0-0.224-0.039-0.44-0.116-0.641c-0.255-0.726-0.957-1.251-1.783-1.251h-7.744c-0.71,0-1.359,0.394-1.683,1.027
			l-0.093,0.178l-0.594,1.158L40.375,151.59z"/>
		<path fill="#1D1D28" d="M52.868,157.578c0,0.973-0.733,1.791-1.706,1.884l-9.465,0.957v0.262c0,0-1.189-0.108-1.552,0.679
			l11.094-1.127c1.367-0.139,2.401-1.282,2.401-2.656v-7.388c0-1.467-1.197-2.664-2.671-2.664h-7.744
			c-1.004,0-1.907,0.556-2.37,1.444l-1.374,2.664c0.069-0.031,0.147-0.046,0.232-0.046h0.664l0.479-0.926l0.594-1.158l0.093-0.178
			c0.324-0.633,0.973-1.027,1.683-1.027h7.744c0.826,0,1.529,0.525,1.783,1.251c0.077,0.201,0.116,0.417,0.116,0.641v0.479v1.15
			v2.185v2.185V157.578z"/>
		<path fill="#F17121" d="M35.173,176.014l-1.884-2.254v-10.446c0-0.015,0-0.023,0-0.023v-5.427c1.56-3.019,4.432-8.601,4.524-9.095
			c1.382-2.957,3.714-3.096,3.714-3.096s10.299,0.108,13.063,0c0.27-0.008,0.533-0.031,0.78-0.069v0.008v30.403H35.173z
			 M53.539,173.281l0.703-3.05c0.17-0.926-0.656-1.729-1.575-1.521l-0.71,0.154c-0.602,0.131-1.027,0.672-1.027,1.289v2.887
			c0,0.726,0.587,1.32,1.312,1.32C52.875,174.362,53.424,173.907,53.539,173.281z M39.11,161.461v0.432h-1.791
			c-0.147,0-0.27,0.124-0.27,0.278v3.613c0,0.154,0.124,0.278,0.27,0.278h2.718c0.147,0,0.27-0.124,0.27-0.278v-3.613
			c0-0.154-0.124-0.278-0.27-0.278c0-0.208,0.039-0.386,0.108-0.533l11.094-1.127c1.367-0.139,2.401-1.282,2.401-2.656v-7.388
			c0-1.467-1.197-2.664-2.671-2.664h-7.744c-1.004,0-1.907,0.556-2.37,1.444l-1.374,2.664c-0.216,0.093-0.371,0.309-0.371,0.556
			v0.17l-2.694,5.234c-0.456,0.88-0.394,1.899,0.162,2.725c0.51,0.741,1.313,1.166,2.193,1.166c0.093,0,0.185-0.008,0.278-0.015
			L39.11,161.461z"/>
		<path fill="#D35916" d="M40.693,144.785c-2.571,0.718-2.64,2.362-2.64,2.362h-0.463c0.1,0.317,0.317,1.096,0.224,1.621
			c1.382-2.957,3.714-3.096,3.714-3.096s10.299,0.108,13.063,0c0.27-0.008,0.533-0.031,0.78-0.069c2.247-0.27,3.436-1.32,3.436-1.32
			H41.148L40.693,144.785z"/>
		<polygon fill="#E0631E" points="55.956,178.068 55.956,181.589 61.978,181.589 61.978,178.724 60.364,178.724 58.071,178.068 		
			"/>
		<polygon fill="#1D1D28" points="65.591,178.724 71.103,178.724 87.085,178.724 90.659,178.724 93.361,176.014 88.992,176.014 
			55.369,176.014 55.956,178.068 58.071,178.068 60.364,178.724 61.978,178.724 		"/>
		<rect x="60.21" y="144.283" fill="#1D1D28" width="0.093" height="1.374"/>
		<path fill="#1D1D28" d="M60.21,142.068v2.216h0.093v-2.2C60.272,142.075,60.241,142.068,60.21,142.068z"/>
		<path fill="#1D1D28" d="M60.21,130.842v11.226c0.031,0,0.062,0.008,0.093,0.015v-11.241H60.21z"/>
		<path fill="#BC490F" d="M60.303,142.083v2.2h5.373C64.325,142.956,61.931,142.346,60.303,142.083z"/>
		<path fill="#1D1D28" d="M61.252,146.476c0.185-0.378-0.093-0.818-0.51-0.818c-0.139,0-0.293,0-0.44,0H60.21
			c-0.116,0-0.232,0-0.34,0c-0.417,0-0.695,0.44-0.51,0.818l0.44,0.888c0.208,0.425,0.811,0.425,1.011,0L61.252,146.476z"/>
		<rect x="61.978" y="184.136" fill="#E0631E" width="25.107" height="4.686"/>
		<polygon fill="#F17121" points="61.978,181.589 61.978,184.136 87.085,184.136 87.085,181.589 71.103,181.589 65.591,181.589 		
			"/>
		<rect x="61.978" y="178.724" fill="#E0631E" width="3.613" height="2.864"/>
		<path fill="#424268" d="M67.112,179.697c-0.239,0-0.432,0.193-0.432,0.432c0,0.239,0.193,0.432,0.432,0.432h2.571
			c0.239,0,0.432-0.193,0.432-0.432c0-0.239-0.193-0.432-0.432-0.432H67.112z"/>
		<path fill="#1D1D28" d="M70.115,180.129c0-0.239-0.193-0.432-0.432-0.432h-2.571c-0.239,0-0.432,0.193-0.432,0.432
			c0,0.239,0.193,0.432,0.432,0.432h2.571C69.922,180.562,70.115,180.369,70.115,180.129z M65.591,181.589v-2.864h5.512v2.864
			H65.591z"/>
		<rect x="71.103" y="178.724" fill="#E0631E" width="15.981" height="2.864"/>
		<path fill="#F17121" d="M71.103,167.9v5.304c0,0.826,0.679,1.505,1.513,1.505h12.955c0.834,0,1.513-0.679,1.513-1.505V167.9
			c0-0.834-0.679-1.513-1.513-1.513H72.617C71.783,166.387,71.103,167.066,71.103,167.9z"/>
		<path fill="#F17121" d="M75.095,146.53h7.983c0.98,0,1.783,0.803,1.783,1.783v13.21c0,0.98-0.803,1.783-1.783,1.783h-7.983
			c-0.98,0-1.783-0.803-1.783-1.783v-13.21C73.311,147.333,74.114,146.53,75.095,146.53z M78.94,157.833h1.822
			c0.27,0,0.494-0.216,0.494-0.494v-4.038c0-0.278-0.224-0.494-0.494-0.494H78.94c-0.278,0-0.494,0.216-0.494,0.494v4.038
			C78.446,157.617,78.662,157.833,78.94,157.833z"/>
		<path fill="#1D1D28" d="M74.601,129.761c-1.397,0.062-1.969,1.822-0.865,2.687l7.836,6.13c1.181,0.926,2.895-0.031,2.733-1.521
			l-0.409-3.629c-0.255-2.262-2.216-3.945-4.486-3.86L74.601,129.761z"/>
		<path fill="#E0631E" d="M78.446,153.301v4.038c0,0.278,0.216,0.494,0.494,0.494h1.822c0.27,0,0.494-0.216,0.494-0.494v-4.038
			c0-0.278-0.224-0.494-0.494-0.494H78.94C78.662,152.807,78.446,153.023,78.446,153.301z"/>
		<path fill="#E0631E" d="M73.311,148.313v13.21c0,0.98,0.803,1.783,1.783,1.783h7.983c0.98,0,1.783-0.803,1.783-1.783v-13.21
			c0-0.98-0.803-1.783-1.783-1.783h-7.983C74.114,146.53,73.311,147.333,73.311,148.313z M85.571,174.71
			c0.834,0,1.513-0.679,1.513-1.505V167.9c0-0.834-0.679-1.513-1.513-1.513H72.617c-0.834,0-1.513,0.679-1.513,1.513v5.304
			c0,0.826,0.679,1.505,1.513,1.505H85.571z M88.992,176.014H55.369v-30.403v-0.008c2.247-0.27,3.436-1.32,3.436-1.32h1.405v1.374
			c-0.116,0-0.232,0-0.34,0c-0.417,0-0.695,0.44-0.51,0.818l0.44,0.888c0.208,0.425,0.811,0.425,1.011,0l0.44-0.888
			c0.185-0.378-0.093-0.818-0.51-0.818c-0.139,0-0.293,0-0.44,0v-1.374h5.373h23.493C89.81,154.644,90.103,166.665,88.992,176.014z"
			/>
		<polygon fill="#E0631E" points="87.085,188.823 86.598,190.421 90.659,190.421 90.659,189.965 90.659,187.417 90.659,184.136 
			87.085,184.136 		"/>
		<rect x="87.085" y="181.589" fill="#E0631E" width="3.575" height="2.548"/>
		<rect x="87.085" y="178.724" fill="#E0631E" width="3.575" height="2.864"/>
		<path fill="#F17121" d="M88.992,176.014h4.37v-2.339v-23.316c0-0.394,0.178-0.741,0.448-0.973v-5.103h-0.317h-4.323
			C89.81,154.644,90.103,166.665,88.992,176.014z"/>
		<path fill="#E0631E" d="M87.085,121.693c0.046,0.355,1.32,10.299,2.084,22.59h4.323h0.317v-22.15
			C93.809,122.134,91.331,121.732,87.085,121.693z"/>
		<path fill="#3A3A4C" d="M93.361,173.675v2.339l-2.702,2.71v2.864v2.548v3.281c3.768,0,3.219-1.768,3.219-1.768v-10.94
			C93.562,174.478,93.361,174.1,93.361,173.675z"/>
		<path fill="#1D1D28" d="M94.666,174.98c-0.293,0-0.571-0.1-0.787-0.27v10.94c0,0,0.548,1.768-3.219,1.768v2.548
			c5.752,0,5.675-3.119,5.675-3.119v-3.853v-8.014H94.666z"/>
		<path fill="#424268" d="M94.666,174.98c0.71,0,1.297-0.587,1.297-1.305v-20.868v-2.447c0-0.432-0.216-0.818-0.54-1.05
			c-0.216-0.162-0.479-0.255-0.757-0.255c-0.324,0-0.625,0.124-0.857,0.332c-0.27,0.232-0.448,0.579-0.448,0.973v23.316
			c0,0.425,0.201,0.803,0.517,1.035C94.095,174.879,94.373,174.98,94.666,174.98z"/>
		<path fill="#616183" d="M96.334,117.995l-2.525,4.138v22.15v5.103c0.232-0.208,0.533-0.332,0.857-0.332
			c0.278,0,0.54,0.093,0.757,0.255v-3.791V125.06v-2.231l1.019-1.737c0.502-0.865,0.772-1.845,0.772-2.849
			c0-0.293-0.239-0.479-0.479-0.479C96.581,117.764,96.426,117.841,96.334,117.995z"/>
		<path fill="#E0631E" d="M95.423,145.519v3.791c0.324,0.232,0.54,0.618,0.54,1.05v2.447h0.471v-7.288h-0.926H95.423z"/>
		<polygon fill="#E0631E" points="95.423,125.06 95.423,145.519 95.508,145.519 96.434,145.519 96.434,127.198 		"/>
		<path fill="#1D1D28" d="M95.963,173.675c0,0.718-0.587,1.305-1.297,1.305h1.668h2.756v-29.461h-2.656v7.288h-0.471V173.675z"/>
		<path fill="#E0631E" d="M67.51,143.183h20.128c0.267,0,0.484-0.218,0.484-0.484l0,0c0-0.266-0.218-0.484-0.484-0.484H67.51
			c-0.266,0-0.484,0.218-0.484,0.484l0,0C67.025,142.965,67.243,143.183,67.51,143.183z"/>
		<g>
			<rect x="61.882" y="178.725" fill="#AC6600" width="0.193" height="10.098"/>
		</g>
		<g>
			<rect x="86.988" y="178.725" fill="#AC6600" width="0.193" height="10.098"/>
		</g>
		<g>
			<polygon fill="#AC6600" points="37.886,181.685 90.659,181.685 90.659,181.492 38.079,181.492 38.079,178.068 37.886,178.068 			
				"/>
		</g>
		<g>
			<rect x="55.272" y="145.611" fill="#AC6600" width="0.193" height="30.403"/>
		</g>
		<g>
			
				<rect x="22.276" y="167.302" transform="matrix(-0.0345 0.9994 -0.9994 -0.0345 197.0488 144.4418)" fill="#AC6600" width="12.963" height="0.193"/>
		</g>
		<g>
			
				<rect x="3.459" y="169.004" transform="matrix(-0.9625 0.2712 -0.2712 -0.9625 56.9803 330.3271)" fill="#AC6600" width="4.412" height="0.193"/>
		</g>
		<g>
			<path fill="#AC6600" d="M9.088,168.255c0.121-0.033,12.255-3.364,19.784-3.957l-0.015-0.193
				c-7.547,0.594-19.698,3.93-19.821,3.964L9.088,168.255z"/>
		</g>
		<g>
			<rect x="58.805" y="144.187" fill="#AC6600" width="1.405" height="0.193"/>
		</g>
		<g>
			<rect x="60.303" y="144.187" fill="#AC6600" width="28.866" height="0.193"/>
		</g>
		<g>
			<path fill="#AC6600" d="M89.087,176.027c0.024-0.185,2.361-18.859-1.907-54.345l-0.191,0.023
				c4.264,35.458,1.931,54.112,1.907,54.296L89.087,176.027z"/>
		</g>
		<g>
			<path fill="#AC6600" d="M73.223,161.523v-13.21c0-1.037,0.844-1.88,1.88-1.88h7.983c1.037,0,1.88,0.843,1.88,1.88v13.21
				c0,1.037-0.843,1.88-1.88,1.88h-7.983C74.066,163.403,73.223,162.56,73.223,161.523z M75.103,146.627
				c-0.93,0-1.687,0.757-1.687,1.687v13.21c0,0.93,0.757,1.687,1.687,1.687h7.983c0.93,0,1.687-0.757,1.687-1.687v-13.21
				c0-0.93-0.757-1.687-1.687-1.687H75.103z"/>
		</g>
		<g>
			<path fill="#AC6600" d="M71.007,173.315v-5.444c0-0.822,0.669-1.491,1.491-1.491h13.288c0.823,0,1.491,0.669,1.491,1.491v5.444
				c0,0.823-0.669,1.491-1.491,1.491H72.498C71.675,174.806,71.007,174.138,71.007,173.315z M72.498,166.573
				c-0.716,0-1.298,0.582-1.298,1.298v5.444c0,0.716,0.582,1.298,1.298,1.298h13.288c0.716,0,1.298-0.582,1.298-1.298v-5.444
				c0-0.715-0.582-1.298-1.298-1.298H72.498z"/>
		</g>
		<path fill="#F17121" d="M57.587,172.505L57.587,172.505c0.458,0,0.833-0.375,0.833-0.833v-22.542c0-0.458-0.375-0.833-0.833-0.833
			l0,0c-0.458,0-0.833,0.375-0.833,0.833v22.542C56.754,172.131,57.129,172.505,57.587,172.505z"/>
		<path fill="#F17121" d="M38.009,143.538h10.901c0.231,0,0.419-0.189,0.419-0.42l0,0c0-0.231-0.189-0.419-0.419-0.419H38.009
			c-0.231,0-0.419,0.189-0.419,0.419l0,0C37.589,143.349,37.778,143.538,38.009,143.538z"/>
	</g>
	<g>
		<path fill="#1D1D28" d="M204.258,194.045H291.8v-8.863h-19.386c-1.065,1.853-3.065,3.096-5.358,3.096h-8.068h-5.134h-23.47h-5.142
			h-8.446c-1.714,0-3.258-0.695-4.385-1.814c-0.378-0.378-0.71-0.811-0.981-1.282h-7.172V194.045z"/>
		<path fill="#3A3A4C" d="M102.379,182.322v-4.169h-2.038v4.841h-4.007v3.853c0,0,0.077,3.119-5.675,3.119v0.456v1.837h-7.913v5.273
			h30.604v-3.297v-8.863v-3.05H102.379z"/>
		<path fill="#8C8CA2" d="M102.379,97.081h197.025c0,0-16.9-7.481-102.373-7.481C111.566,89.6,102.379,97.081,102.379,97.081z"/>
		<rect x="106.864" y="122.604" fill="#E5E5E7" width="188.054" height="4.339"/>
		<rect x="106.864" y="117.509" fill="#D3D3D5" width="188.054" height="5.095"/>
		<rect x="106.864" y="112.421" fill="#E5E5E7" width="188.054" height="5.088"/>
		<rect x="106.864" y="107.326" fill="#D3D3D5" width="188.054" height="5.095"/>
		<rect x="106.864" y="102.74" fill="#E5E5E7" width="188.054" height="4.586"/>
		<rect x="122.058" y="179.558" fill="#5B5B77" width="57.741" height="2.517"/>
		<rect x="126.397" y="184.113" fill="#BDBDCB" width="7.937" height="2.517"/>
		<path fill="#8E8E9A" d="M125.888,188.467h8.446v-1.837h-7.937v-2.517h7.937v-1.791h-14.646c0.008,1.112,0.309,2.154,0.834,3.05
			c0.27,0.471,0.602,0.903,0.981,1.282C122.63,187.773,124.174,188.467,125.888,188.467z"/>
		<rect x="134.334" y="186.63" fill="#373747" width="5.142" height="1.837"/>
		<rect x="134.334" y="184.113" fill="#BDBDCB" width="5.142" height="2.517"/>
		<rect x="134.334" y="182.322" fill="#373747" width="5.142" height="1.791"/>
		<rect x="139.475" y="186.63" fill="#8E8E9A" width="23.47" height="1.837"/>
		<rect x="139.475" y="184.113" fill="#BDBDCB" width="23.47" height="2.517"/>
		<rect x="139.475" y="182.322" fill="#8E8E9A" width="23.47" height="1.791"/>
		<rect x="162.946" y="186.63" fill="#373747" width="5.134" height="1.837"/>
		<rect x="162.946" y="184.113" fill="#BDBDCB" width="5.134" height="2.517"/>
		<rect x="162.946" y="182.322" fill="#373747" width="5.134" height="1.791"/>
		<rect x="168.08" y="184.113" fill="#BDBDCB" width="7.558" height="2.517"/>
		<path fill="#8E8E9A" d="M168.08,188.467h8.068c2.293,0,4.293-1.243,5.358-3.096c0.525-0.896,0.826-1.938,0.834-3.05h-14.26v1.791
			h7.558v2.517h-7.558V188.467z"/>
		<path fill="#1D1D28" d="M113.35,194.235h87.542v-8.863h-19.386c-1.065,1.853-3.065,3.096-5.358,3.096h-8.068h-5.134h-23.47h-5.142
			h-8.446c-1.714,0-3.258-0.695-4.385-1.814c-0.378-0.378-0.71-0.811-0.981-1.282h-7.172V194.235z"/>
		<path fill="#5B5B77" d="M208.326,185.372l-0.834-3.05h-25.153c-0.008,1.112-0.309,2.154-0.834,3.05h19.386H208.326z"/>
		<path fill="#8E8E9A" d="M214.286,184.437h7.852v-2.038h-12.191v-0.077h-2.455l0.834,3.05l0.98,1.282
			c1.119,1.119,2.664,1.814,4.377,1.814h8.454v-1.513h-7.852V184.437z"/>
		<rect x="214.286" y="184.437" fill="#BDBDCB" width="7.852" height="2.517"/>
		<rect x="222.138" y="186.954" fill="#373747" width="5.134" height="1.513"/>
		<rect x="222.138" y="184.437" fill="#BDBDCB" width="5.134" height="2.517"/>
		<rect x="222.138" y="182.399" fill="#373747" width="5.134" height="2.038"/>
		<rect x="222.138" y="182.322" fill="#5B5B77" width="5.134" height="0.077"/>
		<rect x="227.272" y="186.954" fill="#8E8E9A" width="23.47" height="1.513"/>
		<rect x="227.272" y="184.437" fill="#BDBDCB" width="23.47" height="2.517"/>
		<rect x="227.272" y="182.399" fill="#8E8E9A" width="23.47" height="2.038"/>
		<rect x="106.864" y="132.031" fill="#E5E5E7" width="188.054" height="5.095"/>
		<rect x="250.742" y="186.954" fill="#373747" width="5.134" height="1.513"/>
		<rect x="250.742" y="184.437" fill="#BDBDCB" width="5.134" height="2.517"/>
		<rect x="250.742" y="182.399" fill="#373747" width="5.134" height="2.038"/>
		<rect x="250.742" y="182.322" fill="#5B5B77" width="5.134" height="0.077"/>
		<polygon fill="#5B5B77" points="209.948,182.276 222.138,182.276 227.272,182.276 250.742,182.276 255.876,182.276 
			267.689,182.276 267.689,179.89 209.948,179.89 		"/>
		<rect x="106.864" y="171.822" fill="#E5E5E7" width="188.054" height="4.841"/>
		<rect x="106.864" y="166.734" fill="#D3D3D5" width="188.054" height="5.088"/>
		<rect x="106.864" y="162.017" fill="#E5E5E7" width="188.054" height="4.717"/>
		<rect x="106.864" y="156.922" fill="#D3D3D5" width="188.054" height="5.095"/>
		<rect x="106.864" y="151.834" fill="#E5E5E7" width="188.054" height="5.088"/>
		<rect x="106.864" y="146.739" fill="#D3D3D5" width="188.054" height="5.095"/>
		<rect x="106.864" y="142.214" fill="#E5E5E7" width="188.054" height="4.524"/>
		<rect x="106.864" y="137.127" fill="#D3D3D5" width="188.054" height="5.088"/>
		<rect x="255.876" y="184.437" fill="#BDBDCB" width="7.651" height="2.517"/>
		<path fill="#8E8E9A" d="M263.527,188.467h0.425h0.046c3.382-0.023,6.122-2.764,6.146-6.145h-2.455v0.077h-11.812v2.038h7.651
			v2.517h-7.651v1.513H263.527z"/>
		<path fill="#3A3A4C" d="M263.527,188.467c0,1.081,0.44,2.069,1.15,2.779c0.71,0.71,1.691,1.15,2.779,1.15h20.722
			c2,0,3.621-1.621,3.621-3.629v-0.301h-27.801h-0.046H263.527z"/>
		<rect x="106.864" y="126.943" fill="#D3D3D5" width="188.054" height="5.088"/>
		<path fill="#5B5B77" d="M270.144,182.322c-0.023,3.382-2.764,6.122-6.146,6.145H291.8h0.834l4.408,3.297v-5.42l-1.421-0.973v-3.05
			H270.144z"/>
		<path fill="#B7B7C8" d="M209.948,182.276h-2.455c0,0.015,0,0.031,0,0.046h-25.153c0-0.015,0-0.031,0-0.046h-14.26h-5.134h-23.47
			h-5.142h-14.646c0,0.015,0,0.031,0,0.046h-6.339h-10.971v-4.169V97.081h197.025v85.241h-3.783h-25.477c0-0.015,0-0.031,0-0.046
			h-2.455v-2.386h-57.741V182.276z M294.919,171.822v-5.088v-4.717v-5.095v-5.088v-5.095v-4.524v-5.088v-5.095v-5.088v-4.339v-5.095
			v-5.088v-5.095v-4.586H106.864v4.586v5.095v5.088v5.095v4.339v5.088v5.095v5.088v4.524v5.095v5.088v5.095v4.717v5.088v4.841
			h188.054V171.822z M179.799,179.558h-57.741v2.517h57.741V179.558z"/>
		<polygon fill="#E44C23" points="298.539,192.883 298.539,187.363 297.042,186.344 297.042,191.764 		"/>
		<g>
			<rect x="126.154" y="177.527" fill="#E44C23" width="7.235" height="1.145"/>
		</g>
		<g>
			<rect x="136.277" y="177.527" fill="#E44C23" width="7.235" height="1.145"/>
		</g>
		<g>
			<rect x="209.915" y="178.099" fill="#E44C23" width="7.235" height="1.145"/>
		</g>
		<g>
			<rect x="220.038" y="178.099" fill="#E44C23" width="7.235" height="1.145"/>
		</g>
	</g>
</g>
</svg>
