<?xml version="1.0" encoding="utf-8"?>
<!-- Generator: Adobe Illustrator 17.0.0, SVG Export Plug-In . SVG Version: 6.00 Build 0)  -->
<!DOCTYPE svg PUBLIC "-//W3C//DTD SVG 1.1//EN" "http://www.w3.org/Graphics/SVG/1.1/DTD/svg11.dtd">
<svg version="1.1" id="Layer_1" xmlns="http://www.w3.org/2000/svg" xmlns:xlink="http://www.w3.org/1999/xlink" x="0px" y="0px"
	 width="300px" height="126.333px" viewBox="0 86.5 300 126.333" enable-background="new 0 86.5 300 126.333" xml:space="preserve">
<g display="none">
	<path display="inline" fill="#F27222" d="M76.34,147.728c0,0,0,2.519-3.32,2.92c-7.327,0.916-35.148-12.308-41.274,13.796
		c-10.705,45.567,112.773,106.075,111.113,74.19l-0.687-13.166c-0.687-12.651-77.911,0.859-93.023-42.705
		c-10.762-31.199,28.623-7.556,35.149,1.431c0,0,4.637-20.952,4.637-22.612C88.934,159.864,76.34,147.728,76.34,147.728
		L76.34,147.728z"/>
	<path display="inline" fill="#D15D1C" d="M76.34,147.728c0,0,0,2.519-3.32,2.92c-1.603,0.229-4.236-0.286-7.385-0.859
		c4.122,7.213,7.671,16.315,5.667,23.928l0,0c5.839,3.549,10.991,7.671,12.995,10.476c0,0,4.637-20.952,4.637-22.612
		C88.934,159.864,76.34,147.728,76.34,147.728L76.34,147.728z M85.613,231.535c28.794,16.143,58.047,22.726,57.245,7.098
		l-0.687-13.166c-0.401-7.442-27.306-5.839-52.494-12.136c0.744,3.206,0.515,7.327-1.431,12.594
		C87.502,228.1,86.586,229.932,85.613,231.535L85.613,231.535z"/>
	<path display="inline" fill="#F27222" d="M262.386,142.976c-4.637,52.551-28.336,128.172-93.252,128.172
		c-64.401,0-88.157-76.251-92.737-128.172c34.004,0.458,67.95,0.916,101.896,1.088L262.386,142.976z"/>
	<path display="inline" fill="#D15D1C" d="M251.453,197.016c-12.995,39.041-38.068,74.133-82.319,74.133
		c-43.792,0-68.751-35.263-81.746-74.133c2.92,5.152,4.98,9.388,7.442,14.655c14.311,30.741,37.782,55.299,74.304,55.299
		c38.297,0,62.226-26.276,76.422-58.619C247.732,203.313,248.132,203.255,251.453,197.016L251.453,197.016z"/>
	<path display="inline" fill="#D15D1C" d="M256.09,162.211c-4.465,28.565-18.948,69.553-43.964,89.245
		c6.755-16.658,14.254-40.988,0.057-70.24C230.558,178.869,246.816,170.282,256.09,162.211L256.09,162.211z"/>
	<path display="inline" fill="#FFFFFF" d="M169.363,101.932c123.878,0,123.936,79.399,0,79.399S45.485,101.932,169.363,101.932
		L169.363,101.932z"/>
	<path display="inline" fill="#CCCCCC" d="M169.363,177.896c47.743,0,86.726-16.544,86.726-36.752s-38.984-36.751-86.726-36.751
		c-47.8,0-86.726,16.544-86.726,36.751S121.563,177.896,169.363,177.896L169.363,177.896z"/>
	<path display="inline" fill="#131416" d="M169.363,177.953c44.651,0,81.059-13.796,81.059-30.683s-36.408-30.683-81.059-30.683
		s-81.059,13.796-81.059,30.683S124.712,177.953,169.363,177.953L169.363,177.953z"/>
	<path display="inline" fill="#434844" d="M165.871,120.25c-16.487,0-31.599,2.175-43.392,5.896
		c-38.755,12.021-29.252,21.925-2.805,16.086c30.397-6.755,52.551-12.708,79.685,5.496c10.419,7.041,19.692,15.8,32.401,9.903
		c5.038-2.29,9.331-6.297,9.331-10.819C241.091,132.5,203.653,120.25,165.871,120.25L165.871,120.25z"/>
	<path display="inline" fill="#FFFFFF" d="M169.363,114.812c44.766,0,81.059,13.739,81.059,30.683c0,0.344-0.057,0.63-0.057,0.916
		c-1.202-16.544-37.038-29.825-81.002-29.825c-44.021,0-79.857,13.281-81.059,29.825c0-0.286,0-0.572,0-0.916
		C88.304,128.551,124.597,114.812,169.363,114.812L169.363,114.812z"/>
	<path display="inline" fill="#D15D1C" d="M48.919,151.678c4.064-0.573,7.499-0.744,8.93,1.832c1.488,2.519-2.29,5.438-6.411,5.953
		c-4.064,0.573-7.671,0.515-8.358-1.603C42.393,155.685,44.798,152.193,48.919,151.678L48.919,151.678z"/>
	<path display="inline" fill="#D15D1C" d="M39.302,163.527c1.317,0,2.462-0.973,2.462-2.175s-1.145-2.175-2.462-2.175
		c-1.374,0-2.462,0.973-2.462,2.175C36.841,162.554,37.928,163.527,39.302,163.527L39.302,163.527z"/>
	<g display="inline">
		<path fill="#F2F2F2" d="M147.868,86.676c0,0-8.492-4.476-10.123-9.956c-1.631-5.522-0.837-10.333-0.837-10.333
			s-5.187,9.621-2.719,14.767C136.657,86.3,147.868,86.676,147.868,86.676L147.868,86.676z"/>
	</g>
</g>
<g>
	<rect x="6.929" y="175.049" fill="#1D1D28" width="32.515" height="17.072"/>
	<g>
		<path fill="#373747" d="M24.192,193.743c-1.362,0-1.532,2.117-0.16,2.117C25.394,195.86,25.564,193.743,24.192,193.743z"/>
		<path fill="#373747" d="M27.426,196.604c-1.372,0-1.532,2.128-0.16,2.128C28.629,198.732,28.788,196.604,27.426,196.604z"/>
		<path fill="#373747" d="M28.533,194.647c0-0.692-0.574-1.266-1.266-1.266c-0.702,0-1.277,0.574-1.277,1.266
			c0,0.702,0.575,1.266,1.277,1.266C27.958,195.913,28.533,195.349,28.533,194.647z"/>
		<path fill="#373747" d="M27.171,192.54c1.362,0,1.521-2.128,0.16-2.128C25.958,190.413,25.798,192.54,27.171,192.54z"/>
		<path fill="#373747" d="M30.458,193.806c-1.362,0-1.532,2.128-0.16,2.128C31.661,195.934,31.831,193.806,30.458,193.806z"/>
		<path fill="#D9D9E7" d="M24.192,193.743c-1.362,0-1.532,2.117-0.16,2.117C25.394,195.86,25.564,193.743,24.192,193.743z
			 M27.426,196.604c-1.372,0-1.532,2.128-0.16,2.128C28.629,198.732,28.788,196.604,27.426,196.604z M27.33,190.413
			c-1.372,0-1.532,2.128-0.16,2.128C28.533,192.54,28.692,190.413,27.33,190.413z M25.99,194.647c0,0.702,0.575,1.266,1.277,1.266
			c0.692,0,1.266-0.564,1.266-1.266c0-0.692-0.574-1.266-1.266-1.266C26.565,193.381,25.99,193.955,25.99,194.647z M30.299,195.934
			c1.362,0,1.532-2.128,0.16-2.128C29.097,193.806,28.926,195.934,30.299,195.934z M27.267,199.53c-2.702,0-4.883-2.181-4.883-4.883
			c0-2.692,2.181-4.873,4.883-4.873c2.692,0,4.873,2.181,4.873,4.873C32.139,197.349,29.958,199.53,27.267,199.53z"/>
		<path fill="#BDBDCB" d="M22.383,194.647c0,2.702,2.181,4.883,4.883,4.883c2.692,0,4.873-2.181,4.873-4.883
			c0-2.692-2.181-4.873-4.873-4.873C24.564,189.774,22.383,191.955,22.383,194.647z M27.267,203.424
			c-4.851,0-8.777-3.926-8.777-8.777c0-4.841,3.926-8.766,8.777-8.766c4.841,0,8.766,3.926,8.766,8.766
			C36.033,199.498,32.107,203.424,27.267,203.424z"/>
		<path fill="#3A3A4C" d="M18.489,194.647c0,4.851,3.926,8.777,8.777,8.777c4.841,0,8.766-3.926,8.766-8.777
			c0-4.841-3.926-8.766-8.766-8.766C22.415,185.88,18.489,189.806,18.489,194.647z M39.236,194.647
			c0,6.617-5.362,11.979-11.969,11.979c-6.617,0-11.979-5.362-11.979-11.979c0-6.607,5.362-11.969,11.979-11.969
			C33.873,182.678,39.236,188.04,39.236,194.647z"/>
		<path fill="#1D1D28" d="M27.267,179.433c8.405,0,15.214,6.809,15.214,15.214c0,8.415-6.809,15.224-15.214,15.224
			c-8.415,0-15.224-6.809-15.224-15.224C12.042,186.242,18.851,179.433,27.267,179.433z M39.236,194.647
			c0-6.607-5.362-11.969-11.969-11.969c-6.617,0-11.979,5.362-11.979,11.969c0,6.617,5.362,11.979,11.979,11.979
			C33.873,206.626,39.236,201.264,39.236,194.647z"/>
	</g>
	<g>
		<path fill="#373747" d="M264.835,193.743c-1.362,0-1.532,2.117-0.16,2.117C266.037,195.86,266.207,193.743,264.835,193.743z"/>
		<path fill="#373747" d="M268.069,196.604c-1.372,0-1.532,2.128-0.16,2.128C269.271,198.732,269.431,196.604,268.069,196.604z"/>
		<path fill="#373747" d="M269.176,194.647c0-0.692-0.574-1.266-1.266-1.266c-0.702,0-1.277,0.574-1.277,1.266
			c0,0.702,0.574,1.266,1.277,1.266C268.601,195.913,269.176,195.349,269.176,194.647z"/>
		<path fill="#373747" d="M267.814,192.54c1.362,0,1.521-2.128,0.16-2.128C266.601,190.413,266.441,192.54,267.814,192.54z"/>
		<path fill="#373747" d="M271.101,193.806c-1.362,0-1.532,2.128-0.16,2.128C272.303,195.934,272.474,193.806,271.101,193.806z"/>
		<path fill="#D9D9E7" d="M264.835,193.743c-1.362,0-1.532,2.117-0.16,2.117C266.037,195.86,266.207,193.743,264.835,193.743z
			 M268.069,196.604c-1.372,0-1.532,2.128-0.16,2.128C269.271,198.732,269.431,196.604,268.069,196.604z M267.973,190.413
			c-1.372,0-1.532,2.128-0.16,2.128C269.176,192.54,269.335,190.413,267.973,190.413z M266.633,194.647
			c0,0.702,0.574,1.266,1.277,1.266c0.692,0,1.266-0.564,1.266-1.266c0-0.692-0.574-1.266-1.266-1.266
			C267.207,193.381,266.633,193.955,266.633,194.647z M270.942,195.934c1.362,0,1.532-2.128,0.16-2.128
			C269.74,193.806,269.569,195.934,270.942,195.934z M267.91,199.53c-2.702,0-4.883-2.181-4.883-4.883
			c0-2.692,2.181-4.873,4.883-4.873c2.692,0,4.873,2.181,4.873,4.873C272.782,197.349,270.601,199.53,267.91,199.53z"/>
		<path fill="#BDBDCB" d="M263.026,194.647c0,2.702,2.181,4.883,4.883,4.883c2.692,0,4.873-2.181,4.873-4.883
			c0-2.692-2.181-4.873-4.873-4.873C265.207,189.774,263.026,191.955,263.026,194.647z M267.91,203.424
			c-4.851,0-8.777-3.926-8.777-8.777c0-4.841,3.926-8.766,8.777-8.766c4.841,0,8.766,3.926,8.766,8.766
			C276.676,199.498,272.75,203.424,267.91,203.424z"/>
		<path fill="#3A3A4C" d="M259.132,194.647c0,4.851,3.926,8.777,8.777,8.777c4.841,0,8.766-3.926,8.766-8.777
			c0-4.841-3.926-8.766-8.766-8.766C263.058,185.88,259.132,189.806,259.132,194.647z M279.878,194.647
			c0,6.617-5.362,11.979-11.969,11.979c-6.617,0-11.98-5.362-11.98-11.979c0-6.607,5.362-11.969,11.98-11.969
			C274.516,182.678,279.878,188.04,279.878,194.647z"/>
		<path fill="#1D1D28" d="M267.91,179.433c8.405,0,15.214,6.809,15.214,15.214c0,8.415-6.809,15.224-15.214,15.224
			c-8.415,0-15.224-6.809-15.224-15.224C252.685,186.242,259.494,179.433,267.91,179.433z M279.878,194.647
			c0-6.607-5.362-11.969-11.969-11.969c-6.617,0-11.98,5.362-11.98,11.969c0,6.617,5.362,11.979,11.98,11.979
			C274.516,206.626,279.878,201.264,279.878,194.647z"/>
	</g>
	<g>
		<path fill="#373747" d="M219.032,193.743c-1.362,0-1.532,2.117-0.16,2.117C220.234,195.86,220.404,193.743,219.032,193.743z"/>
		<path fill="#373747" d="M222.266,196.604c-1.372,0-1.532,2.128-0.16,2.128C223.468,198.732,223.628,196.604,222.266,196.604z"/>
		<path fill="#373747" d="M223.372,194.647c0-0.692-0.575-1.266-1.266-1.266c-0.702,0-1.277,0.574-1.277,1.266
			c0,0.702,0.575,1.266,1.277,1.266C222.798,195.913,223.372,195.349,223.372,194.647z"/>
		<path fill="#373747" d="M222.011,192.54c1.362,0,1.521-2.128,0.16-2.128C220.798,190.413,220.638,192.54,222.011,192.54z"/>
		<path fill="#373747" d="M225.298,193.806c-1.362,0-1.532,2.128-0.16,2.128C226.5,195.934,226.67,193.806,225.298,193.806z"/>
		<path fill="#D9D9E7" d="M219.032,193.743c-1.362,0-1.532,2.117-0.16,2.117C220.234,195.86,220.404,193.743,219.032,193.743z
			 M222.266,196.604c-1.372,0-1.532,2.128-0.16,2.128C223.468,198.732,223.628,196.604,222.266,196.604z M222.17,190.413
			c-1.372,0-1.532,2.128-0.16,2.128C223.372,192.54,223.532,190.413,222.17,190.413z M220.83,194.647
			c0,0.702,0.575,1.266,1.277,1.266c0.692,0,1.266-0.564,1.266-1.266c0-0.692-0.575-1.266-1.266-1.266
			C221.404,193.381,220.83,193.955,220.83,194.647z M225.138,195.934c1.362,0,1.532-2.128,0.16-2.128
			C223.936,193.806,223.766,195.934,225.138,195.934z M222.106,199.53c-2.702,0-4.883-2.181-4.883-4.883
			c0-2.692,2.181-4.873,4.883-4.873c2.692,0,4.873,2.181,4.873,4.873C226.979,197.349,224.798,199.53,222.106,199.53z"/>
		<path fill="#BDBDCB" d="M217.223,194.647c0,2.702,2.181,4.883,4.883,4.883c2.692,0,4.873-2.181,4.873-4.883
			c0-2.692-2.181-4.873-4.873-4.873C219.404,189.774,217.223,191.955,217.223,194.647z M222.106,203.424
			c-4.851,0-8.777-3.926-8.777-8.777c0-4.841,3.926-8.766,8.777-8.766c4.841,0,8.766,3.926,8.766,8.766
			C230.873,199.498,226.947,203.424,222.106,203.424z"/>
		<path fill="#3A3A4C" d="M213.329,194.647c0,4.851,3.926,8.777,8.777,8.777c4.841,0,8.766-3.926,8.766-8.777
			c0-4.841-3.926-8.766-8.766-8.766C217.255,185.88,213.329,189.806,213.329,194.647z M234.075,194.647
			c0,6.617-5.362,11.979-11.969,11.979c-6.617,0-11.979-5.362-11.979-11.979c0-6.607,5.362-11.969,11.979-11.969
			C228.713,182.678,234.075,188.04,234.075,194.647z"/>
		<path fill="#1D1D28" d="M222.106,179.433c8.405,0,15.214,6.809,15.214,15.214c0,8.415-6.809,15.224-15.214,15.224
			c-8.415,0-15.224-6.809-15.224-15.224C206.882,186.242,213.691,179.433,222.106,179.433z M234.075,194.647
			c0-6.607-5.362-11.969-11.969-11.969c-6.617,0-11.979,5.362-11.979,11.969c0,6.617,5.362,11.979,11.979,11.979
			C228.713,206.626,234.075,201.264,234.075,194.647z"/>
	</g>
	<g>
		<path fill="#1D1D28" d="M1.405,183.096l-0.625,0.317c0,0,0.587,5.443,0.973,6.871c0.378,1.421,2.633,1.838,2.633,1.838H9.38
			c0,0-0.757-5.142,1.668-10.199C6.053,182.17,1.405,183.096,1.405,183.096z"/>
		<path fill="#B4B4C5" d="M2.964,168.142c-1.096,0.903-1.428,6.84-1.521,10.955c0.062-0.201,1.119-3.49,1.691-7.033
			c0.17-1.027,0.224-1.783,0.224-2.347C3.358,168.281,2.964,168.142,2.964,168.142z"/>
		<path fill="#8787A7" d="M3.065,181.166c0.077-5.165,3.219-6.292,3.69-6.431c-0.17,0.015-0.324,0.039-0.479,0.069
			c-4.107,0.811-4.794,5.898-4.864,6.57c0,0.008,0,0.015,0,0.023c-0.008,0.015-0.008,0.031,0,0.046
			C1.498,181.428,2.216,181.305,3.065,181.166z"/>
		<path fill="#F17121" d="M3.358,169.562c0,0,1.683-0.494,4.246-1.197l-0.185-2.308c-2.324,0.865-3.891,1.621-4.455,2.084
			c0,0,0.394,0.139,0.394,1.575C3.358,169.716,3.358,169.562,3.358,169.562z"/>
		<path fill="#E0631E" d="M3.358,169.717v1.459c1.451-0.517,2.911-0.996,4.362-1.421l-0.116-1.39
			c-2.563,0.703-4.246,1.197-4.246,1.197S3.358,169.717,3.358,169.717z"/>
		<path fill="#E44C23" d="M5.474,177.669c-0.417,0-0.757,0.463-0.757,1.042c0,0.571,0.34,1.042,0.757,1.042s0.749-0.471,0.749-1.042
			C6.222,178.132,5.891,177.669,5.474,177.669z"/>
		<path fill="#B4B4C5" d="M5.474,179.753c0.417,0,0.749-0.471,0.749-1.042c0-0.579-0.332-1.042-0.749-1.042
			c-0.417,0-0.757,0.463-0.757,1.042C4.717,179.282,5.057,179.753,5.474,179.753z M6.817,180.062
			c-0.208,0.463-0.425,0.641-0.942,0.695c-0.579,0.054-1.791,0.239-2.81,0.409c0.077-5.165,3.219-6.292,3.69-6.431
			c0.116-0.015,0.239-0.023,0.371-0.031c0,0,2.015-0.124,0.803,2.563C7.288,178.68,7.056,179.545,6.817,180.062z"/>
		<path fill="#1D1D28" d="M9.488,163.525v-3.397H8.315c-2.887,0-2.123,3.227-2.123,3.227h1.004l0.224,2.702
			c0.332-0.131,0.679-0.255,1.035-0.386l-0.386-2.146H9.488z"/>
		<path fill="#F17121" d="M7.126,174.704c0,0,2.015-0.124,0.803,2.563c-0.641,1.413-0.872,2.278-1.112,2.795l5.636-0.525
			c0.355-0.502,0.757-0.988,1.197-1.467c2.841-3.065,9.921-4.03,14.7-4.331l0.131-3.683l-0.201-0.008
			c-4.015-0.131-10.724,0.865-14.375,1.822c-3.644,0.965-7.682,2.602-7.682,2.602l0.054,0.332c0.154-0.031,0.309-0.054,0.479-0.069
			C6.871,174.719,6.994,174.712,7.126,174.704z"/>
		<path fill="#1D1D28" d="M7.419,166.057l0.185,2.308c0.409-0.108,0.834-0.224,1.274-0.34l-0.425-2.355
			C8.099,165.802,7.751,165.926,7.419,166.057z"/>
		<path fill="#F17121" d="M8.454,165.671l0.425,2.355c5.736-1.529,14.592-3.683,19.803-3.961l0.116-3.281
			C20.606,161.942,13.248,163.965,8.454,165.671z"/>
		<path fill="#1D1D28" d="M8.963,168.489l-0.085-0.463c-0.44,0.116-0.865,0.232-1.274,0.34l0.116,1.39
			c0.888-0.263,1.768-0.502,2.64-0.733c-0.046-0.317-0.108-0.533-0.108-0.533L8.963,168.489L8.963,168.489z"/>
		<path fill="#F17121" d="M10.044,170.99c-0.71,0.764-1.93,0.764-2.224,0l-0.1-1.235c-1.451,0.425-2.911,0.903-4.362,1.421v-1.459
			c0,0.564-0.054,1.32-0.224,2.347c-0.571,3.544-1.629,6.833-1.691,7.033c-0.023,0.857-0.031,1.637-0.031,2.277
			c0.069-0.672,0.757-5.759,4.864-6.57l-0.054-0.332c0,0,4.038-1.637,7.682-2.602c3.652-0.957,10.361-1.953,14.375-1.822
			l0.201,0.008l0.147-4.208c-0.757,0.054-8.987,0.741-18.267,3.173C10.453,169.593,10.5,170.496,10.044,170.99z"/>
		<path fill="#F17121" d="M1.405,182.123c3.312-0.71,7.589-1.073,10.183-1.235c0.255-0.455,0.548-0.911,0.865-1.351l-5.636,0.525
			c-0.208,0.463-0.425,0.641-0.942,0.695c-0.579,0.054-1.791,0.239-2.81,0.409c-0.849,0.139-1.567,0.262-1.652,0.278
			C1.405,181.691,1.405,181.923,1.405,182.123z"/>
		<path fill="#F17121" d="M1.405,183.096c0,0,4.648-0.926,9.643-1.174c0.162-0.347,0.347-0.695,0.54-1.035
			c-2.594,0.162-6.871,0.525-10.183,1.235C1.405,182.733,1.405,183.096,1.405,183.096z"/>
		<path fill="#1D1D28" d="M10.044,170.99c0.456-0.494,0.409-1.397,0.317-1.969c-0.872,0.232-1.753,0.471-2.64,0.733l0.1,1.235
			C8.114,171.755,9.334,171.755,10.044,170.99z"/>
		<path fill="#3A3A4C" d="M11.465,188.083c0-2.278,0.625-4.408,1.714-6.23c-0.71,0.008-1.421,0.031-2.131,0.069
			c-2.424,5.057-1.668,10.199-1.668,10.199h2.085V188.083z"/>
		<path fill="#D35916" d="M11.588,180.888c-0.193,0.34-0.378,0.687-0.54,1.035c0.71-0.039,1.421-0.062,2.131-0.069
			c0.216-0.378,0.463-0.749,0.726-1.096C13.904,180.757,12.993,180.788,11.588,180.888z"/>
		<path fill="#D35916" d="M12.453,179.537c-0.317,0.44-0.61,0.896-0.865,1.351c1.405-0.1,2.316-0.131,2.316-0.131
			c0.401-0.525,0.842-1.027,1.32-1.482L12.453,179.537z"/>
		<path fill="#E0631E" d="M28.681,164.065c-5.211,0.278-14.067,2.432-19.803,3.961l0.085,0.463h1.289c0,0,0.062,0.216,0.108,0.533
			c9.28-2.432,17.51-3.119,18.267-3.173l0.054-1.683v-0.093C28.681,164.073,28.681,164.065,28.681,164.065z"/>
		<path fill="#F17121" d="M26.18,175.877c3.961,1.382,5.945,4.787,6.925,8.122h28.689v-2.548h-6.022H37.799l-2.432-3.382
			l-1.575-2.193H28.28h-2.1V175.877z"/>
		<path fill="#D35916" d="M15.225,179.274c2.193-2.108,5.165-3.397,8.446-3.397h2.509h2.1l0.069-2.139
			c-4.779,0.301-11.859,1.266-14.7,4.331c-0.44,0.479-0.842,0.965-1.197,1.467L15.225,179.274z"/>
		<path fill="#BC490F" d="M28.681,164.065v0.008c0.023,0.185,0.355,2.818,2.386,2.162c1.984-0.641,2.038-2.818,2.038-3.057
			c0-0.015,0-0.023,0-0.023L28.681,164.065z"/>
		<path fill="#E44C23" d="M30.596,171.562c-0.803,0-1.451,0.363-1.451,0.803c0,0.448,0.648,0.811,1.451,0.811
			c0.795,0,1.444-0.363,1.444-0.811C32.04,171.925,31.391,171.562,30.596,171.562z"/>
		<path fill="#E0631E" d="M30.596,173.175c0.795,0,1.444-0.363,1.444-0.811c0-0.44-0.649-0.803-1.444-0.803
			c-0.803,0-1.451,0.363-1.451,0.803C29.144,172.812,29.793,173.175,30.596,173.175z M28.48,170.056l0.147-4.208
			c0.039-0.008,0.054-0.008,0.054-0.008v-1.675v-0.093c0.023,0.185,0.355,2.818,2.386,2.162c1.984-0.641,2.038-2.818,2.038-3.057
			v10.446c0,0-2-0.054-4.756,0.116L28.48,170.056z"/>
		<path fill="#E0631E" d="M33.105,163.154v-5.427c-0.594,1.143-0.996,1.915-0.996,1.915s-0.517,1.096-3.312,1.143l-0.116,3.281
			L33.105,163.154z"/>
		<path fill="#BC490F" d="M36.479,141.738l-4.37,5.273h3.822h0.641c-0.031-0.093-0.054-0.147-0.054-0.147h0.842
			c0,0,0.023,0.054,0.046,0.147h0.463c0,0,0.069-1.644,2.64-2.362l0.456-0.502l2.177-2.409h-2.324H36.479z"/>
		<path fill="#D35916" d="M28.28,175.877h5.512h1.197l-1.884-2.254c0,0-2-0.054-4.756,0.116L28.28,175.877z"/>
		<path fill="#E0631E" d="M61.794,183.999H33.105c0.71,2.386,0.903,4.733,0.942,6.284h6.825l-1.197-1.598h22.119
			C61.794,188.685,61.794,183.999,61.794,183.999z"/>
		<polygon fill="#1D1D28" points="35.56,177.931 37.799,177.931 55.772,177.931 55.185,175.877 34.989,175.877 33.792,175.877 
			35.367,178.07 		"/>
		<path fill="#1D1D28" d="M34.016,192.121h48.546h7.913v-1.838h-4.061H40.872h-6.825C34.07,191.411,34.016,192.121,34.016,192.121z"
			/>
		<polygon fill="#F17121" points="35.367,178.07 37.799,181.452 37.799,177.931 35.56,177.931 		"/>
		<path fill="#64648B" d="M36.865,148.779c0.17-0.394-0.162-1.39-0.293-1.768h-0.641l-6.833,13.186
			c1.722-0.178,2.424-0.903,2.424-0.903S36.656,149.265,36.865,148.779z"/>
		<path fill="#E0631E" d="M37.359,146.864h-0.842c0,0,0.023,0.054,0.054,0.147h0.834C37.382,146.918,37.359,146.864,37.359,146.864z
			"/>
		<path fill="#1D1D28" d="M36.571,147.011c0.131,0.378,0.463,1.374,0.293,1.768c-0.208,0.486-5.343,10.515-5.343,10.515
			s-0.703,0.726-2.424,0.903l-0.301,0.587c2.795-0.046,3.312-1.143,3.312-1.143s0.401-0.772,0.996-1.915
			c1.56-3.019,4.432-8.601,4.524-9.095c0.093-0.525-0.124-1.305-0.224-1.621L36.571,147.011L36.571,147.011z"/>
		<polygon fill="#424268" points="36.996,157.65 38.926,157.65 38.926,156.051 37.884,156.051 37.83,156.028 		"/>
		<rect x="37.799" y="177.931" fill="#E0631E" width="17.973" height="3.521"/>
		<polygon fill="#64648B" points="38.926,153.905 37.83,156.028 37.884,156.051 38.926,156.051 		"/>
		<path fill="#64648B" d="M37.035,159.742c0.394,0.587,1.058,0.896,1.753,0.818l0.139-0.015v-2.895h-1.93l-0.085,0.162
			C36.587,158.437,36.633,159.163,37.035,159.742z"/>
		<path fill="#1D1D28" d="M38.587,161.348c0.093,0,0.185-0.008,0.278-0.015l0.062-0.008v-0.78l-0.139,0.015
			c-0.695,0.077-1.359-0.232-1.753-0.818c-0.401-0.579-0.448-1.305-0.124-1.93l0.085-0.162l0.834-1.621l1.096-2.123v-1.683
			l-2.694,5.234c-0.456,0.88-0.394,1.899,0.162,2.725C36.903,160.923,37.706,161.348,38.587,161.348z"/>
		<path fill="#3A3A4C" d="M39.853,161.757h-0.926v2.085h0.926C39.853,163.841,39.86,163.123,39.853,161.757z"/>
		<path fill="#3A3A4C" d="M38.926,152.222l0.371-0.726c-0.216,0.093-0.371,0.309-0.371,0.556V152.222z"/>
		<path fill="#3A3A4C" d="M39.297,151.496l-0.371,0.726v1.683l1.266-2.455h-0.664C39.443,151.45,39.366,151.465,39.297,151.496z"/>
		<path fill="#1D1D28" d="M39.853,163.841h-0.926v-2.085h-1.791c-0.147,0-0.27,0.124-0.27,0.278v3.613
			c0,0.154,0.124,0.278,0.27,0.278h2.718c0.147,0,0.27-0.124,0.27-0.278v-3.613c0-0.154-0.124-0.278-0.27-0.278
			C39.86,163.123,39.853,163.841,39.853,163.841z"/>
		<path fill="#3A3A4C" d="M39.961,161.224l-1.035,0.1v0.432h0.926C39.853,161.548,39.891,161.371,39.961,161.224z"/>
		<path fill="#F17121" d="M70.487,123.101c6.67-1.297,12.353-1.59,16.414-1.544c0.046,0.355,1.32,10.299,2.084,22.59H65.492
			c-1.351-1.328-3.744-1.938-5.373-2.2v-11.241h-0.093v11.226c-0.95-0.154-1.614-0.193-1.614-0.193h-15.27h-2.324
			C46.855,134.349,56.853,125.756,70.487,123.101z M81.389,138.441c1.181,0.926,2.895-0.031,2.733-1.521l-0.409-3.629
			c-0.255-2.262-2.216-3.945-4.486-3.86l-4.81,0.193c-1.397,0.062-1.969,1.822-0.865,2.687L81.389,138.441z"/>
		<path fill="#3A3A4C" d="M40.192,151.45l-1.266,2.455v2.146v1.598v2.895l2.586-0.262v-2.841v-1.39v-2.184v-1.791
			c0-0.147-0.054-0.286-0.147-0.394c-0.108-0.139-0.278-0.232-0.471-0.232H40.192z"/>
		<path fill="#BC490F" d="M43.142,141.738l-2.177,2.409h17.657h1.405v-2.216c-0.95-0.154-1.614-0.193-1.614-0.193H43.142z"/>
		<path fill="#3A3A4C" d="M38.926,160.545v0.78l1.035-0.1c0.363-0.787,1.552-0.679,1.552-0.679v-0.262L38.926,160.545z"/>
		<polygon fill="#64648B" points="41.513,153.867 41.513,156.051 41.652,156.051 52.684,156.051 52.684,153.867 41.652,153.867 		
			"/>
		<polygon fill="#424268" points="41.513,157.441 52.684,157.441 52.684,156.051 41.652,156.051 41.513,156.051 		"/>
		<path fill="#1D1D28" d="M50.746,170.018v2.887c0,0.726,0.587,1.32,1.312,1.32c0.633,0,1.181-0.456,1.297-1.081l0.703-3.05
			c0.17-0.926-0.656-1.729-1.575-1.521l-0.71,0.154C51.171,168.86,50.746,169.4,50.746,170.018z"/>
		<path fill="#64648B" d="M50.978,159.325c0.973-0.093,1.706-0.911,1.706-1.884H41.513v2.841L50.978,159.325z"/>
		<path fill="#424268" d="M40.191,151.453h0.703c0.193,0,0.363,0.093,0.471,0.232c0.093,0.108,0.147,0.247,0.147,0.394v1.791h11.171
			v-3.814c0-0.224-0.039-0.44-0.116-0.641c-0.255-0.726-0.957-1.251-1.783-1.251H43.04c-0.71,0-1.359,0.394-1.683,1.027
			l-0.093,0.178l-0.594,1.158L40.191,151.453z"/>
		<path fill="#1D1D28" d="M52.684,157.441c0,0.973-0.733,1.791-1.706,1.884l-9.465,0.957v0.262c0,0-1.189-0.108-1.552,0.679
			l11.094-1.127c1.367-0.139,2.401-1.282,2.401-2.656v-7.388c0-1.467-1.197-2.663-2.671-2.663h-7.744
			c-1.004,0-1.907,0.556-2.37,1.444l-1.374,2.663c0.069-0.031,0.147-0.046,0.232-0.046h0.664l0.479-0.926l0.594-1.158l0.093-0.178
			c0.324-0.633,0.973-1.027,1.683-1.027h7.744c0.826,0,1.529,0.525,1.783,1.251c0.077,0.201,0.116,0.417,0.116,0.641v0.479v1.15
			v2.185v2.185v1.389H52.684z"/>
		<path fill="#F17121" d="M34.989,175.877l-1.884-2.254v-10.446c0-0.015,0-0.023,0-0.023v-5.427c1.56-3.019,4.432-8.601,4.524-9.095
			c1.382-2.957,3.714-3.096,3.714-3.096s10.299,0.108,13.063,0c0.27-0.008,0.533-0.031,0.78-0.069v0.008v30.403L34.989,175.877
			L34.989,175.877z M53.356,173.144l0.703-3.05c0.17-0.926-0.656-1.729-1.575-1.521l-0.71,0.154
			c-0.602,0.131-1.027,0.672-1.027,1.289v2.887c0,0.726,0.587,1.32,1.312,1.32C52.692,174.225,53.24,173.77,53.356,173.144z
			 M38.926,161.324v0.432h-1.791c-0.147,0-0.27,0.124-0.27,0.278v3.613c0,0.154,0.124,0.278,0.27,0.278h2.718
			c0.147,0,0.27-0.124,0.27-0.278v-3.613c0-0.154-0.124-0.278-0.27-0.278c0-0.208,0.039-0.386,0.108-0.533l11.094-1.127
			c1.367-0.139,2.401-1.282,2.401-2.656v-7.388c0-1.467-1.197-2.663-2.671-2.663h-7.744c-1.004,0-1.907,0.556-2.37,1.444
			l-1.374,2.663c-0.216,0.093-0.371,0.309-0.371,0.556v0.17l-2.694,5.234c-0.456,0.88-0.394,1.899,0.162,2.725
			c0.51,0.741,1.313,1.166,2.193,1.166c0.093,0,0.185-0.008,0.278-0.015L38.926,161.324z"/>
		<path fill="#D35916" d="M40.509,144.648c-2.571,0.718-2.64,2.362-2.64,2.362h-0.463c0.1,0.317,0.317,1.096,0.224,1.621
			c1.382-2.957,3.714-3.096,3.714-3.096s10.299,0.108,13.063,0c0.27-0.008,0.533-0.031,0.78-0.069c2.247-0.27,3.436-1.32,3.436-1.32
			H40.964L40.509,144.648z"/>
		<polygon fill="#E0631E" points="55.772,177.931 55.772,181.452 61.794,181.452 61.794,178.587 60.181,178.587 57.888,177.931 		
			"/>
		<polygon fill="#1D1D28" points="65.407,178.587 70.92,178.587 86.901,178.587 90.476,178.587 93.178,175.877 88.808,175.877 
			55.185,175.877 55.772,177.931 57.888,177.931 60.181,178.587 61.794,178.587 		"/>
		<rect x="60.026" y="144.146" fill="#1D1D28" width="0.093" height="1.374"/>
		<path fill="#1D1D28" d="M60.026,141.931v2.216h0.093v-2.2C60.088,141.938,60.057,141.931,60.026,141.931z"/>
		<path fill="#1D1D28" d="M60.026,130.705v11.226c0.031,0,0.062,0.008,0.093,0.015v-11.241H60.026z"/>
		<path fill="#BC490F" d="M60.119,141.946v2.2h5.373C64.141,142.819,61.748,142.209,60.119,141.946z"/>
		<path fill="#1D1D28" d="M61.068,146.339c0.185-0.378-0.093-0.818-0.51-0.818c-0.139,0-0.293,0-0.44,0h-0.093
			c-0.116,0-0.232,0-0.34,0c-0.417,0-0.695,0.44-0.51,0.818l0.44,0.888c0.208,0.425,0.811,0.425,1.011,0L61.068,146.339z"/>
		<rect x="61.794" y="183.999" fill="#E0631E" width="25.107" height="4.686"/>
		<polygon fill="#F17121" points="61.794,181.452 61.794,183.999 86.901,183.999 86.901,181.452 70.92,181.452 65.407,181.452 		"/>
		<rect x="61.794" y="178.587" fill="#E0631E" width="3.613" height="2.864"/>
		<path fill="#424268" d="M66.928,179.56c-0.239,0-0.432,0.193-0.432,0.432c0,0.239,0.193,0.432,0.432,0.432h2.571
			c0.239,0,0.432-0.193,0.432-0.432c0-0.239-0.193-0.432-0.432-0.432H66.928z"/>
		<path fill="#1D1D28" d="M69.931,179.992c0-0.239-0.193-0.432-0.432-0.432h-2.571c-0.239,0-0.432,0.193-0.432,0.432
			c0,0.239,0.193,0.432,0.432,0.432h2.571C69.738,180.425,69.931,180.232,69.931,179.992z M65.407,181.452v-2.864h5.512v2.864
			H65.407z"/>
		<rect x="70.92" y="178.587" fill="#E0631E" width="15.981" height="2.864"/>
		<path fill="#F17121" d="M70.92,167.763v5.304c0,0.826,0.679,1.505,1.513,1.505h12.955c0.834,0,1.513-0.679,1.513-1.505v-5.304
			c0-0.834-0.679-1.513-1.513-1.513H72.433C71.599,166.25,70.92,166.929,70.92,167.763z"/>
		<path fill="#F17121" d="M74.911,146.393h7.983c0.98,0,1.783,0.803,1.783,1.783v13.21c0,0.981-0.803,1.783-1.783,1.783h-7.983
			c-0.98,0-1.783-0.803-1.783-1.783v-13.21C73.128,147.196,73.931,146.393,74.911,146.393z M78.756,157.696h1.822
			c0.27,0,0.494-0.216,0.494-0.494v-4.038c0-0.278-0.224-0.494-0.494-0.494h-1.822c-0.278,0-0.494,0.216-0.494,0.494v4.038
			C78.262,157.48,78.478,157.696,78.756,157.696z"/>
		<path fill="#1D1D28" d="M74.417,129.624c-1.397,0.062-1.969,1.822-0.865,2.687l7.836,6.13c1.181,0.926,2.895-0.031,2.733-1.521
			l-0.409-3.629c-0.255-2.262-2.216-3.945-4.486-3.86L74.417,129.624z"/>
		<path fill="#E0631E" d="M78.262,153.164v4.038c0,0.278,0.216,0.494,0.494,0.494h1.822c0.27,0,0.494-0.216,0.494-0.494v-4.038
			c0-0.278-0.224-0.494-0.494-0.494h-1.822C78.478,152.67,78.262,152.886,78.262,153.164z"/>
		<path fill="#E0631E" d="M73.128,148.177v13.21c0,0.981,0.803,1.783,1.783,1.783h7.983c0.98,0,1.783-0.803,1.783-1.783v-13.21
			c0-0.98-0.803-1.783-1.783-1.783h-7.983C73.931,146.393,73.128,147.196,73.128,148.177z M85.388,174.573
			c0.834,0,1.513-0.679,1.513-1.505v-5.304c0-0.834-0.679-1.513-1.513-1.513H72.433c-0.834,0-1.513,0.679-1.513,1.513v5.304
			c0,0.826,0.679,1.505,1.513,1.505H85.388z M88.808,175.877H55.185v-30.403v-0.007c2.247-0.27,3.436-1.32,3.436-1.32h1.405v1.374
			c-0.116,0-0.232,0-0.34,0c-0.417,0-0.695,0.44-0.51,0.818l0.44,0.888c0.208,0.425,0.811,0.425,1.011,0l0.44-0.888
			c0.185-0.378-0.093-0.818-0.51-0.818c-0.139,0-0.293,0-0.44,0v-1.374h5.373h23.493C89.626,154.507,89.92,166.528,88.808,175.877z"
			/>
		<polygon fill="#E0631E" points="86.901,188.686 86.415,190.284 90.476,190.284 90.476,189.828 90.476,187.281 90.476,183.999 
			86.901,183.999 		"/>
		<rect x="86.901" y="181.452" fill="#E0631E" width="3.575" height="2.548"/>
		<rect x="86.901" y="178.587" fill="#E0631E" width="3.575" height="2.864"/>
		<path fill="#F17121" d="M88.808,175.877h4.37v-2.339v-23.316c0-0.394,0.178-0.741,0.448-0.973v-5.103h-0.317h-4.323
			C89.626,154.507,89.92,166.528,88.808,175.877z"/>
		<path fill="#E0631E" d="M86.901,121.557c0.046,0.355,1.32,10.299,2.084,22.59h4.323h0.317v-22.15
			C93.625,121.997,91.147,121.595,86.901,121.557z"/>
		<path fill="#3A3A4C" d="M93.178,173.538v2.339l-2.702,2.71v2.864v2.548v3.281c3.768,0,3.219-1.768,3.219-1.768v-10.94
			C93.378,174.341,93.178,173.963,93.178,173.538z"/>
		<path fill="#1D1D28" d="M94.482,174.843c-0.293,0-0.571-0.1-0.787-0.27v10.94c0,0,0.548,1.768-3.219,1.768v2.548
			c5.752,0,5.675-3.119,5.675-3.119v-3.853v-8.014H94.482z"/>
		<path fill="#424268" d="M94.482,174.843c0.71,0,1.297-0.587,1.297-1.305V152.67v-2.447c0-0.432-0.216-0.818-0.54-1.05
			c-0.216-0.162-0.479-0.255-0.757-0.255c-0.324,0-0.625,0.124-0.857,0.332c-0.27,0.232-0.448,0.579-0.448,0.973v23.316
			c0,0.425,0.201,0.803,0.517,1.035C93.911,174.743,94.189,174.843,94.482,174.843z"/>
		<path fill="#616183" d="M96.15,117.858l-2.525,4.138v22.15v5.103c0.232-0.208,0.533-0.332,0.857-0.332
			c0.278,0,0.54,0.093,0.757,0.255v-3.791v-20.459v-2.231l1.019-1.737c0.502-0.865,0.772-1.845,0.772-2.849
			c0-0.293-0.239-0.479-0.479-0.479C96.397,117.627,96.243,117.704,96.15,117.858z"/>
		<path fill="#E0631E" d="M95.239,145.382v3.791c0.324,0.232,0.54,0.618,0.54,1.05v2.447h0.471v-7.288h-0.926L95.239,145.382
			L95.239,145.382z"/>
		<polygon fill="#E0631E" points="95.239,124.923 95.239,145.382 95.324,145.382 96.25,145.382 96.25,127.061 		"/>
		<path fill="#1D1D28" d="M95.779,173.538c0,0.718-0.587,1.305-1.297,1.305h1.668h2.756v-29.461H96.25v7.288h-0.471V173.538z"/>
		<path fill="#E0631E" d="M67.326,143.046h20.128c0.267,0,0.484-0.218,0.484-0.484l0,0c0-0.266-0.218-0.484-0.484-0.484H67.326
			c-0.266,0-0.484,0.218-0.484,0.484l0,0C66.841,142.828,67.059,143.046,67.326,143.046z"/>
		<g>
			<rect x="61.698" y="178.588" fill="#AC6600" width="0.193" height="10.098"/>
		</g>
		<g>
			<rect x="86.804" y="178.588" fill="#AC6600" width="0.193" height="10.098"/>
		</g>
		<g>
			<polygon fill="#AC6600" points="37.703,181.548 90.475,181.548 90.475,181.355 37.896,181.355 37.896,177.931 37.703,177.931 			
				"/>
		</g>
		<g>
			<rect x="55.089" y="145.474" fill="#AC6600" width="0.193" height="30.403"/>
		</g>
		<g>
			
				<rect x="22.093" y="167.173" transform="matrix(0.0345 -0.9994 0.9994 0.0345 -139.5806 190.0564)" fill="#AC6600" width="12.963" height="0.193"/>
		</g>
		<g>
			
				<rect x="3.278" y="168.87" transform="matrix(0.9625 -0.2712 0.2712 0.9625 -45.6191 7.8199)" fill="#AC6600" width="4.412" height="0.193"/>
		</g>
		<g>
			<path fill="#AC6600" d="M8.904,168.118c0.121-0.033,12.255-3.364,19.784-3.957l-0.015-0.193
				c-7.547,0.594-19.698,3.93-19.821,3.964L8.904,168.118z"/>
		</g>
		<g>
			<rect x="58.621" y="144.05" fill="#AC6600" width="1.405" height="0.193"/>
		</g>
		<g>
			<rect x="60.119" y="144.05" fill="#AC6600" width="28.866" height="0.193"/>
		</g>
		<g>
			<path fill="#AC6600" d="M88.903,175.89c0.024-0.185,2.361-18.859-1.907-54.345l-0.191,0.023
				c4.264,35.458,1.931,54.112,1.907,54.296L88.903,175.89z"/>
		</g>
		<g>
			<path fill="#AC6600" d="M73.039,161.386v-13.21c0-1.037,0.844-1.88,1.88-1.88h7.983c1.037,0,1.88,0.843,1.88,1.88v13.21
				c0,1.037-0.843,1.88-1.88,1.88h-7.983C73.882,163.266,73.039,162.423,73.039,161.386z M74.919,146.49
				c-0.93,0-1.687,0.757-1.687,1.687v13.21c0,0.93,0.757,1.687,1.687,1.687h7.983c0.93,0,1.687-0.757,1.687-1.687v-13.21
				c0-0.93-0.757-1.687-1.687-1.687H74.919z"/>
		</g>
		<g>
			<path fill="#AC6600" d="M70.823,173.178v-5.444c0-0.822,0.669-1.491,1.491-1.491h13.288c0.823,0,1.491,0.669,1.491,1.491v5.444
				c0,0.823-0.669,1.491-1.491,1.491H72.314C71.492,174.669,70.823,174.001,70.823,173.178z M72.314,166.436
				c-0.716,0-1.298,0.582-1.298,1.298v5.444c0,0.716,0.582,1.298,1.298,1.298h13.288c0.716,0,1.298-0.582,1.298-1.298v-5.444
				c0-0.715-0.582-1.298-1.298-1.298H72.314z"/>
		</g>
		<path fill="#F17121" d="M57.403,172.369L57.403,172.369c0.458,0,0.833-0.375,0.833-0.833v-22.542c0-0.458-0.375-0.833-0.833-0.833
			l0,0c-0.458,0-0.833,0.375-0.833,0.833v22.542C56.571,171.994,56.945,172.369,57.403,172.369z"/>
		<path fill="#F17121" d="M37.825,143.401h10.901c0.231,0,0.419-0.189,0.419-0.42l0,0c0-0.231-0.189-0.419-0.419-0.419H37.825
			c-0.231,0-0.419,0.189-0.419,0.419l0,0C37.405,143.212,37.594,143.401,37.825,143.401z"/>
	</g>
	<g>
		<path fill="#1D1D28" d="M204.074,193.909h87.542v-8.863H272.23c-1.065,1.853-3.065,3.096-5.358,3.096h-8.068h-5.134H230.2h-5.142
			h-8.446c-1.714,0-3.258-0.695-4.385-1.814c-0.378-0.378-0.71-0.811-0.981-1.282h-7.172V193.909z"/>
		<path fill="#3A3A4C" d="M102.195,182.185v-4.169h-2.038v4.841H96.15v3.853c0,0,0.077,3.119-5.675,3.119v0.456v1.838h-7.913v5.273
			h30.604v-3.297v-8.863v-3.05L102.195,182.185L102.195,182.185z"/>
		<path fill="#8C8CA2" d="M102.195,96.944H299.22c0,0-16.9-7.481-102.373-7.481C111.382,89.463,102.195,96.944,102.195,96.944z"/>
		<rect x="106.681" y="122.468" fill="#E5E5E7" width="188.054" height="4.339"/>
		<rect x="106.681" y="117.372" fill="#D3D3D5" width="188.054" height="5.095"/>
		<rect x="106.681" y="112.284" fill="#E5E5E7" width="188.054" height="5.088"/>
		<rect x="106.681" y="107.189" fill="#D3D3D5" width="188.054" height="5.095"/>
		<rect x="106.681" y="102.603" fill="#E5E5E7" width="188.054" height="4.586"/>
		<rect x="121.874" y="179.421" fill="#5B5B77" width="57.741" height="2.517"/>
		<rect x="126.213" y="183.976" fill="#BDBDCB" width="7.937" height="2.517"/>
		<path fill="#8E8E9A" d="M125.704,188.331h8.446v-1.838h-7.937v-2.517h7.937v-1.791h-14.646c0.008,1.112,0.309,2.154,0.834,3.05
			c0.27,0.471,0.602,0.903,0.981,1.282C122.446,187.636,123.99,188.331,125.704,188.331z"/>
		<rect x="134.15" y="186.493" fill="#373747" width="5.142" height="1.837"/>
		<rect x="134.15" y="183.976" fill="#BDBDCB" width="5.142" height="2.517"/>
		<rect x="134.15" y="182.185" fill="#373747" width="5.142" height="1.791"/>
		<rect x="139.292" y="186.493" fill="#8E8E9A" width="23.47" height="1.837"/>
		<rect x="139.292" y="183.976" fill="#BDBDCB" width="23.47" height="2.517"/>
		<rect x="139.292" y="182.185" fill="#8E8E9A" width="23.47" height="1.791"/>
		<rect x="162.762" y="186.493" fill="#373747" width="5.134" height="1.837"/>
		<rect x="162.762" y="183.976" fill="#BDBDCB" width="5.134" height="2.517"/>
		<rect x="162.762" y="182.185" fill="#373747" width="5.134" height="1.791"/>
		<rect x="167.896" y="183.976" fill="#BDBDCB" width="7.558" height="2.517"/>
		<path fill="#8E8E9A" d="M167.896,188.331h8.068c2.293,0,4.293-1.243,5.358-3.096c0.525-0.896,0.826-1.938,0.834-3.05h-14.26v1.791
			h7.558v2.517h-7.558V188.331z"/>
		<path fill="#1D1D28" d="M113.166,194.098h87.542v-8.863h-19.386c-1.065,1.853-3.065,3.096-5.358,3.096h-8.068h-5.134h-23.47
			h-5.142h-8.446c-1.714,0-3.258-0.695-4.385-1.814c-0.378-0.378-0.71-0.811-0.981-1.282h-7.172
			C113.166,185.235,113.166,194.098,113.166,194.098z"/>
		<path fill="#5B5B77" d="M208.143,185.235l-0.834-3.05h-25.153c-0.008,1.112-0.309,2.154-0.834,3.05h19.386H208.143z"/>
		<path fill="#8E8E9A" d="M214.103,184.3h7.852v-2.038h-12.191v-0.077h-2.455l0.834,3.05l0.98,1.282
			c1.119,1.119,2.664,1.814,4.377,1.814h8.454v-1.513h-7.852V184.3H214.103z"/>
		<rect x="214.103" y="184.3" fill="#BDBDCB" width="7.852" height="2.517"/>
		<rect x="221.954" y="186.817" fill="#373747" width="5.134" height="1.513"/>
		<rect x="221.954" y="184.3" fill="#BDBDCB" width="5.134" height="2.517"/>
		<rect x="221.954" y="182.262" fill="#373747" width="5.134" height="2.038"/>
		<rect x="221.954" y="182.185" fill="#5B5B77" width="5.134" height="0.077"/>
		<rect x="227.089" y="186.817" fill="#8E8E9A" width="23.47" height="1.513"/>
		<rect x="227.089" y="184.3" fill="#BDBDCB" width="23.47" height="2.517"/>
		<rect x="227.089" y="182.262" fill="#8E8E9A" width="23.47" height="2.038"/>
		<rect x="106.681" y="131.894" fill="#E5E5E7" width="188.054" height="5.095"/>
		<rect x="250.559" y="186.817" fill="#373747" width="5.134" height="1.513"/>
		<rect x="250.559" y="184.3" fill="#BDBDCB" width="5.134" height="2.517"/>
		<rect x="250.559" y="182.262" fill="#373747" width="5.134" height="2.038"/>
		<rect x="250.559" y="182.185" fill="#5B5B77" width="5.134" height="0.077"/>
		<polygon fill="#5B5B77" points="209.764,182.139 221.954,182.139 227.089,182.139 250.559,182.139 255.693,182.139 
			267.505,182.139 267.505,179.753 209.764,179.753 		"/>
		<rect x="106.681" y="171.685" fill="#E5E5E7" width="188.054" height="4.841"/>
		<rect x="106.681" y="166.597" fill="#D3D3D5" width="188.054" height="5.088"/>
		<rect x="106.681" y="161.88" fill="#E5E5E7" width="188.054" height="4.717"/>
		<rect x="106.681" y="156.785" fill="#D3D3D5" width="188.054" height="5.095"/>
		<rect x="106.681" y="151.697" fill="#E5E5E7" width="188.054" height="5.088"/>
		<rect x="106.681" y="146.602" fill="#D3D3D5" width="188.054" height="5.095"/>
		<rect x="106.681" y="142.077" fill="#E5E5E7" width="188.054" height="4.524"/>
		<rect x="106.681" y="136.99" fill="#D3D3D5" width="188.054" height="5.088"/>
		<rect x="255.693" y="184.3" fill="#BDBDCB" width="7.651" height="2.517"/>
		<path fill="#8E8E9A" d="M263.344,188.331h0.425h0.046c3.382-0.023,6.122-2.764,6.146-6.145h-2.455v0.077h-11.812v2.038h7.651
			v2.517h-7.651v1.513L263.344,188.331L263.344,188.331z"/>
		<path fill="#3A3A4C" d="M263.344,188.331c0,1.081,0.44,2.069,1.15,2.779s1.691,1.15,2.779,1.15h20.722
			c2,0,3.621-1.621,3.621-3.629v-0.301h-27.801h-0.046L263.344,188.331L263.344,188.331z"/>
		<rect x="106.681" y="126.806" fill="#D3D3D5" width="188.054" height="5.088"/>
		<path fill="#5B5B77" d="M269.96,182.185c-0.023,3.382-2.764,6.122-6.146,6.145h27.801h0.834l4.408,3.297v-5.42l-1.421-0.973v-3.05
			H269.96V182.185z"/>
		<path fill="#B7B7C8" d="M209.764,182.139h-2.455c0,0.015,0,0.031,0,0.046h-25.153c0-0.015,0-0.031,0-0.046h-14.26h-5.134h-23.47
			h-5.142h-14.646c0,0.015,0,0.031,0,0.046h-6.339h-10.971v-4.169V96.944H299.22v85.241h-3.783H269.96c0-0.015,0-0.031,0-0.046
			h-2.455v-2.386h-57.741V182.139z M294.735,171.685v-5.088v-4.717v-5.096v-5.088v-5.095v-4.524v-5.088v-5.095v-5.088v-4.339v-5.095
			v-5.088v-5.095v-4.586H106.681v4.586v5.095v5.088v5.095v4.339v5.088v5.095v5.088v4.524v5.095v5.088v5.096v4.717v5.088v4.841
			h188.054V171.685z M179.616,179.421h-57.741v2.517h57.741V179.421z"/>
		<polygon fill="#E44C23" points="298.356,192.747 298.356,187.226 296.858,186.207 296.858,191.627 		"/>
		<g>
			<rect x="125.97" y="177.39" fill="#E44C23" width="7.235" height="1.145"/>
		</g>
		<g>
			<rect x="136.093" y="177.39" fill="#E44C23" width="7.235" height="1.145"/>
		</g>
		<g>
			<rect x="209.731" y="177.962" fill="#E44C23" width="7.235" height="1.145"/>
		</g>
		<g>
			<rect x="219.855" y="177.962" fill="#E44C23" width="7.235" height="1.145"/>
		</g>
	</g>
</g>
</svg>
