<?xml version="1.0" encoding="utf-8"?>
<!-- Generator: Adobe Illustrator 17.0.0, SVG Export Plug-In . SVG Version: 6.00 Build 0)  -->
<!DOCTYPE svg PUBLIC "-//W3C//DTD SVG 1.1//EN" "http://www.w3.org/Graphics/SVG/1.1/DTD/svg11.dtd">
<svg version="1.1" xmlns="http://www.w3.org/2000/svg" xmlns:xlink="http://www.w3.org/1999/xlink" x="0px" y="0px" width="64px"
	 height="64px" viewBox="468 468 64 64" enable-background="new 468 468 64 64" xml:space="preserve">
<g id="Capa_1" display="none">
	<g display="inline">
		<path d="M482.667,532c-4.852,0-8.8-3.947-8.8-8.799V500.27c0-2.084,0.746-4.106,2.1-5.693c1.279-1.499,3.025-2.53,4.941-2.921
			v-6.324c0-9.557,8.565-17.332,19.092-17.332c10.527,0,19.092,7.775,19.092,17.332v6.324c1.916,0.391,3.662,1.422,4.941,2.921
			c1.354,1.587,2.1,3.609,2.1,5.692V523.2c0,4.852-3.948,8.8-8.8,8.8H482.667z M482.667,494.45c-3.209,0-5.819,2.61-5.819,5.819
			V523.2c0,3.209,2.61,5.819,5.819,5.819h34.666c3.209,0,5.819-2.61,5.819-5.819v-22.932c0-3.209-2.61-5.819-5.819-5.819H482.667z
			 M516.111,491.469v-6.137c0-7.913-7.228-14.351-16.111-14.351s-16.111,6.438-16.111,14.351v6.137H516.111z"/>
		<path d="M518.775,491.918v-6.587c0-9.382-8.423-17.015-18.775-17.015s-18.775,7.633-18.775,17.015v6.587
			c-3.991,0.688-7.041,4.166-7.041,8.351v22.932c0,4.676,3.806,8.482,8.483,8.482h34.666c4.677,0,8.483-3.805,8.483-8.483v-22.932
			C525.816,496.084,522.766,492.606,518.775,491.918z M483.572,485.332c0-8.089,7.369-14.668,16.428-14.668
			s16.428,6.58,16.428,14.668v6.454h-32.857V485.332z M523.469,523.2c0,3.383-2.753,6.136-6.136,6.136h-34.666
			c-3.383,0-6.136-2.753-6.136-6.136v-22.932c0-3.383,2.753-6.136,6.136-6.136h34.666c3.383,0,6.136,2.753,6.136,6.136V523.2z"/>
	</g>
</g>
<g id="Layer_2">
	<g>
		<g>
			<path d="M499.768,502.485c0.066,0,0.133,0,0.212,0c0.026,0,0.053,0,0.08,0c0.04,0,0.093,0,0.133,0
				c3.883-0.066,7.024-1.431,9.344-4.042c5.103-5.752,4.254-15.612,4.162-16.553c-0.331-7.064-3.671-10.444-6.428-12.021
				c-2.054-1.18-4.453-1.816-7.13-1.869h-0.093c-0.013,0-0.04,0-0.053,0h-0.08c-1.471,0-4.36,0.239-7.13,1.816
				c-2.783,1.577-6.176,4.957-6.507,12.074c-0.093,0.941-0.941,10.801,4.162,16.553
				C492.744,501.054,495.885,502.419,499.768,502.485z M489.815,482.221c0-0.04,0.013-0.08,0.013-0.106
				c0.437-9.503,7.183-10.523,10.072-10.523h0.053c0.027,0,0.066,0,0.106,0c3.578,0.079,9.662,1.537,10.072,10.523
				c0,0.04,0,0.08,0.013,0.106c0.013,0.093,0.941,9.105-3.274,13.85c-1.67,1.882-3.896,2.81-6.825,2.836c-0.026,0-0.04,0-0.066,0
				l0,0c-0.027,0-0.04,0-0.066,0c-2.916-0.027-5.156-0.954-6.812-2.836C488.9,491.352,489.802,482.3,489.815,482.221z"/>
			<path d="M527.216,518.84c0-0.013,0-0.027,0-0.04c0-0.106-0.013-0.212-0.013-0.331c-0.08-2.624-0.252-8.76-6.004-10.722
				c-0.04-0.013-0.093-0.027-0.133-0.04c-5.977-1.524-10.947-4.97-11-5.01c-0.808-0.57-1.922-0.371-2.492,0.437
				s-0.371,1.922,0.437,2.492c0.225,0.159,5.5,3.83,12.1,5.527c3.088,1.1,3.433,4.4,3.525,7.422c0,0.119,0,0.225,0.013,0.331
				c0.013,1.193-0.066,3.035-0.278,4.095c-2.147,1.219-10.563,5.434-23.366,5.434c-12.75,0-21.218-4.228-23.379-5.447
				c-0.212-1.06-0.305-2.902-0.278-4.095c0-0.106,0.013-0.212,0.013-0.331c0.093-3.022,0.437-6.322,3.525-7.422
				c6.6-1.696,11.875-5.381,12.1-5.527c0.808-0.57,1.007-1.683,0.437-2.492s-1.683-1.007-2.492-0.437
				c-0.053,0.04-4.996,3.486-11,5.01c-0.053,0.013-0.093,0.027-0.133,0.04c-5.752,1.975-5.924,8.111-6.004,10.722
				c0,0.119,0,0.225-0.013,0.331c0,0.013,0,0.026,0,0.04c-0.013,0.689-0.026,4.228,0.676,6.004c0.133,0.345,0.371,0.636,0.689,0.835
				c0.398,0.265,9.927,6.335,25.87,6.335c15.944,0,25.473-6.083,25.87-6.335c0.305-0.199,0.557-0.49,0.689-0.835
				C527.242,523.067,527.229,519.529,527.216,518.84z"/>
		</g>
	</g>
</g>
</svg>
